<svg width="204" height="127" viewBox="0 0 204 127" fill="none" xmlns="http://www.w3.org/2000/svg">
<mask id="mask0_24_146" style="mask-type:luminance" maskUnits="userSpaceOnUse" x="1" y="1" width="201" height="126">
<path d="M202 1H1V127H202V1Z" fill="white"/>
</mask>
<g mask="url(#mask0_24_146)">
<path d="M1.85187 55.2H10.0119C11.2439 55.2 12.3079 55.312 13.2039 55.536C14.1159 55.744 14.8679 56.048 15.4599 56.448C16.0519 56.832 16.4919 57.296 16.7799 57.84C17.0679 58.384 17.2119 58.984 17.2119 59.64C17.2119 60.488 16.9719 61.224 16.4919 61.848C16.0119 62.472 15.2919 62.936 14.3319 63.24C15.5319 63.48 16.4679 63.952 17.1399 64.656C17.8279 65.344 18.1719 66.232 18.1719 67.32C18.1719 68.76 17.5719 69.904 16.3719 70.752C15.1879 71.584 13.3079 72 10.7319 72H1.85187V55.2ZM5.33187 64.32V70.2H10.7319C11.9319 70.2 12.8519 69.96 13.4919 69.48C14.1319 69 14.4519 68.28 14.4519 67.32C14.4519 66.296 14.1319 65.544 13.4919 65.064C12.8519 64.568 11.9319 64.32 10.7319 64.32H5.33187ZM10.0119 62.52C12.3319 62.52 13.4919 61.56 13.4919 59.64C13.4919 58.792 13.1959 58.144 12.6039 57.696C12.0279 57.232 11.1639 57 10.0119 57H5.33187V62.52H10.0119ZM30.5272 61.2H27.6472C26.5592 61.2 25.7272 61.496 25.1512 62.088C24.5752 62.664 24.2872 63.528 24.2872 64.68V72H20.9272V64.68C20.9272 63.048 21.4392 61.784 22.4632 60.888C23.5032 59.976 24.9912 59.52 26.9272 59.52H30.5272V61.2ZM35.9178 72H32.5578V59.76H35.9178V72ZM36.0378 56.52C36.0378 57 35.8698 57.424 35.5338 57.792C35.2138 58.144 34.7818 58.32 34.2378 58.32C33.6938 58.32 33.2538 58.144 32.9178 57.792C32.5978 57.424 32.4378 57 32.4378 56.52C32.4378 56.04 32.5978 55.624 32.9178 55.272C33.2538 54.904 33.6938 54.72 34.2378 54.72C34.7658 54.72 35.1978 54.904 35.5338 55.272C35.8698 55.624 36.0378 56.04 36.0378 56.52ZM46.1188 61.2C44.9668 61.2 44.0548 61.56 43.3828 62.28C42.7268 62.984 42.3988 64.064 42.3988 65.52C42.3988 66.976 42.7268 68.064 43.3828 68.784C44.0548 69.488 44.9668 69.84 46.1188 69.84H49.1188V61.2H46.1188ZM52.4788 71.76C52.4788 72.512 52.3348 73.192 52.0468 73.8C51.7588 74.424 51.3268 74.96 50.7508 75.408C50.1908 75.856 49.4788 76.2 48.6148 76.44C47.7668 76.68 46.7748 76.8 45.6388 76.8C45.2548 76.8 44.8388 76.768 44.3908 76.704C43.9588 76.656 43.5188 76.568 43.0708 76.44C42.6228 76.328 42.1828 76.176 41.7508 75.984C41.3348 75.808 40.9508 75.6 40.5988 75.36L41.4388 73.92C41.9828 74.288 42.5988 74.576 43.2868 74.784C43.9748 75.008 44.6788 75.12 45.3988 75.12C46.5988 75.12 47.5188 74.848 48.1588 74.304C48.7988 73.76 49.1188 72.912 49.1188 71.76V71.52H46.1188C45.0148 71.52 44.0068 71.376 43.0948 71.088C42.1988 70.8 41.4308 70.392 40.7908 69.864C40.1508 69.336 39.6548 68.704 39.3027 67.968C38.9668 67.232 38.7988 66.416 38.7988 65.52C38.7988 64.624 38.9668 63.808 39.3027 63.072C39.6548 62.336 40.1508 61.704 40.7908 61.176C41.4308 60.648 42.1988 60.24 43.0948 59.952C44.0068 59.664 45.0148 59.52 46.1188 59.52H52.4788V71.76ZM58.5884 68.04C58.5884 69.56 59.5084 70.32 61.3484 70.32H64.7084V65.76H61.3484C59.5084 65.76 58.5884 66.52 58.5884 68.04ZM64.7084 64.08C64.7084 62.928 64.4044 62.08 63.7964 61.536C63.2044 60.992 62.4284 60.72 61.4684 60.72C60.7484 60.72 60.0444 60.832 59.3564 61.056C58.6684 61.264 58.0524 61.552 57.5084 61.92L56.6684 60.48C57.0204 60.24 57.4044 60.032 57.8204 59.856C58.2524 59.68 58.6924 59.536 59.1404 59.424C59.5884 59.296 60.0284 59.2 60.4604 59.136C60.9084 59.072 61.3244 59.04 61.7084 59.04C62.7324 59.04 63.6364 59.16 64.4204 59.4C65.2044 59.64 65.8684 59.984 66.4124 60.432C66.9564 60.88 67.3644 61.416 67.6364 62.04C67.9244 62.648 68.0684 63.328 68.0684 64.08V72H61.3484C59.1724 72 57.5644 71.672 56.5244 71.016C55.5004 70.36 54.9884 69.368 54.9884 68.04C54.9884 66.712 55.5004 65.72 56.5244 65.064C57.5644 64.408 59.1724 64.08 61.3484 64.08H64.7084ZM81.0172 70.32V61.2H78.0172C77.4732 61.2 76.9692 61.288 76.5052 61.464C76.0572 61.624 75.6652 61.888 75.3292 62.256C75.0092 62.624 74.7532 63.096 74.5612 63.672C74.3852 64.248 74.2972 64.944 74.2972 65.76C74.2972 66.576 74.3852 67.272 74.5612 67.848C74.7532 68.424 75.0092 68.896 75.3292 69.264C75.6652 69.632 76.0572 69.904 76.5052 70.08C76.9692 70.24 77.4732 70.32 78.0172 70.32H81.0172ZM78.0172 72C76.9132 72 75.9052 71.856 74.9932 71.568C74.0972 71.28 73.3292 70.864 72.6892 70.32C72.0492 69.776 71.5532 69.12 71.2012 68.352C70.8652 67.584 70.6972 66.72 70.6972 65.76C70.6972 64.8 70.8652 63.936 71.2012 63.168C71.5532 62.4 72.0492 61.744 72.6892 61.2C73.3292 60.656 74.0972 60.24 74.9932 59.952C75.9052 59.664 76.9132 59.52 78.0172 59.52H81.0172V55.2H84.3772V72H78.0172ZM94.9269 70.8C95.7109 70.8 96.4389 70.664 97.1109 70.392C97.7989 70.12 98.4709 69.736 99.1269 69.24L100.087 70.68C99.7829 70.952 99.4229 71.2 99.0069 71.424C98.6069 71.648 98.1669 71.84 97.6869 72C97.2229 72.144 96.7349 72.256 96.2229 72.336C95.7109 72.432 95.1989 72.48 94.6869 72.48C93.5509 72.48 92.5109 72.328 91.5669 72.024C90.6389 71.736 89.8469 71.312 89.1909 70.752C88.5349 70.176 88.0229 69.472 87.6549 68.64C87.3029 67.808 87.1269 66.848 87.1269 65.76C87.1269 64.688 87.2949 63.736 87.6309 62.904C87.9829 62.056 88.4629 61.352 89.0709 60.792C89.6949 60.216 90.4309 59.784 91.2789 59.496C92.1269 59.192 93.0629 59.04 94.0869 59.04C95.0469 59.04 95.9509 59.184 96.7989 59.472C97.6469 59.76 98.3829 60.184 99.0069 60.744C99.6309 61.288 100.127 61.952 100.495 62.736C100.863 63.52 101.047 64.408 101.047 65.4V67.08H90.7989C90.9909 68.408 91.4469 69.36 92.1669 69.936C92.9029 70.512 93.8229 70.8 94.9269 70.8ZM94.0869 60.6C93.6229 60.6 93.1909 60.688 92.7909 60.864C92.3909 61.04 92.0389 61.32 91.7349 61.704C91.4469 62.088 91.2069 62.584 91.0149 63.192C90.8389 63.8 90.7429 64.536 90.7269 65.4H97.4469C97.4469 64.568 97.3509 63.848 97.1589 63.24C96.9669 62.632 96.7109 62.136 96.3909 61.752C96.0869 61.352 95.7269 61.064 95.3109 60.888C94.9109 60.696 94.5029 60.6 94.0869 60.6ZM107.285 72H103.925V59.76H107.285V72ZM107.405 56.52C107.405 57 107.237 57.424 106.901 57.792C106.581 58.144 106.149 58.32 105.605 58.32C105.061 58.32 104.621 58.144 104.285 57.792C103.965 57.424 103.805 57 103.805 56.52C103.805 56.04 103.965 55.624 104.285 55.272C104.621 54.904 105.061 54.72 105.605 54.72C106.133 54.72 106.565 54.904 106.901 55.272C107.237 55.624 107.405 56.04 107.405 56.52ZM120.246 61.2H117.366C116.278 61.2 115.446 61.496 114.87 62.088C114.294 62.664 114.006 63.528 114.006 64.68V72H110.646V64.68C110.646 63.048 111.158 61.784 112.182 60.888C113.222 59.976 114.71 59.52 116.646 59.52H120.246V61.2ZM128.15 70.92C128.662 70.92 129.142 70.824 129.59 70.632C130.038 70.44 130.43 70.144 130.766 69.744C131.102 69.328 131.366 68.792 131.558 68.136C131.766 67.48 131.87 66.688 131.87 65.76C131.87 64.832 131.766 64.04 131.558 63.384C131.366 62.728 131.102 62.2 130.766 61.8C130.43 61.384 130.038 61.08 129.59 60.888C129.142 60.696 128.662 60.6 128.15 60.6C127.638 60.6 127.158 60.696 126.71 60.888C126.262 61.08 125.87 61.384 125.534 61.8C125.198 62.2 124.926 62.728 124.718 63.384C124.526 64.04 124.43 64.832 124.43 65.76C124.43 66.688 124.526 67.48 124.718 68.136C124.926 68.792 125.198 69.328 125.534 69.744C125.87 70.144 126.262 70.44 126.71 70.632C127.158 70.824 127.638 70.92 128.15 70.92ZM128.15 59.04C129.222 59.04 130.206 59.192 131.102 59.496C132.014 59.784 132.79 60.216 133.43 60.792C134.07 61.352 134.566 62.056 134.918 62.904C135.286 63.736 135.47 64.688 135.47 65.76C135.47 66.848 135.286 67.808 134.918 68.64C134.566 69.472 134.07 70.176 133.43 70.752C132.79 71.312 132.014 71.736 131.102 72.024C130.206 72.328 129.222 72.48 128.15 72.48C127.062 72.48 126.07 72.328 125.174 72.024C124.278 71.736 123.51 71.312 122.87 70.752C122.23 70.176 121.726 69.472 121.358 68.64C121.006 67.808 120.83 66.848 120.83 65.76C120.83 64.688 121.006 63.736 121.358 62.904C121.726 62.056 122.23 61.352 122.87 60.792C123.51 60.216 124.278 59.784 125.174 59.496C126.07 59.192 127.062 59.04 128.15 59.04ZM141.115 62.16C141.115 62.528 141.275 62.864 141.595 63.168C141.931 63.472 142.491 63.736 143.275 63.96L146.995 65.04C148.147 65.376 149.035 65.832 149.659 66.408C150.283 66.984 150.595 67.728 150.595 68.64C150.595 69.216 150.475 69.744 150.235 70.224C149.995 70.688 149.603 71.088 149.059 71.424C148.515 71.76 147.811 72.016 146.947 72.192C146.083 72.384 145.019 72.48 143.755 72.48C143.099 72.48 142.451 72.432 141.811 72.336C141.187 72.24 140.587 72.112 140.011 71.952C139.451 71.776 138.939 71.584 138.475 71.376C138.011 71.152 137.611 70.92 137.275 70.68L138.235 69.24C138.907 69.656 139.691 70.024 140.587 70.344C141.499 70.648 142.555 70.8 143.755 70.8C144.955 70.8 145.795 70.64 146.275 70.32C146.755 70 146.995 69.6 146.995 69.12C146.995 68.752 146.827 68.424 146.491 68.136C146.155 67.832 145.563 67.56 144.715 67.32L140.995 66.24C139.971 65.936 139.131 65.504 138.475 64.944C137.835 64.368 137.515 63.6 137.515 62.64C137.515 62.128 137.627 61.656 137.851 61.224C138.091 60.776 138.459 60.392 138.955 60.072C139.451 59.752 140.083 59.504 140.851 59.328C141.619 59.136 142.547 59.04 143.635 59.04C144.963 59.04 146.163 59.224 147.235 59.592C148.323 59.944 149.203 60.36 149.875 60.84L148.915 62.28C148.259 61.864 147.515 61.504 146.683 61.2C145.851 60.88 144.835 60.72 143.635 60.72C142.787 60.72 142.155 60.856 141.739 61.128C141.323 61.4 141.115 61.744 141.115 62.16ZM164.871 57V62.52H173.631V64.32H164.871V70.2H176.031V72H161.391V55.2H176.031V57H164.871ZM187.91 61.2H185.03C183.942 61.2 183.11 61.496 182.534 62.088C181.958 62.664 181.67 63.528 181.67 64.68V72H178.31V64.68C178.31 63.048 178.822 61.784 179.846 60.888C180.886 59.976 182.374 59.52 184.31 59.52H187.91V61.2ZM193.301 72H189.941V59.76H193.301V72ZM193.421 56.52C193.421 57 193.253 57.424 192.917 57.792C192.597 58.144 192.165 58.32 191.621 58.32C191.077 58.32 190.637 58.144 190.301 57.792C189.981 57.424 189.821 57 189.821 56.52C189.821 56.04 189.981 55.624 190.301 55.272C190.637 54.904 191.077 54.72 191.621 54.72C192.149 54.72 192.581 54.904 192.917 55.272C193.253 55.624 193.421 56.04 193.421 56.52ZM200.142 72H196.782V55.2H200.142V72Z" fill="#588157"/>
<path d="M4 79H200V84L152 99L102 108.5L52.5 99L4 84V79Z" fill="#284134"/>
</g>
<g clip-path="url(#clip0_24_146)">
<path d="M114.958 8.68098C114.864 8.68098 114.766 8.65641 114.676 8.60729C113.489 7.92769 112.297 6.90012 111.135 5.55732C110.93 5.31987 110.954 4.96369 111.192 4.75491C111.429 4.5502 111.786 4.57477 111.994 4.81222C113.075 6.06085 114.168 7.00247 115.241 7.62065C115.511 7.77622 115.605 8.12421 115.45 8.3944C115.343 8.57863 115.155 8.68098 114.958 8.68098Z" fill="#588157"/>
<path d="M109.833 8.15209C109.632 8.15209 109.436 8.04567 109.333 7.85324C108.744 6.75608 108.109 5.51151 107.446 4.14823C107.307 3.86576 107.426 3.52596 107.708 3.39087C107.991 3.25166 108.33 3.37039 108.465 3.65287C109.121 4.99978 109.751 6.23204 110.332 7.31285C110.48 7.58715 110.377 7.93103 110.103 8.0825C110.017 8.12755 109.927 8.15209 109.833 8.15209Z" fill="#588157"/>
<path d="M110.987 9.42954C110.856 9.42954 110.725 9.38452 110.619 9.29445L107.876 6.965C107.639 6.7603 107.606 6.40414 107.81 6.16669C108.015 5.92924 108.371 5.90058 108.609 6.10119L111.352 8.43064C111.589 8.63532 111.622 8.9915 111.417 9.22895C111.307 9.35995 111.147 9.42954 110.983 9.42954H110.987Z" fill="#588157"/>
<path d="M115.466 12.1355C115.31 12.1355 115.159 12.0741 115.044 11.9472C114.987 11.8817 114.946 11.8121 114.922 11.7343C114.721 11.5583 114.037 11.0629 111.716 9.72828C111.446 9.57271 111.352 9.22472 111.507 8.95452C111.663 8.68433 112.011 8.59017 112.281 8.74573C115.978 10.8664 116.006 11.1202 116.043 11.4682C116.064 11.6483 115.982 11.8653 115.847 11.9881C115.736 12.0864 115.601 12.1355 115.466 12.1355Z" fill="#588157"/>
<path d="M112.289 15.8197C112.105 15.8197 111.925 15.7296 111.814 15.5658C111.642 15.3038 111.712 14.9517 111.974 14.7798C113.783 13.5843 114.172 13.0808 114.254 12.9375C114.213 12.6878 114.348 12.4299 114.594 12.3275C114.881 12.2047 115.216 12.3398 115.339 12.6264C115.658 13.3715 114.942 14.1821 112.604 15.7296C112.506 15.791 112.4 15.8237 112.293 15.8237L112.289 15.8197Z" fill="#588157"/>
<path d="M115.753 15.1444C115.54 15.1444 115.339 15.0257 115.241 14.8251C115.106 14.5426 115.225 14.2028 115.503 14.0677L117.525 13.0893C117.808 12.9542 118.148 13.0688 118.283 13.3513C118.418 13.6338 118.303 13.9736 118.021 14.1087L115.998 15.0871C115.921 15.1239 115.834 15.1444 115.753 15.1444Z" fill="#588157"/>
<path d="M105.501 6.12599C105.366 6.12599 105.231 6.07685 105.121 5.97859L101.293 2.52331C101.059 2.31453 101.043 1.95426 101.252 1.72091C101.461 1.48755 101.821 1.47118 102.054 1.67997L105.882 5.13525C106.115 5.34403 106.132 5.70431 105.923 5.93766C105.813 6.06047 105.657 6.12599 105.501 6.12599Z" fill="#588157"/>
<path d="M99.4301 2.74433C99.3073 2.74433 99.1804 2.7034 99.0739 2.61743C98.8283 2.42093 98.7914 2.06475 98.9879 1.81911L100.073 0.468113C100.269 0.222476 100.626 0.185631 100.871 0.378047C101.117 0.574554 101.154 0.930727 100.961 1.17636L99.8763 2.53145C99.7658 2.67064 99.5979 2.74433 99.4342 2.74433H99.4301Z" fill="#588157"/>
<path d="M93.367 4.39838C93.105 4.39838 92.8717 4.21824 92.8144 3.94804C92.7489 3.641 92.9454 3.33805 93.2483 3.27255L97.7967 2.2941C98.1037 2.2286 98.4067 2.4251 98.4722 2.72804C98.5377 3.0351 98.3412 3.33805 98.0382 3.40355L93.4899 4.382C93.4489 4.39019 93.408 4.39429 93.3711 4.39429L93.367 4.39838Z" fill="#588157"/>
<path d="M94.3046 5.22484C94.0467 5.22484 93.8133 5.0447 93.7519 4.78268C93.6823 4.47564 93.8747 4.1727 94.1818 4.1031L97.5019 3.34981C97.8049 3.28022 98.1119 3.47264 98.1815 3.77559C98.2511 4.08263 98.0587 4.38557 97.7558 4.45517L94.4315 5.20846C94.3906 5.21665 94.3455 5.22074 94.3046 5.22074V5.22484Z" fill="#588157"/>
<path d="M102.177 6.95259C102.116 6.95259 102.054 6.9444 101.997 6.92393L97.5182 5.42146C97.2194 5.3232 97.0597 4.99978 97.162 4.70502C97.2603 4.40615 97.5837 4.24649 97.8785 4.34884L102.357 5.85131C102.656 5.94957 102.816 6.27299 102.713 6.57184C102.636 6.80929 102.41 6.95669 102.177 6.95669V6.95259Z" fill="#588157"/>
<path d="M103.63 8.82006C103.197 8.82006 102.746 8.73818 102.28 8.57443C101.985 8.47207 101.829 8.14865 101.932 7.8498C102.034 7.55504 102.357 7.39948 102.656 7.50181C103.684 7.86209 104.535 7.68604 105.329 6.94504C105.559 6.73216 105.919 6.74444 106.132 6.9737C106.345 7.20296 106.333 7.56323 106.103 7.77611C105.354 8.46798 104.527 8.81597 103.63 8.81597V8.82006Z" fill="#588157"/>
<path d="M109.513 12.8279C109.182 12.8279 108.961 12.8279 106.566 9.74107C106.374 9.49136 106.418 9.13517 106.668 8.94685C106.914 8.75444 107.274 8.79947 107.462 9.0492C108.961 10.9815 109.493 11.5383 109.673 11.698C109.751 11.7144 109.829 11.7512 109.894 11.8044C110.14 11.9968 110.181 12.3571 109.988 12.6027C109.882 12.7378 109.69 12.832 109.513 12.832V12.8279Z" fill="#588157"/>
<path d="M109.907 18.8993C109.726 18.8993 109.554 18.8174 109.444 18.6578L106.844 14.9773C106.664 14.7235 106.725 14.3673 106.979 14.1872C107.233 14.0071 107.589 14.0685 107.769 14.3223L110.369 18.0027C110.549 18.2566 110.488 18.6127 110.234 18.7929C110.136 18.8625 110.021 18.8952 109.907 18.8952V18.8993Z" fill="#588157"/>
<path d="M104.994 19.0501C104.969 19.0501 104.949 19.0501 104.924 19.046L101.24 18.5957C100.928 18.5588 100.707 18.2722 100.744 17.9652C100.781 17.6541 101.072 17.4371 101.375 17.4698L105.059 17.9201C105.37 17.957 105.591 18.2395 105.554 18.5506C105.518 18.8372 105.276 19.0501 104.994 19.0501Z" fill="#588157"/>
<path d="M99.8641 16.7946C99.6389 16.7946 99.4219 16.6595 99.336 16.4344C99.2213 16.1437 99.3646 15.8121 99.6553 15.6975L103.483 14.195C103.774 14.0804 104.105 14.2236 104.22 14.5184C104.335 14.8091 104.191 15.1407 103.897 15.2553L100.069 16.7578C99.9992 16.7864 99.9296 16.7987 99.86 16.7987L99.8641 16.7946Z" fill="#588157"/>
<path d="M97.6983 13.4909C97.4854 13.4909 97.2848 13.3722 97.1866 13.1675C97.0515 12.885 97.1702 12.5452 97.4527 12.4101C98.4639 11.927 98.9961 11.2638 99.0821 10.3877C99.1107 10.0766 99.3932 9.84731 99.7003 9.87595C100.011 9.90462 100.241 10.183 100.212 10.4942C100.085 11.7837 99.3236 12.7745 97.9399 13.4336C97.8621 13.4704 97.7761 13.4909 97.6942 13.4909H97.6983Z" fill="#588157"/>
<path d="M99.7945 9.95816C99.6676 9.95816 99.5407 9.91723 99.4342 9.83126L96.6913 7.5755C96.4497 7.37489 96.4129 7.01873 96.6135 6.77718C96.8141 6.53564 97.1703 6.49879 97.4118 6.69938L100.155 8.95514C100.396 9.15575 100.433 9.51193 100.232 9.75347C100.122 9.88856 99.9582 9.96225 99.7945 9.96225V9.95816Z" fill="#588157"/>
<path d="M95.676 8.52865C95.5204 8.52865 95.3648 8.46315 95.2502 8.34032C95.0332 8.09468 94.0957 7.16946 92.4622 5.59329C92.2371 5.37631 92.233 5.01604 92.4499 4.79088C92.6669 4.56571 93.0272 4.55752 93.2523 4.77859C95.4836 6.93611 95.9462 7.4151 96.0976 7.58703C96.3064 7.8204 96.286 8.18065 96.0526 8.38946C95.9462 8.4836 95.8111 8.53274 95.676 8.53274V8.52865Z" fill="#588157"/>
<path d="M90.5503 5.59755C90.3702 5.59755 90.1901 5.51158 90.0795 5.34782C89.9035 5.0899 89.969 4.73374 90.2269 4.55769C93.6044 2.25689 93.7845 2.22825 94.1693 2.7236C94.3618 2.96923 94.3208 3.32541 94.0752 3.52193C93.981 3.59562 93.8705 3.63655 93.76 3.64064C93.5757 3.72662 92.9453 4.0787 90.8656 5.4952C90.7673 5.5607 90.6568 5.59346 90.5462 5.59346L90.5503 5.59755Z" fill="#588157"/>
<path d="M84.9909 6.87477C84.8517 6.87477 84.7084 6.82156 84.6019 6.7192C84.3727 6.50223 84.3645 6.14605 84.5815 5.91679C85.0891 5.38459 86.6284 3.7552 88.0777 4.52896C88.3561 4.67634 88.4584 5.02022 88.311 5.29861C88.1637 5.57292 87.8198 5.67934 87.5414 5.53197C86.9437 5.21264 85.9447 6.12559 85.4044 6.69875C85.2938 6.81746 85.1423 6.87477 84.9909 6.87477Z" fill="#588157"/>
<path d="M81.5929 13.4905C81.4782 13.4905 81.3595 13.4537 81.2612 13.38C81.0074 13.1958 80.9501 12.8396 81.1343 12.5858L83.1567 9.80598C83.341 9.55215 83.6971 9.49484 83.951 9.67908C84.2048 9.86329 84.2621 10.2195 84.0779 10.4733L82.0555 13.2531C81.9449 13.4046 81.773 13.4864 81.5969 13.4864L81.5929 13.4905Z" fill="#588157"/>
<path d="M86.6488 8.75471C86.4646 8.75471 86.2886 8.66874 86.178 8.50498C86.002 8.24706 86.0716 7.89089 86.3336 7.71895L88.79 6.06499C89.052 5.88896 89.404 5.95856 89.576 6.22055C89.752 6.47848 89.6824 6.83466 89.4204 7.00661L86.9641 8.66055C86.8658 8.72604 86.7553 8.7588 86.6488 8.7588V8.75471Z" fill="#588157"/>
<path d="M90.7715 14.2405C90.6774 14.2405 90.5832 14.2159 90.4931 14.1709C90.0305 13.9171 89.4451 13.1393 88.2701 9.17633C88.1801 8.87748 88.352 8.55813 88.655 8.47218C88.9538 8.38211 89.2691 8.55405 89.3591 8.857C90.4645 12.5947 90.9639 13.1188 91.0499 13.1884C91.3242 13.3398 91.4184 13.6797 91.2669 13.9539C91.1646 14.1423 90.968 14.2446 90.7674 14.2446L90.7715 14.2405Z" fill="#588157"/>
<path d="M94.6648 11.3869C94.5747 11.3869 94.4846 11.3664 94.3987 11.3214C91.8072 9.93763 90.7264 8.94689 90.7755 8.00939C90.7919 7.70234 91.0498 7.48535 91.361 7.48535C91.668 7.49354 91.9136 7.76375 91.9095 8.07079C91.9095 8.09536 91.9382 8.72173 94.935 10.3184C95.2133 10.4657 95.3157 10.8096 95.1683 11.088C95.066 11.2804 94.8695 11.3869 94.6688 11.3869H94.6648Z" fill="#588157"/>
<path d="M92.1389 13.8674C91.8769 13.8674 91.6394 13.6832 91.5862 13.4171C91.5207 13.1101 91.7172 12.8112 92.0242 12.7457L95.2011 12.0702C95.5082 12.0047 95.8111 12.2012 95.8766 12.5083C95.9421 12.8153 95.7456 13.1142 95.4386 13.1838L92.2617 13.8592C92.2207 13.8674 92.1839 13.8715 92.143 13.8715L92.1389 13.8674Z" fill="#588157"/>
<path d="M86.6489 17.1709C86.3828 17.1709 86.1413 16.9785 86.0921 16.7083C86.0348 16.4013 86.2395 16.1024 86.5466 16.0451C90.1451 15.3737 91.2014 14.7309 91.5125 14.4075C91.7295 14.1823 92.0898 14.1742 92.3149 14.3911C92.5401 14.6081 92.5483 14.9684 92.3313 15.1936C91.5944 15.9632 89.8217 16.5896 86.7513 17.1627C86.7144 17.1709 86.6817 17.1709 86.6448 17.1709H86.6489Z" fill="#588157"/>
<path d="M91.1112 18.7834C90.886 18.7834 90.6527 18.7711 90.4111 18.7424C90.1 18.7097 89.8748 18.4272 89.9117 18.1161C89.9444 17.8049 90.2269 17.5757 90.538 17.6166C92.1797 17.7968 93.2318 17.2768 93.8664 15.979C94.0015 15.6966 94.3413 15.5778 94.6238 15.717C94.9063 15.8521 95.0209 16.1919 94.8858 16.4744C94.1448 17.9933 92.847 18.7834 91.1112 18.7834Z" fill="#588157"/>
<path d="M97.4855 18.2962C97.3177 18.2962 97.1498 18.2225 97.0352 18.0752L95.2298 15.7457C95.0374 15.496 95.0824 15.1398 95.3321 14.9515C95.5778 14.7591 95.9339 14.8041 96.1263 15.0538L97.9318 17.3833C98.1242 17.6289 98.0792 17.9892 97.8335 18.1816C97.7312 18.2635 97.6084 18.3003 97.4855 18.3003V18.2962Z" fill="#588157"/>
<path d="M85.2037 18.0719C85.13 18.0719 85.0522 18.0555 84.9785 18.0269L82.0186 16.7495C81.732 16.6267 81.5969 16.291 81.7238 16.0044C81.8466 15.7179 82.1824 15.5828 82.4689 15.7097L85.4288 16.987C85.7154 17.1098 85.8505 17.4455 85.7277 17.7321C85.6335 17.945 85.4248 18.076 85.2078 18.076L85.2037 18.0719Z" fill="#588157"/>
<path d="M84.1229 15.6689C83.865 15.6689 83.6357 15.4928 83.5702 15.2349C83.4966 14.9319 83.6849 14.6249 83.9878 14.5512C85.7195 14.1336 86.8413 13.5318 87.2302 12.8031C87.3776 12.5288 87.7215 12.4224 87.9999 12.5738C88.2742 12.7212 88.3806 13.0651 88.2291 13.3435C87.6642 14.3916 86.3664 15.1489 84.2498 15.6566C84.2048 15.6689 84.1598 15.673 84.1188 15.673L84.1229 15.6689Z" fill="#588157"/>
<path d="M85.0276 12.6931C84.6346 12.6931 84.2211 12.5908 83.7954 12.3779C83.5129 12.2387 83.3982 11.8989 83.5374 11.6164C83.6766 11.338 84.0164 11.2193 84.2989 11.3585C84.9908 11.6983 85.4739 11.6082 85.9201 11.0596C86.1166 10.814 86.4728 10.7772 86.7184 10.9737C86.96 11.1702 87.0009 11.5304 86.8003 11.772C86.309 12.3779 85.699 12.689 85.0276 12.689V12.6931Z" fill="#588157"/>
<path d="M82.6818 20.4503C82.4198 20.4503 82.1824 20.3848 81.9695 20.2579C81.556 20.0122 81.3063 19.566 81.2121 18.9028C80.3401 18.9928 79.4681 18.9355 79.1447 18.301C78.8131 17.6541 79.2143 16.8476 80.4752 15.5989C80.6963 15.3779 81.0566 15.382 81.2776 15.603C81.4987 15.8241 81.4946 16.1844 81.2735 16.4055C80.467 17.2038 80.2541 17.605 80.1968 17.7605C80.3442 17.8015 80.7372 17.8465 81.6502 17.695L82.3093 17.5845V18.2518C82.3093 18.9028 82.4403 19.2098 82.5549 19.2753C82.6614 19.3367 82.9684 19.3121 83.4965 19.0256C83.7708 18.8782 84.1188 18.9805 84.2662 19.2548C84.4136 19.5291 84.3112 19.873 84.0369 20.0245C83.5252 20.3029 83.0789 20.438 82.69 20.438L82.6818 20.4503Z" fill="#588157"/>
<path d="M99.3033 41.3334C98.1856 41.3334 97.0147 41.2925 95.7825 41.2148C92.5974 41.1696 89.8258 40.3918 87.5741 38.8974C86.0062 38.8647 83.7176 35.7943 79.0178 17.3389C78.94 17.0359 79.1243 16.7248 79.4272 16.647C79.7302 16.5692 80.0413 16.7534 80.1191 17.0564C85.2283 37.129 87.2753 37.825 87.6274 37.7552C87.7747 37.7307 87.9262 37.7594 88.049 37.8453C90.141 39.2824 92.7571 40.0314 95.8234 40.0724C106.468 40.7685 112.514 38.4348 113.825 33.1415C113.829 33.117 113.837 33.0924 113.845 33.0718C117.624 23.4389 118.844 18.7226 119.081 16.4259C118.577 16.9622 117.734 17.1587 116.506 17.0236C116.42 17.7564 116.142 18.2928 115.663 18.6203C114.979 19.0911 113.984 19.0829 112.625 18.5875C112.117 19.5046 111.499 20.0572 110.787 20.2374C110.144 20.4011 109.452 20.2537 108.727 19.8034C107.86 20.5976 107.061 20.9333 106.308 20.831C105.768 20.7573 105.289 20.4584 104.879 19.9426C103.655 21.0153 102.578 21.5065 101.608 21.437C101.08 21.4 100.605 21.1995 100.184 20.8351C99.7863 21.2362 99.3237 21.4819 98.7956 21.5678C97.8499 21.7234 96.765 21.3551 95.4959 20.4502C95.0783 21.1094 94.5707 21.4901 93.9811 21.5802C93.2279 21.6949 92.4295 21.3427 91.5575 20.4953C90.9844 21.0235 90.3744 21.2935 89.7357 21.2935H89.7316C88.9211 21.2935 88.1268 20.876 87.3162 20.0245C86.5752 20.614 85.9079 20.8269 85.2856 20.6795C84.5815 20.5117 84.0329 19.8853 83.6562 18.8127C83.5539 18.5179 83.7095 18.1945 84.0042 18.088C84.299 17.9857 84.6224 18.1372 84.7289 18.436C84.9622 19.0993 85.2529 19.5046 85.5517 19.5742C85.8792 19.6519 86.3869 19.3817 86.9764 18.8168C87.091 18.7062 87.2425 18.6489 87.4022 18.6612C87.5618 18.6694 87.7052 18.7431 87.8075 18.8659C88.5158 19.7256 89.1626 20.1596 89.7357 20.1637C90.1861 20.1637 90.6528 19.8771 91.1195 19.3162C91.2259 19.1893 91.3815 19.1156 91.5453 19.1115C91.7172 19.1115 91.8687 19.177 91.9792 19.2998C92.7161 20.1227 93.367 20.5321 93.8092 20.4666C94.2473 20.397 94.5829 19.8321 94.7917 19.3735C94.8654 19.2139 95.0046 19.0952 95.1766 19.0542C95.3485 19.0133 95.5287 19.0542 95.6638 19.1607C96.8756 20.1227 97.8949 20.569 98.6155 20.4543C99.029 20.3888 99.377 20.1309 99.6717 19.6724C99.77 19.5168 99.9419 19.4227 100.126 19.4145C100.314 19.4104 100.486 19.4882 100.597 19.6356C100.924 20.0613 101.281 20.2824 101.69 20.3111C102.431 20.3643 103.434 19.7993 104.589 18.6694C104.715 18.5466 104.892 18.4892 105.068 18.5138C105.243 18.5384 105.395 18.6448 105.481 18.8004C105.784 19.3572 106.116 19.6601 106.464 19.7092C106.922 19.7706 107.544 19.4145 108.261 18.6776C108.461 18.4729 108.781 18.4483 109.01 18.6203C109.595 19.0665 110.099 19.2384 110.508 19.1361C110.987 19.0174 111.434 18.5097 111.835 17.6336C111.962 17.3552 112.289 17.2283 112.572 17.3471C114.16 18.0144 114.787 17.8465 115.02 17.6827C115.36 17.4494 115.413 16.8476 115.397 16.385C115.392 16.213 115.462 16.0493 115.593 15.9346C115.724 15.8241 115.896 15.775 116.064 15.8036C117.198 16.0083 118 15.9428 118.275 15.6194C118.496 15.3574 118.459 14.7802 118.176 14.0023C118.111 13.8263 118.139 13.6257 118.25 13.4742C118.361 13.3227 118.545 13.2408 118.733 13.2408C119.212 13.2613 119.601 13.4824 119.863 13.8836C120.592 15.0012 120.874 18.2436 114.918 33.4404C113.599 38.6765 108.351 41.317 99.2992 41.317L99.3033 41.3334Z" fill="#588157"/>
<path d="M87.2548 37.8429C87.1443 37.8429 87.0297 37.8183 86.9232 37.7652C86.4033 37.5113 85.4371 37.0447 79.4641 18.7325C79.3658 18.4336 79.5296 18.1143 79.8284 18.0161C80.1273 17.9178 80.4466 18.0816 80.5449 18.3804C80.639 18.667 80.7291 18.9495 80.8192 19.2238C80.6554 18.2658 80.68 17.7868 80.7578 17.5043C80.8396 17.2014 81.1508 17.0253 81.4537 17.1072C81.7567 17.1891 81.9327 17.5043 81.8508 17.8032C81.6625 18.4951 82.1866 21.9175 87.828 37.0692C87.8812 37.2125 87.873 37.3681 87.8116 37.5031C87.7502 37.6423 87.6315 37.7448 87.4923 37.7979C87.4145 37.8265 87.3326 37.8389 87.2548 37.8389V37.8429Z" fill="#588157"/>
<path d="M88.311 38.4357C88.0858 38.4357 87.8688 38.2964 87.7829 38.0753C85.6745 32.6468 83.9387 26.3953 82.6286 19.4889C82.5713 19.1819 82.7719 18.883 83.0789 18.8257C83.3901 18.7684 83.6848 18.969 83.7422 19.276C85.0399 26.1129 86.7553 32.2988 88.8391 37.6618C88.9537 37.9525 88.8063 38.2841 88.5157 38.3947C88.4461 38.4193 88.3765 38.4315 88.311 38.4315V38.4357Z" fill="#588157"/>
<path d="M89.2484 39.2622C88.9741 39.2622 88.7367 39.0658 88.6876 38.7874L85.654 20.6758C85.6007 20.3688 85.8095 20.074 86.1207 20.0208C86.4277 19.9717 86.7225 20.1764 86.7757 20.4875L89.8093 38.599C89.8625 38.906 89.6537 39.2009 89.3426 39.254C89.3098 39.2582 89.2812 39.2622 89.2484 39.2622Z" fill="#588157"/>
<path d="M91.271 39.488C90.9885 39.488 90.7429 39.2751 90.7101 38.9884C90.1124 33.9285 89.7972 28.0168 89.7685 21.4173C89.7685 21.1021 90.0183 20.8483 90.3335 20.8483C90.6446 20.8483 90.8985 21.1021 90.9025 21.4133C90.9312 27.9718 91.2464 33.8424 91.836 38.8574C91.8728 39.1686 91.6517 39.4511 91.3406 39.488C91.3201 39.488 91.2956 39.488 91.2751 39.488H91.271Z" fill="#588157"/>
<path d="M94.3044 40.0113C93.9892 40.0113 93.7354 39.7576 93.7354 39.4424V21.1056C93.7354 20.7903 93.9892 20.5365 94.3044 20.5365C94.6197 20.5365 94.8735 20.7903 94.8735 21.1056V39.4424C94.8735 39.7576 94.6197 40.0113 94.3044 40.0113Z" fill="#588157"/>
<path d="M99.3033 39.8721C99.2255 39.8721 99.1478 39.8599 99.0823 39.8312C98.5582 39.6061 98.1816 39.4423 98.2144 21.6336C98.2144 21.3226 98.4682 21.0687 98.7834 21.0687C99.0986 21.0687 99.3484 21.3226 99.3484 21.6378C99.3238 34.7015 99.5572 38.0953 99.725 38.8652C99.7414 38.8774 99.7537 38.8897 99.7659 38.9061C99.9829 39.1352 99.9706 39.4914 99.7455 39.7085C99.6349 39.8148 99.463 39.8763 99.2992 39.8763L99.3033 39.8721Z" fill="#588157"/>
<path d="M102.394 39.1839C102.095 39.1839 101.846 38.9506 101.829 38.6475L100.961 21.7396C100.945 21.4286 101.187 21.1583 101.498 21.1419C101.813 21.1297 102.079 21.367 102.095 21.6783L102.963 38.5862C102.98 38.8972 102.738 39.1675 102.427 39.1839C102.419 39.1839 102.406 39.1839 102.398 39.1839H102.394Z" fill="#588157"/>
<path d="M104.777 39.2622C104.462 39.2622 104.212 39.0043 104.212 38.6931L104.286 19.4557C104.286 19.1446 104.539 18.8907 104.855 18.8907C105.17 18.8907 105.42 19.1486 105.42 19.4598L105.346 38.6971C105.346 39.0083 105.092 39.2622 104.777 39.2622Z" fill="#588157"/>
<path d="M107.593 38.6614C107.593 38.6614 107.581 38.6614 107.573 38.6614C107.262 38.6493 107.016 38.3872 107.024 38.0762L107.675 19.8131C107.688 19.5019 107.946 19.2522 108.261 19.2645C108.572 19.2768 108.817 19.5388 108.809 19.8499L108.158 38.1129C108.146 38.4199 107.896 38.6614 107.593 38.6614Z" fill="#588157"/>
<path d="M110.123 37.6811C110.103 37.6811 110.083 37.6811 110.062 37.6811C109.751 37.6484 109.526 37.3701 109.559 37.0547C109.559 37.0547 110.205 31.0162 111.507 18.9432C111.54 18.6321 111.822 18.4069 112.134 18.4397C112.445 18.4724 112.67 18.7549 112.637 19.0661C111.335 31.139 110.688 37.1776 110.688 37.1776C110.656 37.4682 110.41 37.6853 110.123 37.6853V37.6811Z" fill="#588157"/>
<path d="M112.146 37.0799C112.113 37.0799 112.084 37.0799 112.052 37.0717C111.74 37.0186 111.536 36.728 111.585 36.4168L114.545 18.6819C114.598 18.3707 114.889 18.166 115.2 18.2152C115.511 18.2684 115.716 18.5591 115.667 18.8702L112.707 36.6051C112.662 36.8836 112.42 37.0799 112.146 37.0799Z" fill="#588157"/>
<path d="M116.491 17.1643L113.244 33.7743L114.357 33.9918L117.604 17.3818L116.491 17.1643Z" fill="#588157"/>
<path d="M115.683 29.4168C115.622 29.4168 115.556 29.4044 115.495 29.384C115.2 29.2816 115.044 28.9582 115.147 28.6593C117.824 20.9996 117.922 18.1011 117.529 17.0162C117.423 16.7215 117.574 16.398 117.869 16.2916C118.164 16.1852 118.487 16.3366 118.594 16.6314C119.261 18.4859 118.483 22.5389 116.211 29.0319C116.129 29.2652 115.908 29.4126 115.675 29.4126L115.683 29.4168Z" fill="#588157"/>
<path d="M99.5694 40.0244C95.8603 40.0244 91.623 39.4389 86.8741 38.2679L87.1443 37.1667C100.056 40.3518 108.977 39.1277 113.656 33.5232L114.529 34.2519C111.315 38.1001 106.308 40.0284 99.5694 40.0284V40.0244Z" fill="#588157"/>
<path d="M105.137 13.2657C105.027 13.2657 104.92 13.233 104.822 13.1716L101.788 11.141C101.526 10.965 101.457 10.6129 101.633 10.355C101.809 10.093 102.157 10.0234 102.419 10.1994L105.452 12.23C105.714 12.406 105.784 12.7581 105.608 13.016C105.497 13.1798 105.317 13.2657 105.137 13.2657Z" fill="#588157"/>
</g>
<defs>
<clipPath id="clip0_24_146">
<rect width="42" height="42" fill="white" transform="translate(79)"/>
</clipPath>
</defs>
</svg>
