<svg width="204" height="127" viewBox="0 0 204 127" fill="none" xmlns="http://www.w3.org/2000/svg">
<mask id="mask0_36_2" style="mask-type:luminance" maskUnits="userSpaceOnUse" x="1" y="1" width="201" height="126">
<path d="M202 1H1V127H202V1Z" fill="white"/>
</mask>
<g mask="url(#mask0_36_2)">
<path d="M2.5 33L19.5 52.25L102 59L182.5 52.25L201.5 33L199.5 52.25L159 76L127 39L102 99.5L76 39L46 78.5L4 52.25L2.5 33Z" fill="#92B18A"/>
<path d="M2 42H3.22482L4 52L24.5 65L44.5 77.5L60.25 60L101.5 68L146.5 61L159 76L199.5 52.5L200 45L202 42.5L199 61.25L158.5 85L128 48L101.5 108.5L75 48L60.25 67.75L45.5 87.5L3.5 61.25L2 42Z" fill="#588157"/>
<mask id="path-4-outside-1_36_2" maskUnits="userSpaceOnUse" x="0" y="55" width="202" height="25" fill="black">
<rect fill="white" y="55" width="202" height="25"/>
<path d="M1.85188 57.2H10.0119C11.2439 57.2 12.3079 57.312 13.2039 57.536C14.1159 57.744 14.8679 58.048 15.4599 58.448C16.0519 58.832 16.4919 59.296 16.7799 59.84C17.0679 60.384 17.2119 60.984 17.2119 61.64C17.2119 62.488 16.9719 63.224 16.4919 63.848C16.0119 64.472 15.2919 64.936 14.3319 65.24C15.5319 65.48 16.4679 65.952 17.1399 66.656C17.8279 67.344 18.1719 68.232 18.1719 69.32C18.1719 70.76 17.5719 71.904 16.3719 72.752C15.1879 73.584 13.3079 74 10.7319 74H1.85188V57.2ZM5.33188 66.32V72.2H10.7319C11.9319 72.2 12.8519 71.96 13.4919 71.48C14.1319 71 14.4519 70.28 14.4519 69.32C14.4519 68.296 14.1319 67.544 13.4919 67.064C12.8519 66.568 11.9319 66.32 10.7319 66.32H5.33188ZM10.0119 64.52C12.3319 64.52 13.4919 63.56 13.4919 61.64C13.4919 60.792 13.1959 60.144 12.6039 59.696C12.0279 59.232 11.1639 59 10.0119 59H5.33188V64.52H10.0119ZM30.5272 63.2H27.6472C26.5592 63.2 25.7272 63.496 25.1512 64.088C24.5752 64.664 24.2872 65.528 24.2872 66.68V74H20.9272V66.68C20.9272 65.048 21.4392 63.784 22.4632 62.888C23.5032 61.976 24.9912 61.52 26.9272 61.52H30.5272V63.2ZM35.9178 74H32.5578V61.76H35.9178V74ZM36.0378 58.52C36.0378 59 35.8698 59.424 35.5338 59.792C35.2138 60.144 34.7818 60.32 34.2378 60.32C33.6938 60.32 33.2538 60.144 32.9178 59.792C32.5978 59.424 32.4378 59 32.4378 58.52C32.4378 58.04 32.5978 57.624 32.9178 57.272C33.2538 56.904 33.6938 56.72 34.2378 56.72C34.7658 56.72 35.1978 56.904 35.5338 57.272C35.8698 57.624 36.0378 58.04 36.0378 58.52ZM46.1188 63.2C44.9668 63.2 44.0548 63.56 43.3828 64.28C42.7268 64.984 42.3988 66.064 42.3988 67.52C42.3988 68.976 42.7268 70.064 43.3828 70.784C44.0548 71.488 44.9668 71.84 46.1188 71.84H49.1188V63.2H46.1188ZM52.4788 73.76C52.4788 74.512 52.3348 75.192 52.0468 75.8C51.7588 76.424 51.3268 76.96 50.7508 77.408C50.1908 77.856 49.4788 78.2 48.6148 78.44C47.7668 78.68 46.7748 78.8 45.6388 78.8C45.2548 78.8 44.8388 78.768 44.3908 78.704C43.9588 78.656 43.5188 78.568 43.0708 78.44C42.6228 78.328 42.1828 78.176 41.7508 77.984C41.3348 77.808 40.9508 77.6 40.5988 77.36L41.4388 75.92C41.9828 76.288 42.5988 76.576 43.2868 76.784C43.9748 77.008 44.6788 77.12 45.3988 77.12C46.5988 77.12 47.5188 76.848 48.1588 76.304C48.7988 75.76 49.1188 74.912 49.1188 73.76V73.52H46.1188C45.0148 73.52 44.0068 73.376 43.0948 73.088C42.1988 72.8 41.4308 72.392 40.7908 71.864C40.1508 71.336 39.6548 70.704 39.3027 69.968C38.9668 69.232 38.7988 68.416 38.7988 67.52C38.7988 66.624 38.9668 65.808 39.3027 65.072C39.6548 64.336 40.1508 63.704 40.7908 63.176C41.4308 62.648 42.1988 62.24 43.0948 61.952C44.0068 61.664 45.0148 61.52 46.1188 61.52H52.4788V73.76ZM58.5884 70.04C58.5884 71.56 59.5084 72.32 61.3484 72.32H64.7084V67.76H61.3484C59.5084 67.76 58.5884 68.52 58.5884 70.04ZM64.7084 66.08C64.7084 64.928 64.4044 64.08 63.7964 63.536C63.2044 62.992 62.4284 62.72 61.4684 62.72C60.7484 62.72 60.0444 62.832 59.3564 63.056C58.6684 63.264 58.0524 63.552 57.5084 63.92L56.6684 62.48C57.0204 62.24 57.4044 62.032 57.8204 61.856C58.2524 61.68 58.6924 61.536 59.1404 61.424C59.5884 61.296 60.0284 61.2 60.4604 61.136C60.9084 61.072 61.3244 61.04 61.7084 61.04C62.7324 61.04 63.6364 61.16 64.4204 61.4C65.2044 61.64 65.8684 61.984 66.4124 62.432C66.9564 62.88 67.3644 63.416 67.6364 64.04C67.9244 64.648 68.0684 65.328 68.0684 66.08V74H61.3484C59.1724 74 57.5644 73.672 56.5244 73.016C55.5004 72.36 54.9884 71.368 54.9884 70.04C54.9884 68.712 55.5004 67.72 56.5244 67.064C57.5644 66.408 59.1724 66.08 61.3484 66.08H64.7084ZM81.0172 72.32V63.2H78.0172C77.4732 63.2 76.9692 63.288 76.5052 63.464C76.0572 63.624 75.6652 63.888 75.3292 64.256C75.0092 64.624 74.7532 65.096 74.5612 65.672C74.3852 66.248 74.2972 66.944 74.2972 67.76C74.2972 68.576 74.3852 69.272 74.5612 69.848C74.7532 70.424 75.0092 70.896 75.3292 71.264C75.6652 71.632 76.0572 71.904 76.5052 72.08C76.9692 72.24 77.4732 72.32 78.0172 72.32H81.0172ZM78.0172 74C76.9132 74 75.9052 73.856 74.9932 73.568C74.0972 73.28 73.3292 72.864 72.6892 72.32C72.0492 71.776 71.5532 71.12 71.2012 70.352C70.8652 69.584 70.6972 68.72 70.6972 67.76C70.6972 66.8 70.8652 65.936 71.2012 65.168C71.5532 64.4 72.0492 63.744 72.6892 63.2C73.3292 62.656 74.0972 62.24 74.9932 61.952C75.9052 61.664 76.9132 61.52 78.0172 61.52H81.0172V57.2H84.3772V74H78.0172ZM94.9269 72.8C95.7109 72.8 96.4389 72.664 97.1109 72.392C97.7989 72.12 98.4709 71.736 99.1269 71.24L100.087 72.68C99.7829 72.952 99.4229 73.2 99.0069 73.424C98.6069 73.648 98.1669 73.84 97.6869 74C97.2229 74.144 96.7349 74.256 96.2229 74.336C95.7109 74.432 95.1989 74.48 94.6869 74.48C93.5509 74.48 92.5109 74.328 91.5669 74.024C90.6389 73.736 89.8469 73.312 89.1909 72.752C88.5349 72.176 88.0229 71.472 87.6549 70.64C87.3029 69.808 87.1269 68.848 87.1269 67.76C87.1269 66.688 87.2949 65.736 87.6309 64.904C87.9829 64.056 88.4629 63.352 89.0709 62.792C89.6949 62.216 90.4309 61.784 91.2789 61.496C92.1269 61.192 93.0629 61.04 94.0869 61.04C95.0469 61.04 95.9509 61.184 96.7989 61.472C97.6469 61.76 98.3829 62.184 99.0069 62.744C99.6309 63.288 100.127 63.952 100.495 64.736C100.863 65.52 101.047 66.408 101.047 67.4V69.08H90.7989C90.9909 70.408 91.4469 71.36 92.1669 71.936C92.9029 72.512 93.8229 72.8 94.9269 72.8ZM94.0869 62.6C93.6229 62.6 93.1909 62.688 92.7909 62.864C92.3909 63.04 92.0389 63.32 91.7349 63.704C91.4469 64.088 91.2069 64.584 91.0149 65.192C90.8389 65.8 90.7429 66.536 90.7269 67.4H97.4469C97.4469 66.568 97.3509 65.848 97.1589 65.24C96.9669 64.632 96.7109 64.136 96.3909 63.752C96.0869 63.352 95.7269 63.064 95.3109 62.888C94.9109 62.696 94.5029 62.6 94.0869 62.6ZM107.285 74H103.925V61.76H107.285V74ZM107.405 58.52C107.405 59 107.237 59.424 106.901 59.792C106.581 60.144 106.149 60.32 105.605 60.32C105.061 60.32 104.621 60.144 104.285 59.792C103.965 59.424 103.805 59 103.805 58.52C103.805 58.04 103.965 57.624 104.285 57.272C104.621 56.904 105.061 56.72 105.605 56.72C106.133 56.72 106.565 56.904 106.901 57.272C107.237 57.624 107.405 58.04 107.405 58.52ZM120.246 63.2H117.366C116.278 63.2 115.446 63.496 114.87 64.088C114.294 64.664 114.006 65.528 114.006 66.68V74H110.646V66.68C110.646 65.048 111.158 63.784 112.182 62.888C113.222 61.976 114.71 61.52 116.646 61.52H120.246V63.2ZM128.15 72.92C128.662 72.92 129.142 72.824 129.59 72.632C130.038 72.44 130.43 72.144 130.766 71.744C131.102 71.328 131.366 70.792 131.558 70.136C131.766 69.48 131.87 68.688 131.87 67.76C131.87 66.832 131.766 66.04 131.558 65.384C131.366 64.728 131.102 64.2 130.766 63.8C130.43 63.384 130.038 63.08 129.59 62.888C129.142 62.696 128.662 62.6 128.15 62.6C127.638 62.6 127.158 62.696 126.71 62.888C126.262 63.08 125.87 63.384 125.534 63.8C125.198 64.2 124.926 64.728 124.718 65.384C124.526 66.04 124.43 66.832 124.43 67.76C124.43 68.688 124.526 69.48 124.718 70.136C124.926 70.792 125.198 71.328 125.534 71.744C125.87 72.144 126.262 72.44 126.71 72.632C127.158 72.824 127.638 72.92 128.15 72.92ZM128.15 61.04C129.222 61.04 130.206 61.192 131.102 61.496C132.014 61.784 132.79 62.216 133.43 62.792C134.07 63.352 134.566 64.056 134.918 64.904C135.286 65.736 135.47 66.688 135.47 67.76C135.47 68.848 135.286 69.808 134.918 70.64C134.566 71.472 134.07 72.176 133.43 72.752C132.79 73.312 132.014 73.736 131.102 74.024C130.206 74.328 129.222 74.48 128.15 74.48C127.062 74.48 126.07 74.328 125.174 74.024C124.278 73.736 123.51 73.312 122.87 72.752C122.23 72.176 121.726 71.472 121.358 70.64C121.006 69.808 120.83 68.848 120.83 67.76C120.83 66.688 121.006 65.736 121.358 64.904C121.726 64.056 122.23 63.352 122.87 62.792C123.51 62.216 124.278 61.784 125.174 61.496C126.07 61.192 127.062 61.04 128.15 61.04ZM141.115 64.16C141.115 64.528 141.275 64.864 141.595 65.168C141.931 65.472 142.491 65.736 143.275 65.96L146.995 67.04C148.147 67.376 149.035 67.832 149.659 68.408C150.283 68.984 150.595 69.728 150.595 70.64C150.595 71.216 150.475 71.744 150.235 72.224C149.995 72.688 149.603 73.088 149.059 73.424C148.515 73.76 147.811 74.016 146.947 74.192C146.083 74.384 145.019 74.48 143.755 74.48C143.099 74.48 142.451 74.432 141.811 74.336C141.187 74.24 140.587 74.112 140.011 73.952C139.451 73.776 138.939 73.584 138.475 73.376C138.011 73.152 137.611 72.92 137.275 72.68L138.235 71.24C138.907 71.656 139.691 72.024 140.587 72.344C141.499 72.648 142.555 72.8 143.755 72.8C144.955 72.8 145.795 72.64 146.275 72.32C146.755 72 146.995 71.6 146.995 71.12C146.995 70.752 146.827 70.424 146.491 70.136C146.155 69.832 145.563 69.56 144.715 69.32L140.995 68.24C139.971 67.936 139.131 67.504 138.475 66.944C137.835 66.368 137.515 65.6 137.515 64.64C137.515 64.128 137.627 63.656 137.851 63.224C138.091 62.776 138.459 62.392 138.955 62.072C139.451 61.752 140.083 61.504 140.851 61.328C141.619 61.136 142.547 61.04 143.635 61.04C144.963 61.04 146.163 61.224 147.235 61.592C148.323 61.944 149.203 62.36 149.875 62.84L148.915 64.28C148.259 63.864 147.515 63.504 146.683 63.2C145.851 62.88 144.835 62.72 143.635 62.72C142.787 62.72 142.155 62.856 141.739 63.128C141.323 63.4 141.115 63.744 141.115 64.16ZM164.871 59V64.52H173.631V66.32H164.871V72.2H176.031V74H161.391V57.2H176.031V59H164.871ZM187.91 63.2H185.03C183.942 63.2 183.11 63.496 182.534 64.088C181.958 64.664 181.67 65.528 181.67 66.68V74H178.31V66.68C178.31 65.048 178.822 63.784 179.846 62.888C180.886 61.976 182.374 61.52 184.31 61.52H187.91V63.2ZM193.301 74H189.941V61.76H193.301V74ZM193.421 58.52C193.421 59 193.253 59.424 192.917 59.792C192.597 60.144 192.165 60.32 191.621 60.32C191.077 60.32 190.637 60.144 190.301 59.792C189.981 59.424 189.821 59 189.821 58.52C189.821 58.04 189.981 57.624 190.301 57.272C190.637 56.904 191.077 56.72 191.621 56.72C192.149 56.72 192.581 56.904 192.917 57.272C193.253 57.624 193.421 58.04 193.421 58.52ZM200.142 74H196.782V57.2H200.142V74Z"/>
</mask>
<path d="M1.85188 57.2H10.0119C11.2439 57.2 12.3079 57.312 13.2039 57.536C14.1159 57.744 14.8679 58.048 15.4599 58.448C16.0519 58.832 16.4919 59.296 16.7799 59.84C17.0679 60.384 17.2119 60.984 17.2119 61.64C17.2119 62.488 16.9719 63.224 16.4919 63.848C16.0119 64.472 15.2919 64.936 14.3319 65.24C15.5319 65.48 16.4679 65.952 17.1399 66.656C17.8279 67.344 18.1719 68.232 18.1719 69.32C18.1719 70.76 17.5719 71.904 16.3719 72.752C15.1879 73.584 13.3079 74 10.7319 74H1.85188V57.2ZM5.33188 66.32V72.2H10.7319C11.9319 72.2 12.8519 71.96 13.4919 71.48C14.1319 71 14.4519 70.28 14.4519 69.32C14.4519 68.296 14.1319 67.544 13.4919 67.064C12.8519 66.568 11.9319 66.32 10.7319 66.32H5.33188ZM10.0119 64.52C12.3319 64.52 13.4919 63.56 13.4919 61.64C13.4919 60.792 13.1959 60.144 12.6039 59.696C12.0279 59.232 11.1639 59 10.0119 59H5.33188V64.52H10.0119ZM30.5272 63.2H27.6472C26.5592 63.2 25.7272 63.496 25.1512 64.088C24.5752 64.664 24.2872 65.528 24.2872 66.68V74H20.9272V66.68C20.9272 65.048 21.4392 63.784 22.4632 62.888C23.5032 61.976 24.9912 61.52 26.9272 61.52H30.5272V63.2ZM35.9178 74H32.5578V61.76H35.9178V74ZM36.0378 58.52C36.0378 59 35.8698 59.424 35.5338 59.792C35.2138 60.144 34.7818 60.32 34.2378 60.32C33.6938 60.32 33.2538 60.144 32.9178 59.792C32.5978 59.424 32.4378 59 32.4378 58.52C32.4378 58.04 32.5978 57.624 32.9178 57.272C33.2538 56.904 33.6938 56.72 34.2378 56.72C34.7658 56.72 35.1978 56.904 35.5338 57.272C35.8698 57.624 36.0378 58.04 36.0378 58.52ZM46.1188 63.2C44.9668 63.2 44.0548 63.56 43.3828 64.28C42.7268 64.984 42.3988 66.064 42.3988 67.52C42.3988 68.976 42.7268 70.064 43.3828 70.784C44.0548 71.488 44.9668 71.84 46.1188 71.84H49.1188V63.2H46.1188ZM52.4788 73.76C52.4788 74.512 52.3348 75.192 52.0468 75.8C51.7588 76.424 51.3268 76.96 50.7508 77.408C50.1908 77.856 49.4788 78.2 48.6148 78.44C47.7668 78.68 46.7748 78.8 45.6388 78.8C45.2548 78.8 44.8388 78.768 44.3908 78.704C43.9588 78.656 43.5188 78.568 43.0708 78.44C42.6228 78.328 42.1828 78.176 41.7508 77.984C41.3348 77.808 40.9508 77.6 40.5988 77.36L41.4388 75.92C41.9828 76.288 42.5988 76.576 43.2868 76.784C43.9748 77.008 44.6788 77.12 45.3988 77.12C46.5988 77.12 47.5188 76.848 48.1588 76.304C48.7988 75.76 49.1188 74.912 49.1188 73.76V73.52H46.1188C45.0148 73.52 44.0068 73.376 43.0948 73.088C42.1988 72.8 41.4308 72.392 40.7908 71.864C40.1508 71.336 39.6548 70.704 39.3027 69.968C38.9668 69.232 38.7988 68.416 38.7988 67.52C38.7988 66.624 38.9668 65.808 39.3027 65.072C39.6548 64.336 40.1508 63.704 40.7908 63.176C41.4308 62.648 42.1988 62.24 43.0948 61.952C44.0068 61.664 45.0148 61.52 46.1188 61.52H52.4788V73.76ZM58.5884 70.04C58.5884 71.56 59.5084 72.32 61.3484 72.32H64.7084V67.76H61.3484C59.5084 67.76 58.5884 68.52 58.5884 70.04ZM64.7084 66.08C64.7084 64.928 64.4044 64.08 63.7964 63.536C63.2044 62.992 62.4284 62.72 61.4684 62.72C60.7484 62.72 60.0444 62.832 59.3564 63.056C58.6684 63.264 58.0524 63.552 57.5084 63.92L56.6684 62.48C57.0204 62.24 57.4044 62.032 57.8204 61.856C58.2524 61.68 58.6924 61.536 59.1404 61.424C59.5884 61.296 60.0284 61.2 60.4604 61.136C60.9084 61.072 61.3244 61.04 61.7084 61.04C62.7324 61.04 63.6364 61.16 64.4204 61.4C65.2044 61.64 65.8684 61.984 66.4124 62.432C66.9564 62.88 67.3644 63.416 67.6364 64.04C67.9244 64.648 68.0684 65.328 68.0684 66.08V74H61.3484C59.1724 74 57.5644 73.672 56.5244 73.016C55.5004 72.36 54.9884 71.368 54.9884 70.04C54.9884 68.712 55.5004 67.72 56.5244 67.064C57.5644 66.408 59.1724 66.08 61.3484 66.08H64.7084ZM81.0172 72.32V63.2H78.0172C77.4732 63.2 76.9692 63.288 76.5052 63.464C76.0572 63.624 75.6652 63.888 75.3292 64.256C75.0092 64.624 74.7532 65.096 74.5612 65.672C74.3852 66.248 74.2972 66.944 74.2972 67.76C74.2972 68.576 74.3852 69.272 74.5612 69.848C74.7532 70.424 75.0092 70.896 75.3292 71.264C75.6652 71.632 76.0572 71.904 76.5052 72.08C76.9692 72.24 77.4732 72.32 78.0172 72.32H81.0172ZM78.0172 74C76.9132 74 75.9052 73.856 74.9932 73.568C74.0972 73.28 73.3292 72.864 72.6892 72.32C72.0492 71.776 71.5532 71.12 71.2012 70.352C70.8652 69.584 70.6972 68.72 70.6972 67.76C70.6972 66.8 70.8652 65.936 71.2012 65.168C71.5532 64.4 72.0492 63.744 72.6892 63.2C73.3292 62.656 74.0972 62.24 74.9932 61.952C75.9052 61.664 76.9132 61.52 78.0172 61.52H81.0172V57.2H84.3772V74H78.0172ZM94.9269 72.8C95.7109 72.8 96.4389 72.664 97.1109 72.392C97.7989 72.12 98.4709 71.736 99.1269 71.24L100.087 72.68C99.7829 72.952 99.4229 73.2 99.0069 73.424C98.6069 73.648 98.1669 73.84 97.6869 74C97.2229 74.144 96.7349 74.256 96.2229 74.336C95.7109 74.432 95.1989 74.48 94.6869 74.48C93.5509 74.48 92.5109 74.328 91.5669 74.024C90.6389 73.736 89.8469 73.312 89.1909 72.752C88.5349 72.176 88.0229 71.472 87.6549 70.64C87.3029 69.808 87.1269 68.848 87.1269 67.76C87.1269 66.688 87.2949 65.736 87.6309 64.904C87.9829 64.056 88.4629 63.352 89.0709 62.792C89.6949 62.216 90.4309 61.784 91.2789 61.496C92.1269 61.192 93.0629 61.04 94.0869 61.04C95.0469 61.04 95.9509 61.184 96.7989 61.472C97.6469 61.76 98.3829 62.184 99.0069 62.744C99.6309 63.288 100.127 63.952 100.495 64.736C100.863 65.52 101.047 66.408 101.047 67.4V69.08H90.7989C90.9909 70.408 91.4469 71.36 92.1669 71.936C92.9029 72.512 93.8229 72.8 94.9269 72.8ZM94.0869 62.6C93.6229 62.6 93.1909 62.688 92.7909 62.864C92.3909 63.04 92.0389 63.32 91.7349 63.704C91.4469 64.088 91.2069 64.584 91.0149 65.192C90.8389 65.8 90.7429 66.536 90.7269 67.4H97.4469C97.4469 66.568 97.3509 65.848 97.1589 65.24C96.9669 64.632 96.7109 64.136 96.3909 63.752C96.0869 63.352 95.7269 63.064 95.3109 62.888C94.9109 62.696 94.5029 62.6 94.0869 62.6ZM107.285 74H103.925V61.76H107.285V74ZM107.405 58.52C107.405 59 107.237 59.424 106.901 59.792C106.581 60.144 106.149 60.32 105.605 60.32C105.061 60.32 104.621 60.144 104.285 59.792C103.965 59.424 103.805 59 103.805 58.52C103.805 58.04 103.965 57.624 104.285 57.272C104.621 56.904 105.061 56.72 105.605 56.72C106.133 56.72 106.565 56.904 106.901 57.272C107.237 57.624 107.405 58.04 107.405 58.52ZM120.246 63.2H117.366C116.278 63.2 115.446 63.496 114.87 64.088C114.294 64.664 114.006 65.528 114.006 66.68V74H110.646V66.68C110.646 65.048 111.158 63.784 112.182 62.888C113.222 61.976 114.71 61.52 116.646 61.52H120.246V63.2ZM128.15 72.92C128.662 72.92 129.142 72.824 129.59 72.632C130.038 72.44 130.43 72.144 130.766 71.744C131.102 71.328 131.366 70.792 131.558 70.136C131.766 69.48 131.87 68.688 131.87 67.76C131.87 66.832 131.766 66.04 131.558 65.384C131.366 64.728 131.102 64.2 130.766 63.8C130.43 63.384 130.038 63.08 129.59 62.888C129.142 62.696 128.662 62.6 128.15 62.6C127.638 62.6 127.158 62.696 126.71 62.888C126.262 63.08 125.87 63.384 125.534 63.8C125.198 64.2 124.926 64.728 124.718 65.384C124.526 66.04 124.43 66.832 124.43 67.76C124.43 68.688 124.526 69.48 124.718 70.136C124.926 70.792 125.198 71.328 125.534 71.744C125.87 72.144 126.262 72.44 126.71 72.632C127.158 72.824 127.638 72.92 128.15 72.92ZM128.15 61.04C129.222 61.04 130.206 61.192 131.102 61.496C132.014 61.784 132.79 62.216 133.43 62.792C134.07 63.352 134.566 64.056 134.918 64.904C135.286 65.736 135.47 66.688 135.47 67.76C135.47 68.848 135.286 69.808 134.918 70.64C134.566 71.472 134.07 72.176 133.43 72.752C132.79 73.312 132.014 73.736 131.102 74.024C130.206 74.328 129.222 74.48 128.15 74.48C127.062 74.48 126.07 74.328 125.174 74.024C124.278 73.736 123.51 73.312 122.87 72.752C122.23 72.176 121.726 71.472 121.358 70.64C121.006 69.808 120.83 68.848 120.83 67.76C120.83 66.688 121.006 65.736 121.358 64.904C121.726 64.056 122.23 63.352 122.87 62.792C123.51 62.216 124.278 61.784 125.174 61.496C126.07 61.192 127.062 61.04 128.15 61.04ZM141.115 64.16C141.115 64.528 141.275 64.864 141.595 65.168C141.931 65.472 142.491 65.736 143.275 65.96L146.995 67.04C148.147 67.376 149.035 67.832 149.659 68.408C150.283 68.984 150.595 69.728 150.595 70.64C150.595 71.216 150.475 71.744 150.235 72.224C149.995 72.688 149.603 73.088 149.059 73.424C148.515 73.76 147.811 74.016 146.947 74.192C146.083 74.384 145.019 74.48 143.755 74.48C143.099 74.48 142.451 74.432 141.811 74.336C141.187 74.24 140.587 74.112 140.011 73.952C139.451 73.776 138.939 73.584 138.475 73.376C138.011 73.152 137.611 72.92 137.275 72.68L138.235 71.24C138.907 71.656 139.691 72.024 140.587 72.344C141.499 72.648 142.555 72.8 143.755 72.8C144.955 72.8 145.795 72.64 146.275 72.32C146.755 72 146.995 71.6 146.995 71.12C146.995 70.752 146.827 70.424 146.491 70.136C146.155 69.832 145.563 69.56 144.715 69.32L140.995 68.24C139.971 67.936 139.131 67.504 138.475 66.944C137.835 66.368 137.515 65.6 137.515 64.64C137.515 64.128 137.627 63.656 137.851 63.224C138.091 62.776 138.459 62.392 138.955 62.072C139.451 61.752 140.083 61.504 140.851 61.328C141.619 61.136 142.547 61.04 143.635 61.04C144.963 61.04 146.163 61.224 147.235 61.592C148.323 61.944 149.203 62.36 149.875 62.84L148.915 64.28C148.259 63.864 147.515 63.504 146.683 63.2C145.851 62.88 144.835 62.72 143.635 62.72C142.787 62.72 142.155 62.856 141.739 63.128C141.323 63.4 141.115 63.744 141.115 64.16ZM164.871 59V64.52H173.631V66.32H164.871V72.2H176.031V74H161.391V57.2H176.031V59H164.871ZM187.91 63.2H185.03C183.942 63.2 183.11 63.496 182.534 64.088C181.958 64.664 181.67 65.528 181.67 66.68V74H178.31V66.68C178.31 65.048 178.822 63.784 179.846 62.888C180.886 61.976 182.374 61.52 184.31 61.52H187.91V63.2ZM193.301 74H189.941V61.76H193.301V74ZM193.421 58.52C193.421 59 193.253 59.424 192.917 59.792C192.597 60.144 192.165 60.32 191.621 60.32C191.077 60.32 190.637 60.144 190.301 59.792C189.981 59.424 189.821 59 189.821 58.52C189.821 58.04 189.981 57.624 190.301 57.272C190.637 56.904 191.077 56.72 191.621 56.72C192.149 56.72 192.581 56.904 192.917 57.272C193.253 57.624 193.421 58.04 193.421 58.52ZM200.142 74H196.782V57.2H200.142V74Z" fill="#284134"/>
<path d="M1.85188 57.2V56.2H0.851875V57.2H1.85188ZM13.2039 57.536L12.9613 58.5061L12.9714 58.5087L12.9815 58.511L13.2039 57.536ZM15.4599 58.448L14.9 59.2766L14.9078 59.2818L14.9157 59.287L15.4599 58.448ZM16.4919 63.848L15.6993 63.2383L15.6993 63.2383L16.4919 63.848ZM14.3319 65.24L14.03 64.2867L14.1358 66.2206L14.3319 65.24ZM17.1399 66.656L16.4165 67.3465L16.4245 67.3549L16.4328 67.3631L17.1399 66.656ZM16.3719 72.752L16.9468 73.5702L16.949 73.5687L16.3719 72.752ZM1.85188 74H0.851875V75H1.85188V74ZM5.33188 66.32V65.32H4.33188V66.32H5.33188ZM5.33188 72.2H4.33188V73.2H5.33188V72.2ZM13.4919 71.48L12.8919 70.68L12.8919 70.68L13.4919 71.48ZM13.4919 67.064L12.8793 67.8544L12.8856 67.8593L12.8919 67.864L13.4919 67.064ZM12.6039 59.696L11.9765 60.4748L11.9883 60.4843L12.0004 60.4934L12.6039 59.696ZM5.33188 59V58H4.33188V59H5.33188ZM5.33188 64.52H4.33188V65.52H5.33188V64.52ZM1.85188 58.2H10.0119V56.2H1.85188V58.2ZM10.0119 58.2C11.1875 58.2 12.166 58.3073 12.9613 58.5061L13.4464 56.5659C12.4498 56.3167 11.3003 56.2 10.0119 56.2V58.2ZM12.9815 58.511C13.8083 58.6995 14.4368 58.9636 14.9 59.2766L16.0197 57.6194C15.299 57.1324 14.4235 56.7885 13.4262 56.561L12.9815 58.511ZM14.9157 59.287C15.3859 59.592 15.6989 59.9353 15.8961 60.3079L17.6637 59.3721C17.2849 58.6567 16.7179 58.072 16.0041 57.609L14.9157 59.287ZM15.8961 60.3079C16.1028 60.6983 16.2119 61.1361 16.2119 61.64H18.2119C18.2119 60.8319 18.033 60.0697 17.6637 59.3721L15.8961 60.3079ZM16.2119 61.64C16.2119 62.2856 16.0341 62.8029 15.6993 63.2383L17.2845 64.4577C17.9096 63.6451 18.2119 62.6904 18.2119 61.64H16.2119ZM15.6993 63.2383C15.3746 63.6603 14.8495 64.0272 14.03 64.2867L14.6338 66.1933C15.7343 65.8448 16.6492 65.2837 17.2845 64.4577L15.6993 63.2383ZM14.1358 66.2206C15.1865 66.4307 15.919 66.8253 16.4165 67.3465L17.8632 65.9655C17.0167 65.0787 15.8773 64.5293 14.528 64.2594L14.1358 66.2206ZM16.4328 67.3631C16.9103 67.8406 17.1719 68.4629 17.1719 69.32H19.1719C19.1719 68.0011 18.7454 66.8474 17.847 65.9489L16.4328 67.3631ZM17.1719 69.32C17.1719 70.4274 16.736 71.2702 15.7948 71.9353L16.949 73.5687C18.4077 72.5378 19.1719 71.0926 19.1719 69.32H17.1719ZM15.7969 71.9338C14.8683 72.5864 13.243 73 10.7319 73V75C13.3728 75 15.5075 74.5816 16.9468 73.5702L15.7969 71.9338ZM10.7319 73H1.85188V75H10.7319V73ZM2.85188 74V57.2H0.851875V74H2.85188ZM4.33188 66.32V72.2H6.33188V66.32H4.33188ZM5.33188 73.2H10.7319V71.2H5.33188V73.2ZM10.7319 73.2C12.0454 73.2 13.2115 72.9403 14.0919 72.28L12.8919 70.68C12.4923 70.9797 11.8183 71.2 10.7319 71.2V73.2ZM14.0919 72.28C15.0354 71.5724 15.4519 70.524 15.4519 69.32H13.4519C13.4519 70.036 13.2284 70.4276 12.8919 70.68L14.0919 72.28ZM15.4519 69.32C15.4519 68.0782 15.0523 66.9843 14.0919 66.264L12.8919 67.864C13.2115 68.1037 13.4519 68.5138 13.4519 69.32H15.4519ZM14.1044 66.2736C13.2225 65.59 12.0512 65.32 10.7319 65.32V67.32C11.8126 67.32 12.4813 67.546 12.8793 67.8544L14.1044 66.2736ZM10.7319 65.32H5.33188V67.32H10.7319V65.32ZM10.0119 65.52C11.2848 65.52 12.4255 65.2605 13.2594 64.5704C14.1296 63.8503 14.4919 62.8092 14.4919 61.64H12.4919C12.4919 62.3908 12.2742 62.7897 11.9843 63.0296C11.6582 63.2995 11.0589 63.52 10.0119 63.52V65.52ZM14.4919 61.64C14.4919 60.5295 14.087 59.5643 13.2073 58.8986L12.0004 60.4934C12.3048 60.7237 12.4919 61.0545 12.4919 61.64H14.4919ZM13.2312 58.9172C12.4023 58.2495 11.2719 58 10.0119 58V60C11.0558 60 11.6535 60.2145 11.9765 60.4748L13.2312 58.9172ZM10.0119 58H5.33188V60H10.0119V58ZM4.33188 59V64.52H6.33188V59H4.33188ZM5.33188 65.52H10.0119V63.52H5.33188V65.52ZM30.5272 63.2V64.2H31.5272V63.2H30.5272ZM25.1512 64.088L25.8584 64.7952L25.8679 64.7854L25.1512 64.088ZM24.2872 74V75H25.2872V74H24.2872ZM20.9272 74H19.9272V75H20.9272V74ZM22.4632 62.888L23.1217 63.6406L23.1225 63.6399L22.4632 62.888ZM30.5272 61.52H31.5272V60.52H30.5272V61.52ZM30.5272 62.2H27.6472V64.2H30.5272V62.2ZM27.6472 62.2C26.3785 62.2 25.253 62.5494 24.4345 63.3906L25.8679 64.7854C26.2014 64.4426 26.7399 64.2 27.6472 64.2V62.2ZM24.4441 63.3809C23.6144 64.2106 23.2872 65.3739 23.2872 66.68H25.2872C25.2872 65.6821 25.536 65.1174 25.8583 64.7951L24.4441 63.3809ZM23.2872 66.68V74H25.2872V66.68H23.2872ZM24.2872 73H20.9272V75H24.2872V73ZM21.9272 74V66.68H19.9272V74H21.9272ZM21.9272 66.68C21.9272 65.2734 22.358 64.3088 23.1217 63.6406L21.8047 62.1354C20.5204 63.2592 19.9272 64.8226 19.9272 66.68H21.9272ZM23.1225 63.6399C23.9187 62.9417 25.1373 62.52 26.9272 62.52V60.52C24.8451 60.52 23.0877 61.0103 21.8039 62.1361L23.1225 63.6399ZM26.9272 62.52H30.5272V60.52H26.9272V62.52ZM29.5272 61.52V63.2H31.5272V61.52H29.5272ZM35.9178 74V75H36.9178V74H35.9178ZM32.5578 74H31.5578V75H32.5578V74ZM32.5578 61.76V60.76H31.5578V61.76H32.5578ZM35.9178 61.76H36.9178V60.76H35.9178V61.76ZM35.5338 59.792L34.7953 59.1177L34.7939 59.1193L35.5338 59.792ZM32.9178 59.792L32.1632 60.4482L32.1784 60.4657L32.1945 60.4825L32.9178 59.792ZM32.9178 57.272L32.1793 56.5977L32.1779 56.5993L32.9178 57.272ZM35.5338 57.272L34.7953 57.9463L34.8028 57.9545L34.8105 57.9625L35.5338 57.272ZM35.9178 73H32.5578V75H35.9178V73ZM33.5578 74V61.76H31.5578V74H33.5578ZM32.5578 62.76H35.9178V60.76H32.5578V62.76ZM34.9178 61.76V74H36.9178V61.76H34.9178ZM35.0378 58.52C35.0378 58.7402 34.9702 58.9263 34.7953 59.1177L36.2723 60.4663C36.7695 59.9217 37.0378 59.2598 37.0378 58.52H35.0378ZM34.7939 59.1193C34.6915 59.232 34.5447 59.32 34.2378 59.32V61.32C35.0189 61.32 35.7362 61.056 36.2738 60.4647L34.7939 59.1193ZM34.2378 59.32C33.9316 59.32 33.7653 59.2316 33.6412 59.1015L32.1945 60.4825C32.7423 61.0564 33.456 61.32 34.2378 61.32V59.32ZM33.6724 59.1358C33.5079 58.9466 33.4378 58.7546 33.4378 58.52H31.4378C31.4378 59.2454 31.6877 59.9014 32.1632 60.4482L33.6724 59.1358ZM33.4378 58.52C33.4378 58.2863 33.5068 58.1108 33.6578 57.9447L32.1779 56.5993C31.6889 57.1372 31.4378 57.7937 31.4378 58.52H33.4378ZM33.6563 57.9463C33.7843 57.8061 33.946 57.72 34.2378 57.72V55.72C33.4416 55.72 32.7234 56.0019 32.1793 56.5977L33.6563 57.9463ZM34.2378 57.72C34.5037 57.72 34.6611 57.7993 34.7953 57.9463L36.2723 56.5977C35.7345 56.0087 35.0279 55.72 34.2378 55.72V57.72ZM34.8105 57.9625C34.9716 58.1313 35.0378 58.3011 35.0378 58.52H37.0378C37.0378 57.7789 36.768 57.1167 36.2572 56.5815L34.8105 57.9625ZM43.3828 64.28L42.6517 63.5977L42.6511 63.5983L43.3828 64.28ZM43.3828 70.784L42.6436 71.4575L42.6514 71.4661L42.6594 71.4745L43.3828 70.784ZM49.1188 71.84V72.84H50.1188V71.84H49.1188ZM49.1188 63.2H50.1188V62.2H49.1188V63.2ZM52.0468 75.8L51.143 75.3719L51.1388 75.3809L52.0468 75.8ZM50.7508 77.408L50.1368 76.6186L50.1261 76.6271L50.7508 77.408ZM48.6148 78.44L48.3471 77.4765L48.3424 77.4778L48.6148 78.44ZM44.3908 78.704L44.5322 77.7141L44.5167 77.7118L44.5012 77.7101L44.3908 78.704ZM43.0708 78.44L43.3455 77.4785L43.3295 77.4739L43.3133 77.4699L43.0708 78.44ZM41.7508 77.984L42.1569 77.0702L42.1487 77.0665L42.1404 77.063L41.7508 77.984ZM40.5988 77.36L39.735 76.8561L39.2654 77.6612L40.0354 78.1862L40.5988 77.36ZM41.4388 75.92L41.9991 75.0917L41.1136 74.4927L40.575 75.4161L41.4388 75.92ZM43.2868 76.784L43.5963 75.8331L43.5863 75.8299L43.5761 75.8268L43.2868 76.784ZM48.1588 76.304L48.8064 77.0659L48.8064 77.0659L48.1588 76.304ZM49.1188 73.52H50.1188V72.52H49.1188V73.52ZM43.0948 73.088L42.7887 74.04L42.7936 74.0416L43.0948 73.088ZM40.7908 71.864L40.1544 72.6354L40.1544 72.6354L40.7908 71.864ZM39.3027 69.968L38.3931 70.3833L38.3968 70.3914L38.4006 70.3995L39.3027 69.968ZM39.3027 65.072L38.4006 64.6405L38.3968 64.6486L38.3931 64.6567L39.3027 65.072ZM40.7908 63.176L40.1544 62.4046L40.1544 62.4046L40.7908 63.176ZM43.0948 61.952L42.7936 60.9984L42.7887 61L43.0948 61.952ZM52.4788 61.52H53.4788V60.52H52.4788V61.52ZM46.1188 62.2C44.7409 62.2 43.5452 62.6404 42.6517 63.5977L44.1138 64.9623C44.5643 64.4796 45.1926 64.2 46.1188 64.2V62.2ZM42.6511 63.5983C41.7524 64.5628 41.3988 65.9375 41.3988 67.52H43.3988C43.3988 66.1905 43.7011 65.4052 44.1144 64.9617L42.6511 63.5983ZM41.3988 67.52C41.3988 69.1048 41.7533 70.4804 42.6436 71.4575L44.1219 70.1105C43.7002 69.6476 43.3988 68.8472 43.3988 67.52H41.3988ZM42.6594 71.4745C43.5546 72.4123 44.7478 72.84 46.1188 72.84V70.84C45.1857 70.84 44.5549 70.5637 44.1061 70.0935L42.6594 71.4745ZM46.1188 72.84H49.1188V70.84H46.1188V72.84ZM50.1188 71.84V63.2H48.1188V71.84H50.1188ZM49.1188 62.2H46.1188V64.2H49.1188V62.2ZM51.4788 73.76C51.4788 74.3815 51.3605 74.9127 51.143 75.3719L52.9505 76.2281C53.309 75.4713 53.4788 74.6425 53.4788 73.76H51.4788ZM51.1388 75.3809C50.9219 75.8508 50.5946 76.2626 50.1368 76.6186L51.3647 78.1974C52.0589 77.6574 52.5956 76.9972 52.9547 76.2191L51.1388 75.3809ZM50.1261 76.6271C49.6944 76.9725 49.1125 77.2639 48.3471 77.4765L48.8824 79.4035C49.845 79.1361 50.6871 78.7395 51.3754 78.1889L50.1261 76.6271ZM48.3424 77.4778C47.6043 77.6867 46.7077 77.8 45.6388 77.8V79.8C46.8418 79.8 47.9292 79.6733 48.8871 79.4022L48.3424 77.4778ZM45.6388 77.8C45.3095 77.8 44.9414 77.7725 44.5322 77.7141L44.2493 79.6939C44.7362 79.7635 45.2 79.8 45.6388 79.8V77.8ZM44.5012 77.7101C44.1286 77.6687 43.7435 77.5922 43.3455 77.4785L42.796 79.4015C43.294 79.5438 43.7889 79.6433 44.2803 79.6979L44.5012 77.7101ZM43.3133 77.4699C42.9227 77.3722 42.5373 77.2393 42.1569 77.0702L41.3446 78.8978C41.8282 79.1127 42.3228 79.2838 42.8282 79.4101L43.3133 77.4699ZM42.1404 77.063C41.7816 76.9113 41.4563 76.7344 41.1621 76.5338L40.0354 78.1862C40.4452 78.4656 40.8879 78.7047 41.3611 78.905L42.1404 77.063ZM41.4625 77.8639L42.3025 76.4239L40.575 75.4161L39.735 76.8561L41.4625 77.8639ZM40.8784 76.7483C41.5132 77.1777 42.2221 77.5068 42.9974 77.7412L43.5761 75.8268C42.9754 75.6452 42.4523 75.3983 41.9991 75.0917L40.8784 76.7483ZM42.9772 77.7349C43.7646 77.9913 44.5731 78.12 45.3988 78.12V76.12C44.7844 76.12 44.1849 76.0247 43.5963 75.8331L42.9772 77.7349ZM45.3988 78.12C46.736 78.12 47.9217 77.8179 48.8064 77.0659L47.5111 75.5421C47.1158 75.8781 46.4615 76.12 45.3988 76.12V78.12ZM48.8064 77.0659C49.7445 76.2686 50.1188 75.0909 50.1188 73.76H48.1188C48.1188 74.7331 47.853 75.2514 47.5111 75.5421L48.8064 77.0659ZM50.1188 73.76V73.52H48.1188V73.76H50.1188ZM49.1188 72.52H46.1188V74.52H49.1188V72.52ZM46.1188 72.52C45.1015 72.52 44.1968 72.3873 43.3959 72.1344L42.7936 74.0416C43.8167 74.3647 44.928 74.52 46.1188 74.52V72.52ZM43.4008 72.136C42.6092 71.8816 41.9572 71.5299 41.4271 71.0926L40.1544 72.6354C40.9043 73.2541 41.7883 73.7184 42.7887 74.04L43.4008 72.136ZM41.4271 71.0926C40.8974 70.6556 40.493 70.139 40.2049 69.5365L38.4006 70.3995C38.8165 71.269 39.4041 72.0164 40.1544 72.6354L41.4271 71.0926ZM40.2124 69.5527C39.9421 68.9605 39.7988 68.2882 39.7988 67.52H37.7988C37.7988 68.5438 37.9914 69.5035 38.3931 70.3833L40.2124 69.5527ZM39.7988 67.52C39.7988 66.7518 39.9421 66.0795 40.2124 65.4873L38.3931 64.6567C37.9914 65.5365 37.7988 66.4962 37.7988 67.52H39.7988ZM40.2049 65.5035C40.493 64.901 40.8974 64.3844 41.4271 63.9474L40.1544 62.4046C39.4041 63.0236 38.8165 63.771 38.4006 64.6405L40.2049 65.5035ZM41.4271 63.9474C41.9572 63.5101 42.6092 63.1584 43.4008 62.904L42.7887 61C41.7883 61.3216 40.9043 61.7859 40.1544 62.4046L41.4271 63.9474ZM43.3959 62.9056C44.1968 62.6527 45.1015 62.52 46.1188 62.52V60.52C44.928 60.52 43.8167 60.6753 42.7936 60.9984L43.3959 62.9056ZM46.1188 62.52H52.4788V60.52H46.1188V62.52ZM51.4788 61.52V73.76H53.4788V61.52H51.4788ZM64.7084 72.32V73.32H65.7084V72.32H64.7084ZM64.7084 67.76H65.7084V66.76H64.7084V67.76ZM64.7084 66.08V67.08H65.7084V66.08H64.7084ZM63.7964 63.536L63.1198 64.2724L63.1296 64.2812L63.7964 63.536ZM59.3564 63.056L59.6458 64.0132L59.656 64.0101L59.666 64.0069L59.3564 63.056ZM57.5084 63.92L56.6447 64.4239L57.1833 65.3473L58.0687 64.7483L57.5084 63.92ZM56.6684 62.48L56.1051 61.6538L55.335 62.1788L55.8047 62.9839L56.6684 62.48ZM57.8204 61.856L57.4431 60.9298L57.4308 60.935L57.8204 61.856ZM59.1404 61.424L59.383 62.3941L59.3991 62.3901L59.4152 62.3855L59.1404 61.424ZM60.4604 61.136L60.319 60.146L60.3139 60.1468L60.4604 61.136ZM64.4204 61.4L64.7132 60.4438L64.7132 60.4438L64.4204 61.4ZM66.4124 62.432L65.7767 63.2039L65.7767 63.2039L66.4124 62.432ZM67.6364 64.04L66.7197 64.4396L66.726 64.4539L66.7327 64.4681L67.6364 64.04ZM68.0684 74V75H69.0684V74H68.0684ZM56.5244 73.016L55.985 73.8581L55.9909 73.8618L56.5244 73.016ZM56.5244 67.064L55.9909 66.2182L55.985 66.222L56.5244 67.064ZM57.5884 70.04C57.5884 71.0098 57.8911 71.901 58.6416 72.521C59.3554 73.1107 60.3158 73.32 61.3484 73.32V71.32C60.5411 71.32 60.1215 71.1493 59.9153 70.979C59.7457 70.839 59.5884 70.5902 59.5884 70.04H57.5884ZM61.3484 73.32H64.7084V71.32H61.3484V73.32ZM65.7084 72.32V67.76H63.7084V72.32H65.7084ZM64.7084 66.76H61.3484V68.76H64.7084V66.76ZM61.3484 66.76C60.3158 66.76 59.3554 66.9693 58.6416 67.559C57.8911 68.179 57.5884 69.0702 57.5884 70.04H59.5884C59.5884 69.4898 59.7457 69.241 59.9153 69.101C60.1215 68.9307 60.5411 68.76 61.3484 68.76V66.76ZM65.7084 66.08C65.7084 64.7642 65.3591 63.5923 64.4632 62.7908L63.1296 64.2812C63.4498 64.5677 63.7084 65.0918 63.7084 66.08H65.7084ZM64.4731 62.7997C63.6618 62.0542 62.6276 61.72 61.4684 61.72V63.72C62.2293 63.72 62.747 63.9298 63.1198 64.2723L64.4731 62.7997ZM61.4684 61.72C60.6428 61.72 59.8343 61.8487 59.0469 62.1051L59.666 64.0069C60.2546 63.8153 60.8541 63.72 61.4684 63.72V61.72ZM59.067 62.0988C58.2918 62.3332 57.5829 62.6623 56.9481 63.0917L58.0687 64.7483C58.522 64.4417 59.0451 64.1948 59.6458 64.0132L59.067 62.0988ZM58.3722 63.4161L57.5322 61.9761L55.8047 62.9839L56.6447 64.4239L58.3722 63.4161ZM57.2318 63.3062C57.526 63.1056 57.8513 62.9287 58.2101 62.777L57.4308 60.935C56.9575 61.1353 56.5149 61.3744 56.1051 61.6538L57.2318 63.3062ZM58.1977 62.7821C58.5864 62.6238 58.9813 62.4945 59.383 62.3941L58.8979 60.4539C58.4035 60.5774 57.9185 60.7362 57.4431 60.9299L58.1977 62.7821ZM59.4152 62.3855C59.8239 62.2688 60.221 62.1824 60.607 62.1252L60.3139 60.1468C59.8358 60.2176 59.353 60.3232 58.8657 60.4625L59.4152 62.3855ZM60.6019 62.1259C61.011 62.0675 61.3792 62.04 61.7084 62.04V60.04C61.2697 60.04 60.8058 60.0765 60.319 60.1461L60.6019 62.1259ZM61.7084 62.04C62.6568 62.04 63.4587 62.1514 64.1277 62.3562L64.7132 60.4438C63.8141 60.1686 62.8081 60.04 61.7084 60.04V62.04ZM64.1277 62.3562C64.8066 62.564 65.349 62.8517 65.7767 63.2039L67.0481 61.6601C66.3879 61.1163 65.6022 60.716 64.7132 60.4438L64.1277 62.3562ZM65.7767 63.2039C66.2035 63.5554 66.513 63.9653 66.7197 64.4396L68.5531 63.6404C68.2159 62.8667 67.7094 62.2046 67.0481 61.6601L65.7767 63.2039ZM66.7327 64.4681C66.9502 64.9273 67.0684 65.4585 67.0684 66.08H69.0684C69.0684 65.1975 68.8987 64.3687 68.5402 63.6119L66.7327 64.4681ZM67.0684 66.08V74H69.0684V66.08H67.0684ZM68.0684 73H61.3484V75H68.0684V73ZM61.3484 73C59.2347 73 57.8573 72.6744 57.0579 72.1702L55.9909 73.8618C57.2716 74.6696 59.1101 75 61.3484 75V73ZM57.0639 72.174C56.357 71.7211 55.9884 71.0645 55.9884 70.04H53.9884C53.9884 71.6715 54.6439 72.9989 55.985 73.858L57.0639 72.174ZM55.9884 70.04C55.9884 69.0155 56.357 68.3589 57.0639 67.906L55.985 66.222C54.6439 67.0811 53.9884 68.4085 53.9884 70.04H55.9884ZM57.0579 67.9098C57.8573 67.4056 59.2347 67.08 61.3484 67.08V65.08C59.1101 65.08 57.2716 65.4104 55.9909 66.2182L57.0579 67.9098ZM61.3484 67.08H64.7084V65.08H61.3484V67.08ZM81.0172 72.32V73.32H82.0172V72.32H81.0172ZM81.0172 63.2H82.0172V62.2H81.0172V63.2ZM76.5052 63.464L76.8415 64.4057L76.8507 64.4025L76.8598 64.399L76.5052 63.464ZM75.3292 64.256L74.5907 63.5817L74.5825 63.5907L74.5746 63.5998L75.3292 64.256ZM74.5612 65.672L73.6125 65.3558L73.6085 65.3677L73.6048 65.3798L74.5612 65.672ZM74.5612 69.848L73.6048 70.1402L73.6085 70.1523L73.6125 70.1642L74.5612 69.848ZM75.3292 71.264L74.5746 71.9202L74.5825 71.9293L74.5907 71.9383L75.3292 71.264ZM76.5052 72.08L76.1395 73.0108L76.1592 73.0185L76.1792 73.0254L76.5052 72.08ZM74.9932 73.568L74.6872 74.52L74.6921 74.5216L74.9932 73.568ZM72.6892 72.32L72.0415 73.0819L72.0415 73.0819L72.6892 72.32ZM71.2012 70.352L70.285 70.7528L70.2885 70.7608L70.2921 70.7687L71.2012 70.352ZM71.2012 65.168L70.2921 64.7513L70.2885 64.7592L70.285 64.7672L71.2012 65.168ZM72.6892 63.2L72.0415 62.4381L72.0415 62.4381L72.6892 63.2ZM74.9932 61.952L74.6921 60.9984L74.6872 61L74.9932 61.952ZM81.0172 61.52V62.52H82.0172V61.52H81.0172ZM81.0172 57.2V56.2H80.0172V57.2H81.0172ZM84.3772 57.2H85.3772V56.2H84.3772V57.2ZM84.3772 74V75H85.3772V74H84.3772ZM82.0172 72.32V63.2H80.0172V72.32H82.0172ZM81.0172 62.2H78.0172V64.2H81.0172V62.2ZM78.0172 62.2C77.3637 62.2 76.7383 62.3061 76.1505 62.529L76.8598 64.399C77.2001 64.2699 77.5827 64.2 78.0172 64.2V62.2ZM76.1689 62.5223C75.5596 62.7399 75.0315 63.099 74.5907 63.5817L76.0677 64.9303C76.2989 64.677 76.5548 64.5081 76.8415 64.4057L76.1689 62.5223ZM74.5746 63.5998C74.1498 64.0884 73.8363 64.6844 73.6125 65.3558L75.5099 65.9882C75.6701 65.5076 75.8686 65.1596 76.0838 64.9122L74.5746 63.5998ZM73.6048 65.3798C73.3917 66.0773 73.2972 66.8776 73.2972 67.76H75.2972C75.2972 67.0104 75.3787 66.4187 75.5175 65.9642L73.6048 65.3798ZM73.2972 67.76C73.2972 68.6424 73.3917 69.4427 73.6048 70.1402L75.5175 69.5558C75.3787 69.1013 75.2972 68.5096 75.2972 67.76H73.2972ZM73.6125 70.1642C73.8363 70.8356 74.1498 71.4316 74.5746 71.9202L76.0838 70.6078C75.8686 70.3604 75.6701 70.0124 75.5099 69.5318L73.6125 70.1642ZM74.5907 71.9383C75.026 72.415 75.5442 72.7769 76.1395 73.0108L76.8708 71.1492C76.5702 71.0311 76.3044 70.849 76.0677 70.5897L74.5907 71.9383ZM76.1792 73.0254C76.7588 73.2252 77.3742 73.32 78.0172 73.32V71.32C77.5722 71.32 77.1796 71.2548 76.8312 71.1346L76.1792 73.0254ZM78.0172 73.32H81.0172V71.32H78.0172V73.32ZM78.0172 73C76.9999 73 76.0952 72.8673 75.2943 72.6144L74.6921 74.5216C75.7152 74.8447 76.8265 75 78.0172 75V73ZM75.2992 72.616C74.5134 72.3634 73.8652 72.0071 73.3368 71.5581L72.0415 73.0819C72.7932 73.7209 73.681 74.1966 74.6872 74.52L75.2992 72.616ZM73.3368 71.5581C72.8088 71.1092 72.4017 70.5713 72.1103 69.9353L70.2921 70.7687C70.7046 71.6687 71.2896 72.4428 72.0415 73.0819L73.3368 71.5581ZM72.1173 69.9512C71.8441 69.3266 71.6972 68.602 71.6972 67.76H69.6972C69.6972 68.838 69.8863 69.8414 70.285 70.7528L72.1173 69.9512ZM71.6972 67.76C71.6972 66.918 71.8441 66.1934 72.1173 65.5688L70.285 64.7672C69.8863 65.6786 69.6972 66.682 69.6972 67.76H71.6972ZM72.1103 65.5847C72.4017 64.9487 72.8088 64.4108 73.3368 63.9619L72.0415 62.4381C71.2896 63.0772 70.7046 63.8513 70.2921 64.7513L72.1103 65.5847ZM73.3368 63.9619C73.8652 63.5128 74.5134 63.1566 75.2992 62.904L74.6872 61C73.681 61.3234 72.7932 61.7991 72.0415 62.4381L73.3368 63.9619ZM75.2943 62.9056C76.0952 62.6527 76.9999 62.52 78.0172 62.52V60.52C76.8265 60.52 75.7152 60.6753 74.6921 60.9984L75.2943 62.9056ZM78.0172 62.52H81.0172V60.52H78.0172V62.52ZM82.0172 61.52V57.2H80.0172V61.52H82.0172ZM81.0172 58.2H84.3772V56.2H81.0172V58.2ZM83.3772 57.2V74H85.3772V57.2H83.3772ZM84.3772 73H78.0172V75H84.3772V73ZM97.1109 72.392L96.7432 71.462L96.7357 71.4651L97.1109 72.392ZM99.1269 71.24L99.9589 70.6853L99.3703 69.8023L98.5238 70.4423L99.1269 71.24ZM100.087 72.68L100.754 73.4252L101.4 72.8469L100.919 72.1253L100.087 72.68ZM99.0069 73.424L98.5328 72.5435L98.5255 72.5475L98.5183 72.5515L99.0069 73.424ZM97.6869 74L97.9833 74.9551L97.9932 74.952L98.0031 74.9487L97.6869 74ZM96.2229 74.336L96.0685 73.348L96.0535 73.3503L96.0386 73.3531L96.2229 74.336ZM91.5669 74.024L91.8734 73.0721L91.8633 73.0689L91.5669 74.024ZM89.1909 72.752L88.531 73.5035L88.5416 73.5126L89.1909 72.752ZM87.6549 70.64L86.7339 71.0296L86.7371 71.0371L86.7403 71.0445L87.6549 70.64ZM87.6309 64.904L86.7072 64.5206L86.7036 64.5295L87.6309 64.904ZM89.0709 62.792L89.7484 63.5275L89.7492 63.5268L89.0709 62.792ZM91.2789 61.496L91.6005 62.4429L91.6084 62.4402L91.6163 62.4373L91.2789 61.496ZM96.7989 61.472L96.4773 62.4189L96.4773 62.4189L96.7989 61.472ZM99.0069 62.744L98.339 63.4882L98.3443 63.493L98.3497 63.4978L99.0069 62.744ZM100.495 64.736L101.4 64.3111L101.4 64.3111L100.495 64.736ZM101.047 69.08V70.08H102.047V69.08H101.047ZM90.7989 69.08V68.08H89.6439L89.8092 69.2231L90.7989 69.08ZM92.1669 71.936L91.5421 72.7169L91.5506 72.7235L92.1669 71.936ZM91.7349 63.704L90.9508 63.0833L90.9427 63.0935L90.9349 63.104L91.7349 63.704ZM91.0149 65.192L90.0613 64.8909L90.0577 64.9024L90.0543 64.9139L91.0149 65.192ZM90.7269 67.4L89.727 67.3815L89.7082 68.4H90.7269V67.4ZM97.4469 67.4V68.4H98.4469V67.4H97.4469ZM97.1589 65.24L96.2053 65.5411L96.2053 65.5411L97.1589 65.24ZM96.3909 63.752L95.5947 64.3571L95.6083 64.3749L95.6227 64.3922L96.3909 63.752ZM95.3109 62.888L94.8781 63.7895L94.8995 63.7998L94.9212 63.809L95.3109 62.888ZM94.9269 73.8C95.8289 73.8 96.6855 73.643 97.4861 73.3189L96.7357 71.4651C96.1923 71.685 95.5928 71.8 94.9269 71.8V73.8ZM97.4785 73.322C98.2594 73.0132 99.0098 72.5822 99.73 72.0377L98.5238 70.4423C97.932 70.8898 97.3383 71.2268 96.7432 71.462L97.4785 73.322ZM98.2948 71.7947L99.2548 73.2347L100.919 72.1253L99.9589 70.6853L98.2948 71.7947ZM99.4201 71.9348C99.1831 72.1468 98.8901 72.3511 98.5328 72.5435L99.481 74.3045C99.9557 74.0489 100.383 73.7572 100.754 73.4252L99.4201 71.9348ZM98.5183 72.5515C98.1785 72.7418 97.797 72.9092 97.3706 73.0513L98.0031 74.9487C98.5368 74.7708 99.0352 74.5542 99.4955 74.2965L98.5183 72.5515ZM97.3905 73.0449C96.9759 73.1736 96.5356 73.275 96.0685 73.348L96.3773 75.324C96.9342 75.237 97.4698 75.1144 97.9833 74.9551L97.3905 73.0449ZM96.0386 73.3531C95.5863 73.4379 95.136 73.48 94.6869 73.48V75.48C95.2618 75.48 95.8355 75.4261 96.4072 75.3189L96.0386 73.3531ZM94.6869 73.48C93.6401 73.48 92.7051 73.34 91.8734 73.0721L91.2603 74.9759C92.3166 75.316 93.4617 75.48 94.6869 75.48V73.48ZM91.8633 73.0689C91.0485 72.8161 90.3806 72.4528 89.8401 71.9914L88.5416 73.5126C89.3131 74.1712 90.2293 74.6559 91.2705 74.9791L91.8633 73.0689ZM89.8507 72.0006C89.3084 71.5244 88.8812 70.9405 88.5694 70.2355L86.7403 71.0445C87.1645 72.0035 87.7614 72.8276 88.5311 73.5034L89.8507 72.0006ZM88.5758 70.2504C88.2855 69.5641 88.1269 68.7409 88.1269 67.76H86.1269C86.1269 68.9551 86.3202 70.0519 86.7339 71.0296L88.5758 70.2504ZM88.1269 67.76C88.1269 66.7919 88.2786 65.9707 88.5581 65.2785L86.7036 64.5295C86.3112 65.5013 86.1269 66.5841 86.1269 67.76H88.1269ZM88.5545 65.2874C88.8571 64.5583 89.2582 63.979 89.7484 63.5275L88.3934 62.0565C87.6675 62.725 87.1086 63.5537 86.7073 64.5206L88.5545 65.2874ZM89.7492 63.5268C90.2648 63.0508 90.8775 62.6884 91.6005 62.4429L90.9573 60.5491C89.9842 60.8796 89.1249 61.3812 88.3926 62.0572L89.7492 63.5268ZM91.6163 62.4373C92.3423 62.1771 93.1624 62.04 94.0869 62.04V60.04C92.9634 60.04 91.9114 60.2069 90.9414 60.5547L91.6163 62.4373ZM94.0869 62.04C94.9454 62.04 95.7401 62.1685 96.4773 62.4189L97.1205 60.5251C96.1617 60.1995 95.1484 60.04 94.0869 60.04V62.04ZM96.4773 62.4189C97.2062 62.6664 97.8223 63.0245 98.339 63.4882L99.6748 61.9998C98.9435 61.3435 98.0876 60.8536 97.1205 60.5251L96.4773 62.4189ZM98.3497 63.4978C98.8643 63.9464 99.2778 64.4966 99.5896 65.1609L101.4 64.3111C100.976 63.4074 100.397 62.6296 99.664 61.9902L98.3497 63.4978ZM99.5896 65.1609C99.8868 65.7939 100.047 66.5335 100.047 67.4H102.047C102.047 66.2825 101.839 65.2461 101.4 64.3111L99.5896 65.1609ZM100.047 67.4V69.08H102.047V67.4H100.047ZM101.047 68.08H90.7989V70.08H101.047V68.08ZM89.8092 69.2231C90.0211 70.6891 90.5498 71.9229 91.5422 72.7169L92.7916 71.1551C92.344 70.7971 91.9606 70.1269 91.7886 68.9369L89.8092 69.2231ZM91.5506 72.7235C92.493 73.4611 93.6415 73.8 94.9269 73.8V71.8C94.0042 71.8 93.3128 71.5629 92.7832 71.1485L91.5506 72.7235ZM94.0869 61.6C93.4929 61.6 92.9228 61.7134 92.3881 61.9487L93.1936 63.7793C93.459 63.6626 93.7528 63.6 94.0869 63.6V61.6ZM92.3881 61.9487C91.8217 62.1979 91.3436 62.5871 90.9508 63.0833L92.5189 64.3247C92.7341 64.0529 92.9601 63.8821 93.1936 63.7793L92.3881 61.9487ZM90.9349 63.104C90.5611 63.6024 90.2768 64.2085 90.0613 64.8909L91.9685 65.4931C92.137 64.9595 92.3327 64.5736 92.5349 64.304L90.9349 63.104ZM90.0543 64.9139C89.8468 65.6307 89.7441 66.4592 89.727 67.3815L91.7267 67.4185C91.7416 66.6128 91.8309 65.9693 91.9754 65.4701L90.0543 64.9139ZM90.7269 68.4H97.4469V66.4H90.7269V68.4ZM98.4469 67.4C98.4469 66.4952 98.343 65.6688 98.1125 64.9389L96.2053 65.5411C96.3588 66.0272 96.4469 66.6408 96.4469 67.4H98.4469ZM98.1125 64.9389C97.8916 64.2396 97.5818 63.6191 97.1591 63.1118L95.6227 64.3922C95.8399 64.6529 96.0421 65.0244 96.2053 65.5411L98.1125 64.9389ZM97.187 63.1469C96.7896 62.6239 96.2948 62.2185 95.7005 61.967L94.9212 63.809C95.159 63.9095 95.3842 64.0801 95.5947 64.3571L97.187 63.1469ZM95.7436 61.9865C95.2177 61.7341 94.6625 61.6 94.0869 61.6V63.6C94.3432 63.6 94.604 63.6579 94.8781 63.7895L95.7436 61.9865ZM107.285 74V75H108.285V74H107.285ZM103.925 74H102.925V75H103.925V74ZM103.925 61.76V60.76H102.925V61.76H103.925ZM107.285 61.76H108.285V60.76H107.285V61.76ZM106.901 59.792L106.163 59.1177L106.161 59.1193L106.901 59.792ZM104.285 59.792L103.53 60.4482L103.546 60.4657L103.562 60.4825L104.285 59.792ZM104.285 57.272L103.547 56.5977L103.545 56.5993L104.285 57.272ZM106.901 57.272L106.163 57.9463L106.17 57.9545L106.178 57.9625L106.901 57.272ZM107.285 73H103.925V75H107.285V73ZM104.925 74V61.76H102.925V74H104.925ZM103.925 62.76H107.285V60.76H103.925V62.76ZM106.285 61.76V74H108.285V61.76H106.285ZM106.405 58.52C106.405 58.7402 106.337 58.9263 106.163 59.1177L107.639 60.4663C108.137 59.9217 108.405 59.2598 108.405 58.52H106.405ZM106.161 59.1193C106.059 59.232 105.912 59.32 105.605 59.32V61.32C106.386 61.32 107.103 61.056 107.641 60.4647L106.161 59.1193ZM105.605 59.32C105.299 59.32 105.132 59.2316 105.008 59.1015L103.562 60.4825C104.11 61.0564 104.823 61.32 105.605 61.32V59.32ZM105.04 59.1358C104.875 58.9466 104.805 58.7546 104.805 58.52H102.805C102.805 59.2454 103.055 59.9014 103.53 60.4482L105.04 59.1358ZM104.805 58.52C104.805 58.2863 104.874 58.1108 105.025 57.9447L103.545 56.5993C103.056 57.1372 102.805 57.7937 102.805 58.52H104.805ZM105.023 57.9463C105.151 57.8061 105.313 57.72 105.605 57.72V55.72C104.809 55.72 104.091 56.0019 103.547 56.5977L105.023 57.9463ZM105.605 57.72C105.871 57.72 106.028 57.7993 106.163 57.9463L107.639 56.5977C107.102 56.0087 106.395 55.72 105.605 55.72V57.72ZM106.178 57.9625C106.339 58.1313 106.405 58.3011 106.405 58.52H108.405C108.405 57.7789 108.135 57.1167 107.624 56.5815L106.178 57.9625ZM120.246 63.2V64.2H121.246V63.2H120.246ZM114.87 64.088L115.577 64.7952L115.587 64.7854L114.87 64.088ZM114.006 74V75H115.006V74H114.006ZM110.646 74H109.646V75H110.646V74ZM112.182 62.888L112.84 63.6406L112.841 63.6399L112.182 62.888ZM120.246 61.52H121.246V60.52H120.246V61.52ZM120.246 62.2H117.366V64.2H120.246V62.2ZM117.366 62.2C116.097 62.2 114.972 62.5494 114.153 63.3906L115.587 64.7854C115.92 64.4426 116.459 64.2 117.366 64.2V62.2ZM114.163 63.3809C113.333 64.2106 113.006 65.3739 113.006 66.68H115.006C115.006 65.6821 115.255 65.1174 115.577 64.7951L114.163 63.3809ZM113.006 66.68V74H115.006V66.68H113.006ZM114.006 73H110.646V75H114.006V73ZM111.646 74V66.68H109.646V74H111.646ZM111.646 66.68C111.646 65.2734 112.077 64.3088 112.84 63.6406L111.523 62.1354C110.239 63.2592 109.646 64.8226 109.646 66.68H111.646ZM112.841 63.6399C113.637 62.9417 114.856 62.52 116.646 62.52V60.52C114.564 60.52 112.806 61.0103 111.523 62.1361L112.841 63.6399ZM116.646 62.52H120.246V60.52H116.646V62.52ZM119.246 61.52V63.2H121.246V61.52H119.246ZM130.766 71.744L131.532 72.3872L131.538 72.3798L131.544 72.3723L130.766 71.744ZM131.558 70.136L130.605 69.8338L130.601 69.8444L130.598 69.8551L131.558 70.136ZM131.558 65.384L130.598 65.6649L130.601 65.6756L130.605 65.6862L131.558 65.384ZM130.766 63.8L129.988 64.4283L129.994 64.4358L130 64.4432L130.766 63.8ZM125.534 63.8L126.3 64.4432L126.306 64.4358L126.312 64.4283L125.534 63.8ZM124.718 65.384L123.765 65.0818L123.761 65.0924L123.758 65.1031L124.718 65.384ZM124.718 70.136L123.758 70.4169L123.761 70.4276L123.765 70.4382L124.718 70.136ZM125.534 71.744L124.756 72.3723L124.762 72.3798L124.768 72.3872L125.534 71.744ZM131.102 61.496L130.781 62.443L130.791 62.4464L130.801 62.4496L131.102 61.496ZM133.43 62.792L132.761 63.5354L132.771 63.5446L133.43 62.792ZM134.918 64.904L133.994 65.2874L133.999 65.298L134.003 65.3085L134.918 64.904ZM134.918 70.64L134.003 70.2355L134 70.2429L133.997 70.2504L134.918 70.64ZM133.43 72.752L134.089 73.5047L134.099 73.4953L133.43 72.752ZM131.102 74.024L130.801 73.0704L130.791 73.0736L130.781 73.077L131.102 74.024ZM125.174 74.024L125.495 73.077L125.488 73.0744L125.48 73.072L125.174 74.024ZM122.87 72.752L122.201 73.4954L122.211 73.5046L122.87 72.752ZM121.358 70.64L120.437 71.0296L120.44 71.0371L120.443 71.0445L121.358 70.64ZM121.358 64.904L120.441 64.5059L120.437 64.5144L121.358 64.904ZM122.87 62.792L123.529 63.5447L123.539 63.5353L122.87 62.792ZM125.174 61.496L125.48 62.448L125.488 62.4456L125.495 62.443L125.174 61.496ZM128.15 73.92C128.79 73.92 129.405 73.7992 129.984 73.5511L129.196 71.7129C128.879 71.8488 128.534 71.92 128.15 71.92V73.92ZM129.984 73.5511C130.586 73.2931 131.102 72.8982 131.532 72.3872L130 71.1008C129.758 71.3898 129.49 71.5869 129.196 71.7129L129.984 73.5511ZM131.544 72.3723C131.982 71.8294 132.299 71.1658 132.518 70.4169L130.598 69.8551C130.433 70.4182 130.222 70.8266 129.988 71.1157L131.544 72.3723ZM132.511 70.4382C132.759 69.6572 132.87 68.7573 132.87 67.76H130.87C130.87 68.6187 130.773 69.3028 130.605 69.8338L132.511 70.4382ZM132.87 67.76C132.87 66.7627 132.759 65.8628 132.511 65.0818L130.605 65.6862C130.773 66.2172 130.87 66.9013 130.87 67.76H132.87ZM132.518 65.1031C132.298 64.3533 131.98 63.6901 131.532 63.1568L130 64.4432C130.224 64.7099 130.434 65.1027 130.598 65.6649L132.518 65.1031ZM131.544 63.1717C131.116 62.6414 130.596 62.2311 129.984 61.9689L129.196 63.8071C129.48 63.9289 129.744 64.1266 129.988 64.4283L131.544 63.1717ZM129.984 61.9689C129.405 61.7208 128.79 61.6 128.15 61.6V63.6C128.534 63.6 128.879 63.6712 129.196 63.8071L129.984 61.9689ZM128.15 61.6C127.51 61.6 126.895 61.7208 126.316 61.9689L127.104 63.8071C127.421 63.6712 127.766 63.6 128.15 63.6V61.6ZM126.316 61.9689C125.704 62.2311 125.184 62.6414 124.756 63.1717L126.312 64.4283C126.556 64.1266 126.82 63.9289 127.104 63.8071L126.316 61.9689ZM124.768 63.1568C124.326 63.6834 124 64.3385 123.765 65.0818L125.671 65.6862C125.852 65.1175 126.07 64.7166 126.3 64.4432L124.768 63.1568ZM123.758 65.1031C123.532 65.8763 123.43 66.7684 123.43 67.76H125.43C125.43 66.8956 125.52 66.2037 125.678 65.6649L123.758 65.1031ZM123.43 67.76C123.43 68.7516 123.532 69.6437 123.758 70.4169L125.678 69.8551C125.52 69.3163 125.43 68.6244 125.43 67.76H123.43ZM123.765 70.4382C124 71.1804 124.323 71.8361 124.756 72.3723L126.312 71.1157C126.073 70.8199 125.852 70.4036 125.671 69.8338L123.765 70.4382ZM124.768 72.3872C125.198 72.8982 125.714 73.2931 126.316 73.5511L127.104 71.7129C126.81 71.5869 126.542 71.3898 126.3 71.1008L124.768 72.3872ZM126.316 73.5511C126.895 73.7992 127.51 73.92 128.15 73.92V71.92C127.766 71.92 127.421 71.8488 127.104 71.7129L126.316 73.5511ZM128.15 62.04C129.127 62.04 130.001 62.1784 130.781 62.443L131.423 60.549C130.411 60.2056 129.317 60.04 128.15 60.04V62.04ZM130.801 62.4496C131.592 62.6994 132.238 63.065 132.761 63.5353L134.099 62.0487C133.342 61.367 132.436 60.8686 131.403 60.5424L130.801 62.4496ZM132.771 63.5446C133.287 63.9956 133.696 64.5696 133.994 65.2874L135.842 64.5206C135.436 63.5424 134.853 62.7084 134.089 62.0394L132.771 63.5446ZM134.003 65.3085C134.306 65.9924 134.47 66.8028 134.47 67.76H136.47C136.47 66.5732 136.266 65.4796 135.833 64.4995L134.003 65.3085ZM134.47 67.76C134.47 68.7355 134.305 69.5533 134.003 70.2355L135.833 71.0445C136.267 70.0627 136.47 68.9605 136.47 67.76H134.47ZM133.997 70.2504C133.699 70.9542 133.287 71.5355 132.761 72.0087L134.099 73.4953C134.853 72.8165 135.433 71.9898 135.839 71.0296L133.997 70.2504ZM132.771 71.9994C132.248 72.4578 131.598 72.8188 130.801 73.0704L131.403 74.9776C132.43 74.6532 133.332 74.1662 134.089 73.5046L132.771 71.9994ZM130.781 73.077C130.001 73.3416 129.127 73.48 128.15 73.48V75.48C129.317 75.48 130.411 75.3144 131.423 74.971L130.781 73.077ZM128.15 73.48C127.155 73.48 126.274 73.3411 125.495 73.077L124.853 74.971C125.866 75.3149 126.969 75.48 128.15 75.48V73.48ZM125.48 73.072C124.7 72.8212 124.055 72.4604 123.529 71.9994L122.211 73.5046C122.965 74.1636 123.856 74.6508 124.868 74.976L125.48 73.072ZM123.539 72.0087C123.01 71.5323 122.587 70.946 122.273 70.2355L120.443 71.0445C120.865 71.998 121.45 72.8197 122.201 73.4953L123.539 72.0087ZM122.279 70.2504C121.989 69.5641 121.83 68.7409 121.83 67.76H119.83C119.83 68.9551 120.023 70.0519 120.437 71.0296L122.279 70.2504ZM121.83 67.76C121.83 66.7973 121.988 65.9816 122.279 65.2936L120.437 64.5144C120.024 65.4904 119.83 66.5787 119.83 67.76H121.83ZM122.275 65.3021C122.59 64.578 123.009 63.9988 123.529 63.5446L122.211 62.0394C121.451 62.7052 120.862 63.534 120.441 64.5059L122.275 65.3021ZM123.539 63.5353C124.065 63.0622 124.706 62.6969 125.48 62.448L124.868 60.544C123.85 60.8711 122.955 61.3698 122.201 62.0487L123.539 63.5353ZM125.495 62.443C126.274 62.1789 127.155 62.04 128.15 62.04V60.04C126.969 60.04 125.866 60.2051 124.853 60.549L125.495 62.443ZM141.595 65.168L140.906 65.893L140.915 65.9014L140.924 65.9095L141.595 65.168ZM143.275 65.96L143.554 64.9996L143.549 64.9985L143.275 65.96ZM146.995 67.04L147.275 66.08L147.273 66.0797L146.995 67.04ZM149.659 68.408L148.98 69.1428L148.98 69.1428L149.659 68.408ZM150.235 72.224L151.123 72.6835L151.129 72.6712L150.235 72.224ZM149.059 73.424L149.584 74.2748L149.584 74.2748L149.059 73.424ZM146.947 74.192L146.747 73.2121L146.738 73.2139L146.73 73.2158L146.947 74.192ZM141.811 74.336L141.659 75.3244L141.662 75.3249L141.811 74.336ZM140.011 73.952L139.711 74.906L139.727 74.911L139.743 74.9155L140.011 73.952ZM138.475 73.376L138.04 74.2766L138.053 74.2827L138.066 74.2885L138.475 73.376ZM137.275 72.68L136.443 72.1253L135.906 72.9309L136.693 73.4937L137.275 72.68ZM138.235 71.24L138.761 70.3897L137.939 69.8808L137.403 70.6853L138.235 71.24ZM140.587 72.344L140.25 73.2857L140.26 73.2893L140.27 73.2927L140.587 72.344ZM146.275 72.32L146.829 73.1521L146.829 73.1521L146.275 72.32ZM146.491 70.136L145.82 70.8775L145.83 70.8865L145.84 70.8953L146.491 70.136ZM144.715 69.32L144.436 70.2804L144.442 70.2822L144.715 69.32ZM140.995 68.24L140.71 69.1987L140.716 69.2003L140.995 68.24ZM138.475 66.944L137.806 67.6873L137.815 67.6961L137.825 67.7046L138.475 66.944ZM137.851 63.224L136.969 62.7517L136.963 62.7637L137.851 63.224ZM138.955 62.072L139.497 62.9123L139.497 62.9123L138.955 62.072ZM140.851 61.328L141.074 62.3027L141.084 62.3005L141.093 62.2981L140.851 61.328ZM147.235 61.592L146.91 62.5378L146.918 62.5407L146.927 62.5434L147.235 61.592ZM149.875 62.84L150.707 63.3947L151.244 62.5891L150.456 62.0263L149.875 62.84ZM148.915 64.28L148.379 65.1245L149.205 65.6479L149.747 64.8347L148.915 64.28ZM146.683 63.2L146.324 64.1333L146.332 64.1364L146.339 64.1393L146.683 63.2ZM141.739 63.128L142.286 63.965L142.286 63.965L141.739 63.128ZM140.115 64.16C140.115 64.856 140.43 65.4408 140.906 65.893L142.283 64.443C142.119 64.2872 142.115 64.2 142.115 64.16H140.115ZM140.924 65.9095C141.431 66.3684 142.169 66.684 143 66.9215L143.549 64.9985C142.813 64.788 142.43 64.5756 142.266 64.4265L140.924 65.9095ZM142.996 66.9203L146.716 68.0003L147.273 66.0797L143.553 64.9997L142.996 66.9203ZM146.715 68C147.776 68.3095 148.507 68.7058 148.98 69.1428L150.337 67.6732C149.562 66.9582 148.518 66.4425 147.275 66.08L146.715 68ZM148.98 69.1428C149.383 69.5144 149.595 69.984 149.595 70.64H151.595C151.595 69.472 151.182 68.4536 150.337 67.6732L148.98 69.1428ZM149.595 70.64C149.595 71.0724 149.506 71.4457 149.34 71.7768L151.129 72.6712C151.444 72.0423 151.595 71.3596 151.595 70.64H149.595ZM149.346 71.7646C149.207 72.0351 148.958 72.3111 148.533 72.5732L149.584 74.2748C150.248 73.8649 150.783 73.3409 151.123 72.6834L149.346 71.7646ZM148.533 72.5732C148.119 72.8288 147.536 73.0514 146.747 73.2121L147.146 75.1719C148.085 74.9806 148.91 74.6912 149.584 74.2748L148.533 72.5732ZM146.73 73.2158C145.96 73.3869 144.974 73.48 143.755 73.48V75.48C145.063 75.48 146.205 75.3811 147.164 75.1682L146.73 73.2158ZM143.755 73.48C143.148 73.48 142.549 73.4356 141.959 73.3471L141.662 75.3249C142.352 75.4284 143.05 75.48 143.755 75.48V73.48ZM141.963 73.3476C141.376 73.2573 140.814 73.1374 140.278 72.9885L139.743 74.9155C140.359 75.0866 140.998 75.2227 141.659 75.3244L141.963 73.3476ZM140.311 72.998C139.782 72.832 139.307 72.6533 138.884 72.4635L138.066 74.2885C138.57 74.5147 139.119 74.72 139.711 74.906L140.311 72.998ZM138.909 72.4754C138.485 72.2704 138.136 72.0663 137.856 71.8663L136.693 73.4937C137.085 73.7737 137.537 74.0336 138.04 74.2766L138.909 72.4754ZM138.107 73.2347L139.067 71.7947L137.403 70.6853L136.443 72.1253L138.107 73.2347ZM137.708 72.0903C138.451 72.55 139.301 72.9467 140.25 73.2857L140.923 71.4023C140.08 71.1013 139.362 70.762 138.761 70.3897L137.708 72.0903ZM140.27 73.2927C141.306 73.6379 142.473 73.8 143.755 73.8V71.8C142.637 71.8 141.691 71.6581 140.903 71.3953L140.27 73.2927ZM143.755 73.8C144.979 73.8 146.084 73.6489 146.829 73.1521L145.72 71.4879C145.505 71.6311 144.93 71.8 143.755 71.8V73.8ZM146.829 73.1521C147.523 72.6896 147.995 72.0051 147.995 71.12H145.995C145.995 71.1949 145.986 71.3104 145.72 71.4879L146.829 73.1521ZM147.995 71.12C147.995 70.4009 147.65 69.8125 147.141 69.3767L145.84 70.8953C146.004 71.0355 145.995 71.1031 145.995 71.12H147.995ZM147.162 69.3945C146.648 68.9295 145.869 68.6073 144.987 68.3578L144.442 70.2822C145.257 70.5127 145.662 70.7345 145.82 70.8775L147.162 69.3945ZM144.993 68.3597L141.273 67.2797L140.716 69.2003L144.436 70.2803L144.993 68.3597ZM141.279 67.2814C140.358 67.0079 139.651 66.6337 139.124 66.1834L137.825 67.7046C138.61 68.3743 139.583 68.8641 140.71 69.1986L141.279 67.2814ZM139.144 66.2007C138.74 65.8373 138.515 65.3528 138.515 64.64H136.515C136.515 65.8472 136.929 66.8987 137.806 67.6873L139.144 66.2007ZM138.515 64.64C138.515 64.2796 138.592 63.9666 138.738 63.6843L136.963 62.7637C136.661 63.3454 136.515 63.9764 136.515 64.64H138.515ZM138.732 63.6962C138.88 63.4203 139.12 63.1553 139.497 62.9123L138.413 61.2317C137.797 61.6287 137.301 62.1317 136.969 62.7518L138.732 63.6962ZM139.497 62.9123C139.869 62.6724 140.384 62.4609 141.074 62.3027L140.627 60.3533C139.782 60.5471 139.033 60.8316 138.413 61.2317L139.497 62.9123ZM141.093 62.2981C141.759 62.1318 142.6 62.04 143.635 62.04V60.04C142.493 60.04 141.479 60.1402 140.608 60.3579L141.093 62.2981ZM143.635 62.04C144.871 62.04 145.959 62.2113 146.91 62.5378L147.559 60.6462C146.367 60.2367 145.055 60.04 143.635 60.04V62.04ZM146.927 62.5434C147.952 62.8751 148.73 63.2514 149.293 63.6537L150.456 62.0263C149.675 61.4686 148.694 61.0129 147.543 60.6406L146.927 62.5434ZM149.043 62.2853L148.083 63.7253L149.747 64.8347L150.707 63.3947L149.043 62.2853ZM149.45 63.4355C148.726 62.9762 147.916 62.586 147.026 62.2607L146.339 64.1393C147.113 64.422 147.791 64.7518 148.379 65.1245L149.45 63.4355ZM147.042 62.2667C146.063 61.8902 144.918 61.72 143.635 61.72V63.72C144.752 63.72 145.638 63.8698 146.324 64.1333L147.042 62.2667ZM143.635 61.72C142.714 61.72 141.849 61.8613 141.191 62.291L142.286 63.965C142.461 63.8507 142.859 63.72 143.635 63.72V61.72ZM141.191 62.291C140.556 62.7062 140.115 63.337 140.115 64.16H142.115C142.115 64.1277 142.12 64.1177 142.126 64.1074C142.137 64.0904 142.174 64.0379 142.286 63.965L141.191 62.291ZM164.871 59V58H163.871V59H164.871ZM164.871 64.52H163.871V65.52H164.871V64.52ZM173.631 64.52H174.631V63.52H173.631V64.52ZM173.631 66.32V67.32H174.631V66.32H173.631ZM164.871 66.32V65.32H163.871V66.32H164.871ZM164.871 72.2H163.871V73.2H164.871V72.2ZM176.031 72.2H177.031V71.2H176.031V72.2ZM176.031 74V75H177.031V74H176.031ZM161.391 74H160.391V75H161.391V74ZM161.391 57.2V56.2H160.391V57.2H161.391ZM176.031 57.2H177.031V56.2H176.031V57.2ZM176.031 59V60H177.031V59H176.031ZM163.871 59V64.52H165.871V59H163.871ZM164.871 65.52H173.631V63.52H164.871V65.52ZM172.631 64.52V66.32H174.631V64.52H172.631ZM173.631 65.32H164.871V67.32H173.631V65.32ZM163.871 66.32V72.2H165.871V66.32H163.871ZM164.871 73.2H176.031V71.2H164.871V73.2ZM175.031 72.2V74H177.031V72.2H175.031ZM176.031 73H161.391V75H176.031V73ZM162.391 74V57.2H160.391V74H162.391ZM161.391 58.2H176.031V56.2H161.391V58.2ZM175.031 57.2V59H177.031V57.2H175.031ZM176.031 58H164.871V60H176.031V58ZM187.91 63.2V64.2H188.91V63.2H187.91ZM182.534 64.088L183.241 64.7952L183.251 64.7854L182.534 64.088ZM181.67 74V75H182.67V74H181.67ZM178.31 74H177.31V75H178.31V74ZM179.846 62.888L180.505 63.6406L180.505 63.6399L179.846 62.888ZM187.91 61.52H188.91V60.52H187.91V61.52ZM187.91 62.2H185.03V64.2H187.91V62.2ZM185.03 62.2C183.761 62.2 182.636 62.5494 181.817 63.3906L183.251 64.7854C183.584 64.4426 184.123 64.2 185.03 64.2V62.2ZM181.827 63.3809C180.997 64.2106 180.67 65.3739 180.67 66.68H182.67C182.67 65.6821 182.919 65.1174 183.241 64.7951L181.827 63.3809ZM180.67 66.68V74H182.67V66.68H180.67ZM181.67 73H178.31V75H181.67V73ZM179.31 74V66.68H177.31V74H179.31ZM179.31 66.68C179.31 65.2734 179.741 64.3088 180.505 63.6406L179.187 62.1354C177.903 63.2592 177.31 64.8226 177.31 66.68H179.31ZM180.505 63.6399C181.301 62.9417 182.52 62.52 184.31 62.52V60.52C182.228 60.52 180.471 61.0103 179.187 62.1361L180.505 63.6399ZM184.31 62.52H187.91V60.52H184.31V62.52ZM186.91 61.52V63.2H188.91V61.52H186.91ZM193.301 74V75H194.301V74H193.301ZM189.941 74H188.941V75H189.941V74ZM189.941 61.76V60.76H188.941V61.76H189.941ZM193.301 61.76H194.301V60.76H193.301V61.76ZM192.917 59.792L192.178 59.1177L192.177 59.1193L192.917 59.792ZM190.301 59.792L189.546 60.4482L189.561 60.4657L189.577 60.4825L190.301 59.792ZM190.301 57.272L189.562 56.5977L189.561 56.5993L190.301 57.272ZM192.917 57.272L192.178 57.9463L192.186 57.9545L192.193 57.9625L192.917 57.272ZM193.301 73H189.941V75H193.301V73ZM190.941 74V61.76H188.941V74H190.941ZM189.941 62.76H193.301V60.76H189.941V62.76ZM192.301 61.76V74H194.301V61.76H192.301ZM192.421 58.52C192.421 58.7402 192.353 58.9263 192.178 59.1177L193.655 60.4663C194.152 59.9217 194.421 59.2598 194.421 58.52H192.421ZM192.177 59.1193C192.074 59.232 191.927 59.32 191.621 59.32V61.32C192.402 61.32 193.119 61.056 193.657 60.4647L192.177 59.1193ZM191.621 59.32C191.314 59.32 191.148 59.2316 191.024 59.1015L189.577 60.4825C190.125 61.0564 190.839 61.32 191.621 61.32V59.32ZM191.055 59.1358C190.891 58.9466 190.821 58.7546 190.821 58.52H188.821C188.821 59.2454 189.071 59.9014 189.546 60.4482L191.055 59.1358ZM190.821 58.52C190.821 58.2863 190.89 58.1108 191.041 57.9447L189.561 56.5993C189.072 57.1372 188.821 57.7937 188.821 58.52H190.821ZM191.039 57.9463C191.167 57.8061 191.329 57.72 191.621 57.72V55.72C190.824 55.72 190.106 56.0019 189.562 56.5977L191.039 57.9463ZM191.621 57.72C191.886 57.72 192.044 57.7993 192.178 57.9463L193.655 56.5977C193.117 56.0087 192.411 55.72 191.621 55.72V57.72ZM192.193 57.9625C192.354 58.1313 192.421 58.3011 192.421 58.52H194.421C194.421 57.7789 194.151 57.1167 193.64 56.5815L192.193 57.9625ZM200.142 74V75H201.142V74H200.142ZM196.782 74H195.782V75H196.782V74ZM196.782 57.2V56.2H195.782V57.2H196.782ZM200.142 57.2H201.142V56.2H200.142V57.2ZM200.142 73H196.782V75H200.142V73ZM197.782 74V57.2H195.782V74H197.782ZM196.782 58.2H200.142V56.2H196.782V58.2ZM199.142 57.2V74H201.142V57.2H199.142Z" fill="#CDDACE" mask="url(#path-4-outside-1_36_2)"/>
</g>
<g clip-path="url(#clip0_36_2)">
<path d="M79.8957 23.222C79.8957 21.6549 82.0184 20.2113 83 19C83.8747 17.9206 84.7839 16.6913 85.4028 15.4534C86.0051 14.2488 86.0604 13.9396 87 13C86.5 10.7411 89.4051 11.6784 90.6639 10.5424C92.0662 9.27696 94.9143 9.16146 96.682 8.66882C99.3344 7.92962 101.27 7 104 7C106 8.5 107.904 7.98732 109.381 8.74451C110.002 9.06303 110.498 9.63012 111.065 10.0314C111.86 10.5948 112.734 10.9894 113.582 11.4602C114.405 11.9176 114.965 12.6959 115.768 13.1729C116.584 13.6585 117.393 14.1726 118.181 14.7058C119.018 15.2729 119.151 16.1471 119.581 16.9958C120.084 17.9886 120.935 18.853 121.275 19.9291C121.553 20.8091 122.371 21.2621 122.637 22.1055C122.816 22.6705 122.817 23.2045 122.817 23.7898C122.817 24.9704 122.822 25.859 122.145 26.8745C121.369 28.0396 120.699 29.5247 120 30.773C118.838 32.8475 117.599 32.6968 116.941 35C116.729 35.7434 117.184 38.5791 116.941 39.3082C116.711 39.9998 116.853 40.7843 116.61 41.4845C115.701 44.1054 113.736 45.6882 111.084 46.3861C109.647 46.7641 108.199 46.8778 106.75 47.1998C106.245 47.312 105.694 47.3981 105.179 47.408C104.243 47.426 103.466 47 102.5 47C98.6393 47 94.5 47.408 91.5 46.3861C91.5 44.8531 89.519 44.6291 88.885 46.9916C89.519 44.5 90.0455 43.3151 89.519 42.5254C89.0742 41.8582 86.2174 43.2628 85.9138 42.5254C85.4309 41.3526 85.1658 40.2305 84.8351 39.0243C84.2294 36.8155 83.2113 34.751 82.5452 32.5709C82.2787 31.6987 81.982 30.7209 81.8071 29.8268C81.5927 28.7311 81.8948 27.5363 81.2677 26.5433C80.8958 25.9544 81.0745 24.9537 81.0974 24.3007C81.1193 23.6781 81.0298 22.6291 81.2961 22.0298C81.6889 21.146 82.4654 20.1493 83.0561 19.3897C83.7603 18.4844 84.53 17.3979 85.4028 16.6551C86.6697 15.5769 88.027 14.9868 89.519 14.28C90.0559 14.0257 90.2554 13.5436 90.6639 13.1351C91.9806 11.8184 93.5955 10.7445 95.4235 10.3058C96.3199 10.0907 97.4385 10.2774 98.3569 10.2774C99.5018 10.2774 101.855 9.5 103 9.5C104.577 9.5 105.593 9.80304 106.939 10.7411C107.662 11.2445 108.616 12.1001 109.532 12.151C110.182 12.1871 111.038 13.6835 111.557 14.0813C112.266 14.6252 113.117 14.9384 113.856 15.4534C114.466 15.878 114.826 16.4871 115.455 16.8822C117.035 17.8737 117.864 19.4727 119.061 20.8186C119.069 20.8284 119.48 21.2646 119.524 21.1308C119.612 20.8693 117.668 19.2542 117.603 19.191C115.951 17.5723 114.278 15.2744 112.314 14.0245C111.067 13.2313 109.459 13.1273 108.34 12.1321C107.766 11.6222 107.314 11.28 106.561 11.0628C105.89 10.8694 105.537 10.7973 105.104 10.2774" stroke="#588157" stroke-width="3" stroke-linecap="round"/>
<path d="M94.0326 22.8814C95.4308 23.0212 95.4366 24.8419 95.5655 25.9377C95.7625 27.6121 96.4836 29.1207 97.1836 30.6311C97.2294 30.73 98.2875 32.4068 98.2623 32.4952C98.1943 32.7332 96.6871 32.5898 96.5212 32.5898C95.4614 32.5898 95.5476 29.1979 95.3195 28.3696C95.0695 27.4619 94.504 27.4494 93.9758 26.8367C93.6265 26.4315 93.7575 24.7842 93.9379 24.2629C94.2581 23.338 95.2353 22.4218 96.0386 21.8594C98.9902 19.7934 104.01 19.5737 106.637 22.2001C107.548 23.1118 108.456 23.9962 109.191 25.0577C109.686 25.7729 109.702 25.0814 109.702 24.5846C109.702 24.1929 108.612 25.7545 108.34 26.1175" stroke="#588157" stroke-width="23" stroke-linecap="round"/>
<path d="M99.6533 42.9796C100.852 42.9796 102.011 43.1499 103.211 43.1499C104.891 43.1499 106.065 42.4712 107.488 41.617" stroke="#588157" stroke-width="15" stroke-linecap="round"/>
<path d="M93.181 42.128C92.7378 42.5219 91.8377 43.0622 91.2506 43.1404C90.1484 43.2874 90.4558 41.6516 90.4558 40.8695C90.4558 39.9245 90.0557 39.0406 89.8123 38.1159C89.5546 37.1363 89.6042 36.1629 89.6042 35.1447" stroke="#588157" stroke-width="10" stroke-linecap="round"/>
<path d="M113.62 39.5731C114.353 39.5731 113.704 39.2607 114 38.5C114.273 37.7977 115 37.2579 115 36.5C115 35.5439 115.378 33.9962 115.787 33.1481C116.208 32.2738 115.297 31.4716 115.5 30.5C115.733 29.3871 117.518 28.5212 117.878 27.4423C118.363 25.9855 118.741 24.4821 119.581 23.222" stroke="#588157" stroke-width="10" stroke-linecap="round"/>
<path d="M116.175 30.3756C116.974 30.4986 117.09 32.548 117.5 31C117.746 30.0723 118.389 28.7851 118.389 27.8208" stroke="#588157" stroke-width="10" stroke-linecap="round"/>
<path d="M81.2983 26.5582C81.8028 26.624 82.2085 27.0232 82.6969 27.1177C82.9072 27.1584 83.1147 27.2087 83.3247 27.2544C83.6539 27.3262 84.0234 27.2759 84.341 27.3725C84.5022 27.4216 84.6387 27.5034 84.7916 27.559C85.0355 27.6477 85.4394 27.5652 85.6805 27.5652C87.6294 27.5652 89.5098 28.2365 91.4675 28.2365C92.1078 28.2365 92.7152 28.3332 93.3478 28.3453C94.272 28.3631 95.1938 28.3691 96.117 28.4168C97.4286 28.4846 98.729 28.5163 100.045 28.5163C102.735 28.5163 105.453 28.6102 108.108 28.1526C108.701 28.0503 109.248 27.914 109.857 27.8978C110.274 27.8867 110.634 27.7895 111.029 27.6709C111.384 27.5643 111.763 27.6325 112.123 27.5217C112.46 27.418 112.805 27.4174 113.149 27.3166C113.824 27.1185 114.525 27.2526 115.187 27.0058C115.574 26.8618 116.036 26.9915 116.387 26.7572C116.631 26.5948 116.881 26.5358 117.17 26.4774C117.754 26.3597 118.184 26.2516 118.727 25.9988C118.929 25.9048 119.36 25.7971 119.507 25.5948C119.625 25.4346 119.739 25.361 119.936 25.2964C120.296 25.1787 120.646 25.0568 120.993 24.9079C121.286 24.7824 121.442 24.5235 121.708 24.364C121.877 24.2627 121.908 24.1648 122.05 24.0532C122.245 23.8998 122.326 23.7483 122.494 23.5435C122.549 23.4765 122.622 23.3306 122.696 23.2825C122.754 23.2451 122.738 23.8355 122.727 23.8916C122.616 24.4942 122.544 25.1088 122.33 25.688C122.239 25.9336 122.075 26.1374 122.006 26.3935C121.912 26.7466 121.827 27.0958 121.723 27.4471C121.623 27.7855 121.581 28.1322 121.459 28.4665C121.285 28.9458 121.033 29.3699 120.794 29.8154C120.555 30.2619 120.444 30.7871 120.238 31.2513C119.665 32.5395 119.478 33.9826 118.849 35.2419C118.586 35.7674 118.38 36.322 118.171 36.8704C117.933 37.496 117.663 38.0273 117.335 38.6047C117.157 38.918 117.008 39.2436 116.841 39.5619C116.612 39.9966 116.283 40.3609 116.039 40.7865C115.521 41.6903 114.92 42.5213 114.382 43.4065C114.154 43.7833 113.866 44.2159 113.49 44.4663C112.806 44.9227 111.944 44.9773 111.206 45.2992C110.499 45.6079 109.728 45.7783 108.987 45.9923C108.476 46.1399 108.009 46.3635 107.48 46.474C106.997 46.5747 106.548 46.8154 106.053 46.8625C105.652 46.9008 105.31 47.1552 104.919 47.2448C104.206 47.4082 103.472 47.3691 102.746 47.3691C100.843 47.3691 98.9059 47.4827 97.009 47.3411C96.4281 47.2978 95.858 47.2572 95.2748 47.2572C94.9402 47.2572 94.6614 47.1069 94.3393 47.0335C93.4845 46.8387 92.807 46.2683 92.0829 45.7778C91.8419 45.6146 91.5685 45.3969 91.3556 45.206C91.06 44.9409 90.684 44.9005 90.3393 44.718C90.0332 44.5559 89.876 44.6468 89.6711 44.2798C89.1919 43.4216 89.0137 42.4703 88.7387 41.5355C88.5838 41.0086 88.5103 40.423 88.1979 39.9597C87.949 39.5906 87.6578 39.2929 87.5297 38.8595C87.2821 38.0214 86.8982 37.272 86.5507 36.4788C86.2943 35.8933 86.0804 35.3155 85.7768 34.7539C85.6381 34.4973 85.4803 34.2587 85.3262 34.0111C85.0431 33.5561 84.9626 33.0224 84.6797 32.569C84.4659 32.2263 84.2547 31.8946 84.0395 31.5496C83.8575 31.2579 83.5998 31.0563 83.4148 30.7695C83.3507 30.6702 82.8298 29.7172 82.846 29.7159C83.1791 29.6893 83.5688 29.9074 83.8903 29.9739C84.3463 30.0682 84.7686 30.4942 85.177 30.7043C85.9321 31.0926 86.9498 31.3627 87.8063 31.3694C90.0976 31.3872 92.3898 31.3694 94.6811 31.3694C98.8582 31.3694 103.035 31.3694 107.212 31.3694C108.757 31.3694 110.227 31.4872 111.707 31.0088C112.276 30.8248 112.888 30.7532 113.447 30.5551C113.82 30.4229 114.181 30.2927 114.569 30.2008C115.238 30.0423 115.845 29.7244 116.518 29.5667C116.882 29.4814 117.182 29.2153 117.475 29.0197C117.614 28.927 118.258 28.449 118.41 28.5846C118.564 28.7211 118.219 29.4257 118.165 29.5481C117.835 30.2952 117.26 30.9579 116.822 31.6429C116.514 32.1253 116.208 32.603 115.859 33.057C115.563 33.441 115.381 33.885 115.141 34.3033C114.65 35.1558 114.152 36.0032 113.658 36.8518C113.25 37.5525 112.951 38.3014 112.577 39.0274C112.38 39.4086 112.233 39.8158 112.045 40.2022C111.883 40.5353 111.857 40.8527 111.75 41.1936C111.53 41.8928 110.998 42.7949 110.532 43.3599C110.22 43.7372 109.738 43.9265 109.267 44.0094C107.59 44.3043 105.883 44.5968 104.191 44.7957C103.702 44.8533 103.216 44.9759 102.725 45.0102C102.194 45.0472 101.667 45.0465 101.136 45.1003C99.8479 45.231 98.5406 45.1873 97.2483 45.1873C95.4622 45.1873 93.778 44.9234 92.2165 44.0125C91.5295 43.6117 90.7182 43.1011 90.4605 42.2969C90.1533 41.3379 89.9458 40.35 89.6307 39.3972C89.3229 38.4664 89.1863 37.5303 89.1863 36.5503C89.1863 35.9895 89.2174 35.4427 89.0744 34.9062C89.0616 34.8583 89.0995 34.8285 89.1428 34.813C89.6757 34.6223 90.353 34.5917 90.8988 34.5395C92.3981 34.396 93.898 34.3903 95.4022 34.3903C97.1927 34.3903 98.9811 34.2841 100.773 34.2784C101.978 34.2745 103.148 34.085 104.347 34.0111C106.384 33.8856 108.391 33.9164 110.42 33.6102C111.037 33.5171 111.666 33.3677 112.291 33.3274C112.382 33.3215 112.465 33.3148 112.49 33.4268C112.931 35.4266 111.35 36.8185 110.093 38.1043C109.316 38.8995 108.566 39.6749 107.66 40.3265C107.164 40.6832 106.722 41.0801 106.258 41.4764C105.399 42.2101 104.406 42.9645 103.421 43.5215C102.791 43.8773 102.117 44.1386 101.388 44.0591C100.823 43.9975 100.279 43.7578 99.7409 43.5898C98.9279 43.3363 98.0956 43.1785 97.2607 43.018C96.3704 42.8468 95.4532 42.7943 94.5692 42.6015C94.3779 42.5598 94.2374 42.4317 94.0564 42.3653C93.456 42.1452 92.7819 41.7303 92.3408 41.2713C92.1149 41.0363 92.0761 40.6869 92.0518 40.3762C92.0048 39.7751 92.0117 39.1345 92.0767 38.5363C92.1377 37.9744 92.267 37.3908 92.4776 36.8642C92.6132 36.5252 94.1671 36.8093 94.3921 36.8238C96.3221 36.9481 98.2838 36.9877 100.21 36.7865C102.029 36.5966 103.85 36.1805 105.683 36.1805C106.118 36.1805 106.543 36.2013 106.923 36.4478C107.881 37.0679 107.031 38.2221 106.526 38.8471C105.24 40.4347 103.315 41.7889 101.32 42.3031C100.413 42.5368 99.2907 42.5358 98.3982 42.2845C97.8549 42.1315 97.3862 41.7863 96.8412 41.6163C96.3377 41.4592 95.8515 41.2727 95.3338 41.1656C95.1895 41.1358 94.8891 41.1303 94.7806 40.9916C94.6066 40.7693 94.8635 40.4029 95.0106 40.2519C95.6654 39.5797 96.3298 39.4252 97.2141 39.4252C98.1772 39.4252 99.1531 39.4747 100.114 39.3972C100.668 39.3525 101.22 39.2881 101.773 39.2387C102.366 39.1859 102.842 39.1976 103.402 38.9839C104.12 38.7095 104.852 38.4981 105.581 38.2535C106.047 38.0968 106.65 38.001 107.082 37.7624C107.473 37.546 107.814 37.1481 108.163 36.8704C108.514 36.5921 108.869 36.343 109.289 36.1805C109.47 36.1103 109.382 36.556 109.382 36.6311C109.382 37.3615 109.382 38.0919 109.382 38.8222C109.382 39.6302 109.405 40.442 109.376 41.2496C109.359 41.7111 109.27 42.1674 109.27 42.6295C109.27 42.9505 110.411 42.4773 110.488 42.4461C111.624 41.9869 112.509 41.15 113.459 40.4073C114.134 39.8802 114.86 39.415 115.504 38.8502C116.052 38.3706 116.48 37.8025 116.953 37.2558C117.198 36.9727 117.249 36.9234 117.114 37.3615C116.831 38.283 116.456 39.171 116.048 40.0437C115.779 40.6203 115.513 41.2042 115.125 41.7126C114.73 42.2302 114.364 42.8152 113.913 43.2853C113.667 43.5418 113.387 43.8165 113.077 43.9939C112.746 44.1833 112.334 44.1244 111.968 44.1244C111.702 44.1244 111.176 44.2417 111.004 44.0125" stroke="#92B18A" stroke-width="4" stroke-linecap="round"/>
<path d="M119.095 12.9211C118.988 12.9211 118.875 12.893 118.772 12.8369C117.415 12.0602 116.054 10.8858 114.725 9.3512C114.491 9.07983 114.519 8.67276 114.791 8.43416C115.062 8.2002 115.469 8.22829 115.708 8.49965C116.943 9.92667 118.192 11.0028 119.418 11.7093C119.727 11.8871 119.834 12.2848 119.657 12.5936C119.535 12.8041 119.32 12.9211 119.095 12.9211Z" fill="#CDDACE"/>
<path d="M113.238 12.3167C113.008 12.3167 112.784 12.195 112.667 11.9751C111.993 10.7212 111.268 9.29887 110.51 7.74084C110.351 7.41802 110.486 7.02967 110.809 6.87528C111.132 6.71618 111.52 6.85188 111.675 7.1747C112.423 8.71404 113.144 10.1223 113.808 11.3575C113.977 11.671 113.86 12.064 113.546 12.2371C113.448 12.2886 113.345 12.3167 113.238 12.3167Z" fill="#CDDACE"/>
<path d="M114.557 13.7766C114.407 13.7766 114.258 13.7252 114.136 13.6222L111.001 10.96C110.73 10.7261 110.692 10.319 110.926 10.0476C111.16 9.77628 111.567 9.74352 111.839 9.97279L114.973 12.635C115.245 12.8689 115.282 13.276 115.048 13.5474C114.922 13.6971 114.739 13.7766 114.552 13.7766H114.557Z" fill="#CDDACE"/>
<path d="M119.676 16.8692C119.498 16.8692 119.324 16.7991 119.194 16.654C119.128 16.5791 119.081 16.4996 119.053 16.4107C118.824 16.2095 118.043 15.6434 115.39 14.1181C115.081 13.9403 114.973 13.5426 115.151 13.2338C115.329 12.925 115.727 12.8174 116.035 12.9952C120.26 15.4188 120.293 15.7089 120.335 16.1066C120.359 16.3125 120.265 16.5604 120.111 16.7008C119.984 16.8131 119.83 16.8692 119.676 16.8692Z" fill="#CDDACE"/>
<path d="M116.045 21.0796C115.834 21.0796 115.628 20.9767 115.502 20.7895C115.305 20.4901 115.385 20.0877 115.685 19.8912C117.752 18.525 118.197 17.9495 118.29 17.7857C118.244 17.5004 118.398 17.2056 118.679 17.0886C119.006 16.9483 119.39 17.1027 119.53 17.4302C119.895 18.2817 119.076 19.2081 116.405 20.9767C116.293 21.0469 116.171 21.0843 116.049 21.0843L116.045 21.0796Z" fill="#CDDACE"/>
<path d="M120.003 20.3079C119.76 20.3079 119.53 20.1722 119.418 19.943C119.264 19.6201 119.399 19.2318 119.717 19.0774L122.029 17.9592C122.352 17.8048 122.74 17.9358 122.894 18.2586C123.049 18.5814 122.918 18.9698 122.595 19.1242L120.284 20.2424C120.195 20.2845 120.096 20.3079 120.003 20.3079Z" fill="#CDDACE"/>
<path d="M108.287 10.0012C108.133 10.0012 107.979 9.94501 107.852 9.83272L103.477 5.88383C103.211 5.64522 103.192 5.23348 103.431 4.96679C103.669 4.7001 104.081 4.68139 104.348 4.92001L108.722 8.8689C108.989 9.10751 109.008 9.51925 108.769 9.78594C108.643 9.92629 108.465 10.0012 108.287 10.0012Z" fill="#CDDACE"/>
<path d="M101.349 6.13633C101.208 6.13633 101.063 6.08956 100.942 5.9913C100.661 5.76673 100.619 5.35967 100.843 5.07894L102.083 3.53494C102.308 3.25422 102.715 3.21211 102.995 3.43201C103.276 3.65659 103.319 4.06364 103.098 4.34437L101.859 5.89304C101.732 6.05212 101.54 6.13633 101.353 6.13633H101.349Z" fill="#CDDACE"/>
<path d="M94.4195 8.02672C94.12 8.02672 93.8533 7.82085 93.7878 7.51204C93.713 7.16114 93.9376 6.81491 94.2838 6.74006L99.4819 5.62183C99.8328 5.54697 100.179 5.77154 100.254 6.11776C100.329 6.46869 100.104 6.81491 99.758 6.88977L94.5598 8.008C94.513 8.01736 94.4662 8.02204 94.4242 8.02204L94.4195 8.02672Z" fill="#CDDACE"/>
<path d="M95.491 8.97127C95.1962 8.97127 94.9295 8.76539 94.8593 8.46595C94.7798 8.11504 94.9997 7.76882 95.3506 7.68928L99.1451 6.82838C99.4913 6.74884 99.8422 6.96875 99.9218 7.31498C100.001 7.66588 99.7814 8.01211 99.4352 8.09164L95.636 8.95255C95.5892 8.96191 95.5378 8.96659 95.491 8.96659V8.97127Z" fill="#CDDACE"/>
<path d="M104.488 10.9459C104.418 10.9459 104.348 10.9365 104.282 10.9131L99.1637 9.196C98.8221 9.0837 98.6397 8.71408 98.7566 8.37721C98.8689 8.03565 99.2386 7.85317 99.5754 7.97015L104.694 9.68725C105.036 9.79955 105.218 10.1692 105.101 10.5107C105.012 10.7821 104.755 10.9505 104.488 10.9505V10.9459Z" fill="#CDDACE"/>
<path d="M106.149 13.0801C105.653 13.0801 105.138 12.9865 104.605 12.7993C104.268 12.6824 104.09 12.3127 104.208 11.9712C104.324 11.6343 104.694 11.4565 105.036 11.5735C106.21 11.9852 107.183 11.784 108.091 10.9372C108.353 10.6939 108.765 10.7079 109.008 10.9699C109.251 11.232 109.237 11.6437 108.975 11.887C108.119 12.6777 107.174 13.0754 106.149 13.0754V13.0801Z" fill="#CDDACE"/>
<path d="M112.872 17.6604C112.494 17.6604 112.241 17.6604 109.504 14.1326C109.284 13.8472 109.335 13.4402 109.621 13.2249C109.902 13.005 110.313 13.0565 110.528 13.3419C112.241 15.5503 112.849 16.1866 113.055 16.3691C113.144 16.3878 113.233 16.4299 113.308 16.4907C113.588 16.7106 113.635 17.1224 113.415 17.4031C113.294 17.5575 113.074 17.6651 112.872 17.6651V17.6604Z" fill="#CDDACE"/>
<path d="M113.322 24.5992C113.116 24.5992 112.919 24.5056 112.793 24.3232L109.822 20.1169C109.616 19.8269 109.686 19.4198 109.976 19.2139C110.267 19.0081 110.674 19.0782 110.879 19.3683L113.851 23.5746C114.056 23.8646 113.986 24.2717 113.696 24.4776C113.584 24.5571 113.453 24.5945 113.322 24.5945V24.5992Z" fill="#CDDACE"/>
<path d="M107.707 24.7715C107.679 24.7715 107.656 24.7715 107.628 24.7668L103.417 24.2521C103.061 24.21 102.808 23.8825 102.851 23.5316C102.893 23.176 103.225 22.928 103.571 22.9655L107.782 23.4801C108.138 23.5222 108.39 23.8451 108.348 24.2006C108.306 24.5282 108.03 24.7715 107.707 24.7715Z" fill="#CDDACE"/>
<path d="M101.845 22.1939C101.587 22.1939 101.339 22.0395 101.241 21.7821C101.11 21.4499 101.274 21.071 101.606 20.9399L105.981 19.2228C106.313 19.0918 106.692 19.2556 106.823 19.5925C106.954 19.9247 106.79 20.3036 106.453 20.4346L102.079 22.1518C101.999 22.1845 101.92 22.1985 101.84 22.1985L101.845 22.1939Z" fill="#CDDACE"/>
<path d="M99.3695 18.4181C99.1262 18.4181 98.897 18.2824 98.7847 18.0485C98.6303 17.7257 98.766 17.3373 99.0888 17.1829C100.244 16.6308 100.853 15.8729 100.951 14.8716C100.984 14.516 101.307 14.254 101.657 14.2868C102.013 14.3195 102.275 14.6377 102.242 14.9933C102.097 16.4671 101.227 17.5993 99.6456 18.3526C99.5567 18.3947 99.4584 18.4181 99.3648 18.4181H99.3695Z" fill="#CDDACE"/>
<path d="M101.765 14.3807C101.62 14.3807 101.475 14.334 101.353 14.2357L98.2186 11.6577C97.9426 11.4284 97.9005 11.0214 98.1297 10.7453C98.359 10.4693 98.766 10.4272 99.0421 10.6564L102.177 13.2344C102.453 13.4637 102.495 13.8708 102.266 14.1468C102.139 14.3012 101.952 14.3854 101.765 14.3854V14.3807Z" fill="#CDDACE"/>
<path d="M97.0583 12.747C96.8805 12.747 96.7027 12.6722 96.5717 12.5318C96.3237 12.2511 95.2523 11.1937 93.3854 9.39235C93.1281 9.14438 93.1234 8.73264 93.3714 8.47531C93.6193 8.21798 94.0311 8.20862 94.2884 8.46127C96.8384 10.927 97.3671 11.4744 97.5402 11.6709C97.7788 11.9376 97.7554 12.3493 97.4887 12.588C97.3671 12.6956 97.2127 12.7517 97.0583 12.7517V12.747Z" fill="#CDDACE"/>
<path d="M91.2003 9.3972C90.9945 9.3972 90.7886 9.29895 90.6623 9.11179C90.4611 8.81703 90.536 8.40999 90.8307 8.20879C94.6907 5.5793 94.8966 5.54657 95.3364 6.11268C95.5563 6.39341 95.5095 6.80047 95.2288 7.02507C95.1212 7.10928 94.9948 7.15606 94.8685 7.16074C94.658 7.25899 93.9374 7.66138 91.5606 9.28023C91.4483 9.35508 91.322 9.39252 91.1957 9.39252L91.2003 9.3972Z" fill="#CDDACE"/>
<path d="M84.8467 10.8569C84.6876 10.8569 84.5239 10.796 84.4022 10.6791C84.1402 10.4311 84.1309 10.024 84.3788 9.76202C84.959 9.15379 86.7182 7.29163 88.3745 8.17594C88.6927 8.34437 88.8096 8.73737 88.6412 9.05554C88.4728 9.36902 88.0798 9.49066 87.7616 9.32222C87.0785 8.95728 85.9369 10.0007 85.3193 10.6557C85.1929 10.7914 85.0198 10.8569 84.8467 10.8569Z" fill="#CDDACE"/>
<path d="M80.9633 18.4177C80.8323 18.4177 80.6966 18.3756 80.5843 18.2914C80.2942 18.0808 80.2287 17.6738 80.4393 17.3837L82.7506 14.2068C82.9611 13.9167 83.3682 13.8512 83.6583 14.0618C83.9483 14.2723 84.0138 14.6794 83.8033 14.9694L81.492 18.1463C81.3656 18.3195 81.1692 18.413 80.968 18.413L80.9633 18.4177Z" fill="#CDDACE"/>
<path d="M86.7416 13.0054C86.531 13.0054 86.3298 12.9071 86.2035 12.72C86.0023 12.4252 86.0819 12.0182 86.3813 11.8217L89.1886 9.93141C89.488 9.73025 89.8904 9.80978 90.0869 10.1092C90.2881 10.404 90.2086 10.811 89.9091 11.0075L87.1019 12.8978C86.9896 12.9726 86.8632 13.0101 86.7416 13.0101V13.0054Z" fill="#CDDACE"/>
<path d="M91.4532 19.2748C91.3456 19.2748 91.2379 19.2468 91.135 19.1953C90.6063 18.9052 89.9372 18.0163 88.5944 13.4872C88.4915 13.1456 88.688 12.7807 89.0342 12.6824C89.3758 12.5795 89.736 12.776 89.839 13.1222C91.1023 17.394 91.6731 17.9929 91.7713 18.0724C92.0848 18.2455 92.1924 18.6338 92.0193 18.9473C91.9023 19.1625 91.6777 19.2795 91.4485 19.2795L91.4532 19.2748Z" fill="#CDDACE"/>
<path d="M95.9026 16.0136C95.7997 16.0136 95.6967 15.9902 95.5985 15.9387C92.6368 14.3573 91.4016 13.225 91.4578 12.1536C91.4765 11.8027 91.7712 11.5547 92.1268 11.5547C92.4777 11.564 92.7585 11.8729 92.7538 12.2238C92.7538 12.2518 92.7865 12.9677 96.2114 14.7924C96.5296 14.9608 96.6465 15.3539 96.4781 15.672C96.3611 15.8919 96.1365 16.0136 95.9073 16.0136H95.9026Z" fill="#CDDACE"/>
<path d="M93.0159 18.8485C92.7164 18.8485 92.445 18.6379 92.3842 18.3338C92.3093 17.9829 92.5339 17.6413 92.8848 17.5665L96.5156 16.7945C96.8665 16.7196 97.2127 16.9442 97.2876 17.2951C97.3624 17.646 97.1379 17.9876 96.787 18.0671L93.1562 18.8391C93.1094 18.8485 93.0673 18.8531 93.0205 18.8531L93.0159 18.8485Z" fill="#CDDACE"/>
<path d="M86.7416 22.6239C86.4375 22.6239 86.1615 22.4041 86.1053 22.0952C86.0398 21.7443 86.2737 21.4028 86.6247 21.3373C90.7373 20.57 91.9444 19.8354 92.3 19.4658C92.548 19.2084 92.9597 19.1991 93.217 19.4471C93.4744 19.695 93.4837 20.1068 93.2358 20.3641C92.3936 21.2437 90.3677 21.9596 86.8586 22.6146C86.8165 22.6239 86.779 22.6239 86.7369 22.6239H86.7416Z" fill="#CDDACE"/>
<path d="M91.8413 24.4668C91.584 24.4668 91.3173 24.4527 91.0413 24.42C90.6857 24.3825 90.4284 24.0597 90.4705 23.7041C90.5079 23.3486 90.8307 23.0865 91.1863 23.1333C93.0625 23.3392 94.2649 22.745 94.9902 21.2618C95.1446 20.939 95.5329 20.8033 95.8557 20.9624C96.1786 21.1168 96.3096 21.5051 96.1552 21.8279C95.3083 23.5638 93.8251 24.4668 91.8413 24.4668Z" fill="#CDDACE"/>
<path d="M99.1263 23.91C98.9345 23.91 98.7426 23.8258 98.6116 23.6573L96.5483 20.9951C96.3284 20.7097 96.3799 20.3026 96.6653 20.0874C96.946 19.8675 97.353 19.919 97.5729 20.2044L99.6363 22.8666C99.8562 23.1473 99.8047 23.5591 99.524 23.779C99.407 23.8726 99.2667 23.9147 99.1263 23.9147V23.91Z" fill="#CDDACE"/>
<path d="M85.0899 23.6535C85.0057 23.6535 84.9168 23.6348 84.8325 23.602L81.4498 22.1423C81.1223 22.0019 80.9679 21.6182 81.1129 21.2907C81.2533 20.9632 81.6369 20.8088 81.9645 20.9538L85.3472 22.4136C85.6747 22.554 85.8291 22.9377 85.6888 23.2652C85.5812 23.5085 85.3425 23.6582 85.0946 23.6582L85.0899 23.6535Z" fill="#CDDACE"/>
<path d="M83.8548 20.9073C83.56 20.9073 83.298 20.7061 83.2232 20.4113C83.1389 20.0651 83.3542 19.7142 83.7004 19.63C85.6795 19.1527 86.9615 18.4649 87.406 17.6321C87.5744 17.3186 87.9675 17.197 88.2856 17.3701C88.5991 17.5385 88.7207 17.9316 88.5476 18.2497C87.9019 19.4475 86.4188 20.313 83.9998 20.8932C83.9484 20.9073 83.8969 20.9119 83.8501 20.9119L83.8548 20.9073Z" fill="#CDDACE"/>
<path d="M84.8887 17.5064C84.4396 17.5064 83.967 17.3894 83.4804 17.1461C83.1576 16.987 83.0266 16.5987 83.1857 16.2758C83.3447 15.9577 83.7331 15.822 84.0559 15.9811C84.8466 16.3694 85.3987 16.2665 85.9087 15.6395C86.1333 15.3588 86.5403 15.3167 86.8211 15.5413C87.0971 15.7659 87.1439 16.1776 86.9146 16.4536C86.3532 17.1461 85.6561 17.5017 84.8887 17.5017V17.5064Z" fill="#CDDACE"/>
<path d="M107.871 18.1608C107.745 18.1608 107.623 18.1234 107.511 18.0532L104.044 15.7326C103.744 15.5314 103.665 15.129 103.866 14.8342C104.067 14.5348 104.465 14.4553 104.764 14.6564L108.231 16.9771C108.531 17.1783 108.61 17.5807 108.409 17.8754C108.283 18.0626 108.077 18.1608 107.871 18.1608Z" fill="#CDDACE"/>
<path d="M82.2078 26.3718C81.9084 26.3718 81.637 26.2969 81.3937 26.1519C80.9212 25.8711 80.6358 25.3611 80.5282 24.6032C79.5316 24.7061 78.535 24.6406 78.1654 23.9154C77.7864 23.1762 78.2449 22.2544 79.686 20.8274C79.9386 20.5747 80.3504 20.5794 80.603 20.8321C80.8557 21.0847 80.851 21.4965 80.5983 21.7491C79.6766 22.6615 79.4333 23.12 79.3678 23.2978C79.5363 23.3446 79.9854 23.396 81.0288 23.2229L81.7821 23.0966V23.8592C81.7821 24.6032 81.9318 24.9541 82.0628 25.029C82.1845 25.0991 82.5354 25.071 83.1389 24.7435C83.4524 24.5751 83.8501 24.6921 84.0185 25.0055C84.187 25.319 84.07 25.712 83.7565 25.8851C83.1717 26.2033 82.6617 26.3577 82.2172 26.3577L82.2078 26.3718Z" fill="#284134"/>
<path d="M101.204 50.2383C99.9264 50.2383 98.5883 50.1915 97.18 50.1027C93.5399 50.0511 90.3723 49.1621 87.799 47.4543C86.007 47.4168 83.3916 43.9078 78.0204 22.8159C77.9315 22.4697 78.142 22.1141 78.4882 22.0252C78.8345 21.9363 79.1901 22.1468 79.279 22.4931C85.1181 45.4332 87.4575 46.2286 87.8598 46.1489C88.0283 46.1208 88.2014 46.1537 88.3417 46.2519C90.7326 47.8942 93.7224 48.7503 97.2268 48.7971C109.392 49.5927 116.302 46.9255 117.799 40.8761C117.804 40.848 117.813 40.8199 117.823 40.7964C122.141 29.7874 123.535 24.3973 123.807 21.7725C123.231 22.3854 122.268 22.61 120.864 22.4556C120.766 23.2931 120.448 23.9061 119.9 24.2804C119.119 24.8184 117.982 24.8091 116.429 24.2429C115.848 25.291 115.142 25.9226 114.328 26.1285C113.593 26.3156 112.802 26.1472 111.974 25.6325C110.982 26.5402 110.07 26.9239 109.209 26.8069C108.592 26.7227 108.044 26.3811 107.576 25.7916C106.177 27.0175 104.947 27.5789 103.838 27.4995C103.234 27.4572 102.692 27.228 102.21 26.8116C101.756 27.27 101.227 27.5508 100.624 27.649C99.5428 27.8268 98.3029 27.4059 96.8525 26.3718C96.3752 27.1251 95.795 27.5602 95.1213 27.6631C94.2604 27.7942 93.348 27.3917 92.3515 26.4232C91.6964 27.0269 90.9993 27.3355 90.2694 27.3355H90.2647C89.3383 27.3355 88.4307 26.8584 87.5043 25.8852C86.6574 26.5589 85.8948 26.8022 85.1836 26.6338C84.3788 26.4419 83.7519 25.7261 83.3214 24.5002C83.2044 24.1634 83.3822 23.7938 83.7191 23.6721C84.056 23.5551 84.4256 23.7283 84.5473 24.0698C84.814 24.8278 85.1461 25.291 85.4877 25.3705C85.862 25.4594 86.4422 25.1506 87.1159 24.5049C87.2469 24.3786 87.42 24.3131 87.6025 24.3271C87.785 24.3365 87.9487 24.4207 88.0657 24.5611C88.8751 25.5436 89.6144 26.0396 90.2694 26.0443C90.7841 26.0443 91.3175 25.7167 91.8508 25.0757C91.9725 24.9307 92.1503 24.8465 92.3374 24.8418C92.5339 24.8418 92.7071 24.9167 92.8334 25.057C93.6756 25.9975 94.4195 26.4653 94.9248 26.3905C95.4254 26.3109 95.8091 25.6653 96.0477 25.1412C96.1319 24.9588 96.291 24.8231 96.4875 24.7763C96.684 24.7295 96.8899 24.7763 97.0443 24.8979C98.4292 25.9975 99.5942 26.5075 100.418 26.3764C100.89 26.3016 101.288 26.0068 101.625 25.4828C101.737 25.305 101.934 25.1974 102.144 25.188C102.359 25.1834 102.556 25.2723 102.682 25.4407C103.056 25.9273 103.464 26.1799 103.932 26.2127C104.778 26.2735 105.925 25.6278 107.244 24.3365C107.389 24.1961 107.59 24.1306 107.791 24.1587C107.993 24.1868 108.166 24.3084 108.264 24.4862C108.61 25.1225 108.989 25.4688 109.387 25.5249C109.911 25.5951 110.622 25.188 111.441 24.3459C111.67 24.1119 112.035 24.0838 112.297 24.2804C112.966 24.7903 113.542 24.9868 114.01 24.8699C114.557 24.7342 115.067 24.154 115.525 23.1528C115.67 22.8346 116.045 22.6896 116.368 22.8253C118.183 23.5879 118.899 23.3961 119.166 23.2089C119.554 22.9422 119.615 22.2544 119.596 21.7258C119.591 21.5292 119.671 21.3421 119.82 21.2111C119.97 21.0847 120.167 21.0286 120.359 21.0614C121.655 21.2953 122.572 21.2204 122.885 20.8508C123.138 20.5514 123.096 19.8917 122.773 19.0027C122.698 18.8015 122.731 18.5722 122.857 18.3991C122.983 18.226 123.194 18.1324 123.409 18.1324C123.957 18.1558 124.401 18.4085 124.701 18.867C125.533 20.1443 125.856 23.8499 119.049 41.2176C117.542 47.2018 111.544 50.2195 101.199 50.2195L101.204 50.2383Z" fill="#284134"/>
<path d="M87.4341 46.249C87.3077 46.249 87.1767 46.2209 87.0551 46.1602C86.4609 45.87 85.3567 45.3367 78.5304 24.4085C78.4181 24.067 78.6052 23.702 78.9468 23.5898C79.2883 23.4775 79.6533 23.6646 79.7655 24.0062C79.8732 24.3337 79.9761 24.6565 80.079 24.97C79.8919 23.8751 79.92 23.3277 80.0088 23.0049C80.1024 22.6587 80.458 22.4575 80.8042 22.5511C81.1505 22.6446 81.3517 23.0049 81.2581 23.3464C81.0429 24.1372 81.6417 28.0486 88.0891 45.3648C88.1499 45.5285 88.1406 45.7063 88.0704 45.8606C88.0002 46.0198 87.8645 46.1369 87.7054 46.1976C87.6165 46.2302 87.523 46.2444 87.4341 46.2444V46.249Z" fill="#284134"/>
<path d="M88.6412 46.9265C88.3838 46.9265 88.1359 46.7674 88.0376 46.5146C85.628 40.3106 83.6442 33.1661 82.147 25.273C82.0815 24.9221 82.3108 24.5806 82.6617 24.5151C83.0173 24.4496 83.3542 24.6788 83.4197 25.0298C84.9028 32.8433 86.8632 39.913 89.2447 46.0421C89.3757 46.3742 89.2073 46.7532 88.8751 46.8797C88.7956 46.9078 88.716 46.9217 88.6412 46.9217V46.9265Z" fill="#284134"/>
<path d="M89.7125 47.8711C89.399 47.8711 89.1277 47.6467 89.0715 47.3285L85.6046 26.6295C85.5437 26.2786 85.7824 25.9418 86.1379 25.881C86.4888 25.8248 86.8257 26.0588 86.8865 26.4143L90.3535 47.1132C90.4143 47.4641 90.1757 47.801 89.8201 47.8617C89.7827 47.8665 89.75 47.8711 89.7125 47.8711Z" fill="#284134"/>
<path d="M92.024 48.1291C91.7012 48.1291 91.4204 47.8857 91.383 47.5581C90.6999 41.7753 90.3396 35.0191 90.3069 27.4769C90.3069 27.1166 90.5923 26.8265 90.9526 26.8265C91.3081 26.8265 91.5982 27.1166 91.6029 27.4723C91.6357 34.9677 91.9959 41.6769 92.6697 47.4084C92.7118 47.7641 92.4591 48.0869 92.1035 48.1291C92.0801 48.1291 92.0521 48.1291 92.0287 48.1291H92.024Z" fill="#284134"/>
<path d="M95.4908 48.7272C95.1305 48.7272 94.8405 48.4373 94.8405 48.077V27.1207C94.8405 26.7604 95.1305 26.4703 95.4908 26.4703C95.8511 26.4703 96.1411 26.7604 96.1411 27.1207V48.077C96.1411 48.4373 95.8511 48.7272 95.4908 48.7272Z" fill="#284134"/>
<path d="M101.204 48.5681C101.115 48.5681 101.026 48.5542 100.951 48.5213C100.352 48.264 99.9218 48.0768 99.9592 27.7241C99.9592 27.3687 100.249 27.0785 100.61 27.0785C100.97 27.0785 101.255 27.3687 101.255 27.7289C101.227 42.6588 101.494 46.5375 101.686 47.4173C101.704 47.4312 101.718 47.4454 101.732 47.4641C101.98 47.7259 101.966 48.133 101.709 48.3811C101.583 48.5026 101.386 48.5729 101.199 48.5729L101.204 48.5681Z" fill="#284134"/>
<path d="M104.736 47.7816C104.395 47.7816 104.109 47.515 104.091 47.1687L103.099 27.8453C103.08 27.4899 103.356 27.181 103.712 27.1623C104.072 27.1483 104.376 27.4195 104.395 27.7752L105.387 47.0986C105.405 47.454 105.129 47.7629 104.774 47.7816C104.764 47.7816 104.75 47.7816 104.741 47.7816H104.736Z" fill="#284134"/>
<path d="M101.508 48.7421C97.2689 48.7421 92.4263 48.073 86.999 46.7347L87.3078 45.4762C102.065 49.1162 112.26 47.7173 117.607 41.3122L118.604 42.145C114.931 46.543 109.209 48.7466 101.508 48.7466V48.7421Z" fill="#284134"/>
<path d="M107.459 47.8711C107.099 47.8711 106.814 47.5764 106.814 47.2207L106.898 25.2351C106.898 24.8795 107.188 24.5895 107.548 24.5895C107.909 24.5895 108.194 24.8842 108.194 25.2398L108.11 47.2253C108.11 47.581 107.819 47.8711 107.459 47.8711Z" fill="#284134"/>
<path d="M110.678 47.1845C110.678 47.1845 110.664 47.1845 110.655 47.1845C110.299 47.1706 110.018 46.871 110.028 46.5156L110.772 25.6435C110.786 25.2879 111.081 25.0025 111.441 25.0165C111.796 25.0306 112.077 25.33 112.068 25.6856L111.324 46.5576C111.31 46.9085 111.024 47.1845 110.678 47.1845Z" fill="#284134"/>
<path d="M113.57 46.0642C113.546 46.0642 113.523 46.0642 113.5 46.0642C113.144 46.0267 112.887 45.7087 112.924 45.3482C112.924 45.3482 113.663 38.447 115.151 24.6494C115.188 24.2938 115.511 24.0365 115.867 24.0739C116.223 24.1114 116.48 24.4342 116.442 24.7898C114.955 38.5874 114.215 45.4886 114.215 45.4886C114.178 45.8208 113.897 46.069 113.57 46.069V46.0642Z" fill="#284134"/>
<path d="M115.881 45.3771C115.843 45.3771 115.811 45.3771 115.773 45.3677C115.418 45.307 115.184 44.9748 115.24 44.6191L118.623 24.3507C118.684 23.9951 119.016 23.7612 119.371 23.8173C119.727 23.8781 119.961 24.2103 119.905 24.5659L116.522 44.8344C116.471 45.1527 116.194 45.3771 115.881 45.3771Z" fill="#284134"/>
<path d="M120.847 22.6164L117.136 41.5992L118.408 41.8478L122.119 22.865L120.847 22.6164Z" fill="#284134"/>
<path d="M119.923 36.6192C119.853 36.6192 119.779 36.605 119.708 36.5818C119.371 36.4646 119.194 36.095 119.311 35.7535C122.37 26.9996 122.483 23.687 122.034 22.4471C121.912 22.1102 122.085 21.7406 122.422 21.619C122.759 21.4973 123.128 21.6704 123.25 22.0073C124.013 24.1268 123.124 28.7587 120.527 36.1793C120.433 36.4459 120.181 36.6144 119.914 36.6144L119.923 36.6192Z" fill="#284134"/>
</g>
<defs>
<clipPath id="clip0_36_2">
<rect width="48" height="48" fill="white" transform="translate(78 3)"/>
</clipPath>
</defs>
</svg>
