<svg width="48" height="48" viewBox="0 0 48 48" fill="none" xmlns="http://www.w3.org/2000/svg">
<g clip-path="url(#clip0_26_52)">
<path d="M1.89569 20.222C1.89569 18.6549 4.01843 17.2113 5 16C5.8747 14.9206 6.78388 13.6913 7.40282 12.4534C8.00509 11.2488 8.0604 10.9396 9 10C8.5 7.74109 11.4051 8.67837 12.6639 7.54238C14.0662 6.27696 16.9143 6.16146 18.682 5.66882C21.3344 4.92962 23.2701 4 26 4C28 5.5 29.9041 4.98732 31.3806 5.74451C32.0017 6.06303 32.4984 6.63012 33.0649 7.03141C33.8603 7.59482 34.7344 7.98939 35.5819 8.46023C36.4053 8.91764 36.9654 9.69587 37.7678 10.1729C38.5845 10.6585 39.3935 11.1726 40.1807 11.7058C41.0177 12.2729 41.1512 13.1471 41.5811 13.9958C42.0842 14.9886 42.9351 15.853 43.2749 16.9291C43.5528 17.8091 44.3712 18.2621 44.6375 19.1055C44.8159 19.6705 44.8173 20.2045 44.8173 20.7898C44.8173 21.9704 44.8225 22.859 44.1454 23.8745C43.3687 25.0396 42.6991 26.5247 42 27.773C40.8383 29.8475 39.5991 29.6968 38.9411 32C38.7287 32.7434 39.1841 35.5791 38.9411 36.3082C38.7106 36.9998 38.8528 37.7843 38.6099 38.4845C37.7006 41.1054 35.7358 42.6882 33.0839 43.3861C31.6472 43.7641 30.199 43.8778 28.7501 44.1998C28.2453 44.312 27.6943 44.3981 27.1793 44.408C26.2427 44.426 25.4658 44 24.5 44C20.6393 44 16.5 44.408 13.5 43.3861C13.5 41.8531 11.519 41.6291 10.885 43.9916C11.519 41.5 12.0455 40.3151 11.519 39.5254C11.0742 38.8582 8.21742 40.2628 7.91379 39.5254C7.43089 38.3526 7.16582 37.2305 6.83508 36.0243C6.22944 33.8155 5.2113 31.751 4.54517 29.5709C4.27866 28.6987 3.98204 27.7209 3.8071 26.8268C3.59272 25.7311 3.89484 24.5363 3.26774 23.5433C2.89576 22.9544 3.07451 21.9537 3.09742 21.3007C3.11927 20.6781 3.02977 19.6291 3.29613 19.0298C3.6889 18.146 4.46536 17.1493 5.05614 16.3897C5.76029 15.4844 6.53003 14.3979 7.40282 13.6551C8.66971 12.5769 10.027 11.9868 11.519 11.28C12.0559 11.0257 12.2554 10.5436 12.6639 10.1351C13.9806 8.81842 15.5955 7.74453 17.4235 7.30582C18.3199 7.09068 19.4385 7.27743 20.3569 7.27743C21.5018 7.27743 23.855 6.5 25 6.5C26.5767 6.5 27.5934 6.80304 28.9393 7.74109C29.6616 8.24451 30.6162 9.10011 31.532 9.15099C32.1816 9.18708 33.038 10.6835 33.557 11.0813C34.2664 11.6252 35.1175 11.9384 35.8563 12.4534C36.4656 12.878 36.8262 13.4871 37.4555 13.8822C39.0345 14.8737 39.8643 16.4727 41.0607 17.8186C41.0694 17.8284 41.4797 18.2646 41.5243 18.1308C41.6115 17.8693 39.6679 16.2542 39.6035 16.191C37.9514 14.5723 36.278 12.2744 34.314 11.0245C33.0675 10.2313 31.4594 10.1273 30.3397 9.13206C29.7662 8.6222 29.3145 8.27997 28.5608 8.06281C27.8895 7.86939 27.5368 7.79731 27.1036 7.27743" stroke="#588157" stroke-width="3" stroke-linecap="round"/>
<path d="M16.0326 19.8814C17.4308 20.0212 17.4366 21.8419 17.5655 22.9377C17.7625 24.6121 18.4836 26.1207 19.1836 27.6311C19.2294 27.73 20.2875 29.4068 20.2623 29.4952C20.1943 29.7332 18.6871 29.5898 18.5212 29.5898C17.4614 29.5898 17.5476 26.1979 17.3195 25.3696C17.0695 24.4619 16.504 24.4494 15.9758 23.8367C15.6265 23.4315 15.7575 21.7842 15.9379 21.2629C16.2581 20.338 17.2353 19.4218 18.0386 18.8594C20.9902 16.7934 26.0101 16.5737 28.6365 19.2001C29.5482 20.1118 30.4565 20.9962 31.1914 22.0577C31.6865 22.7729 31.7024 22.0814 31.7024 21.5846C31.7024 21.1929 30.6121 22.7545 30.3398 23.1175" stroke="#588157" stroke-width="23" stroke-linecap="round"/>
<path d="M21.6533 39.9796C22.8522 39.9796 24.011 40.1499 25.2111 40.1499C26.8907 40.1499 28.0646 39.4712 29.4881 38.617" stroke="#588157" stroke-width="15" stroke-linecap="round"/>
<path d="M15.181 39.128C14.7378 39.5219 13.8377 40.0622 13.2506 40.1404C12.1484 40.2874 12.4558 38.6516 12.4558 37.8695C12.4558 36.9245 12.0557 36.0406 11.8123 35.1159C11.5546 34.1363 11.6042 33.1629 11.6042 32.1447" stroke="#588157" stroke-width="10" stroke-linecap="round"/>
<path d="M35.6198 36.5731C36.3533 36.5731 35.7042 36.2607 36 35.5C36.2731 34.7977 37 34.2579 37 33.5C37 32.5439 37.3784 30.9962 37.7867 30.1481C38.2077 29.2738 37.2966 28.4716 37.5 27.5C37.7329 26.3871 39.5183 25.5212 39.8779 24.4423C40.3635 22.9855 40.7411 21.4821 41.5811 20.222" stroke="#588157" stroke-width="10" stroke-linecap="round"/>
<path d="M38.1747 27.3756C38.974 27.4986 39.0902 29.548 39.5 28C39.7456 27.0723 40.3889 25.7851 40.3889 24.8208" stroke="#588157" stroke-width="10" stroke-linecap="round"/>
<path d="M3.29828 23.5582C3.80276 23.624 4.2085 24.0232 4.69686 24.1177C4.90718 24.1584 5.11468 24.2087 5.32467 24.2544C5.65391 24.3262 6.02337 24.2759 6.34097 24.3725C6.50217 24.4216 6.63873 24.5034 6.79162 24.559C7.03547 24.6477 7.43937 24.5652 7.6805 24.5652C9.62941 24.5652 11.5098 25.2365 13.4675 25.2365C14.1078 25.2365 14.7152 25.3332 15.3478 25.3453C16.272 25.3631 17.1938 25.3691 18.117 25.4168C19.4286 25.4846 20.729 25.5163 22.0455 25.5163C24.7349 25.5163 27.4533 25.6102 30.1075 25.1526C30.701 25.0503 31.2476 24.914 31.8573 24.8978C32.274 24.8867 32.6336 24.7895 33.029 24.6709C33.3844 24.5643 33.763 24.6325 34.123 24.5217C34.46 24.418 34.8046 24.4174 35.1486 24.3166C35.8244 24.1185 36.5249 24.2526 37.1874 24.0058C37.574 23.8618 38.0355 23.9915 38.3871 23.7572C38.6307 23.5948 38.8813 23.5358 39.1703 23.4774C39.7536 23.3597 40.1844 23.2516 40.7274 22.9988C40.9294 22.9048 41.3596 22.7971 41.5075 22.5948C41.6246 22.4346 41.739 22.361 41.9364 22.2964C42.2962 22.1787 42.6458 22.0568 42.9931 21.9079C43.286 21.7824 43.4421 21.5235 43.7079 21.364C43.8769 21.2627 43.9082 21.1648 44.0498 21.0532C44.2446 20.8998 44.326 20.7483 44.4942 20.5435C44.5493 20.4765 44.6218 20.3306 44.6962 20.2825C44.754 20.2451 44.7377 20.8355 44.7273 20.8916C44.6165 21.4942 44.5438 22.1088 44.3295 22.688C44.2386 22.9336 44.0749 23.1374 44.0063 23.3935C43.9117 23.7466 43.8273 24.0958 43.7235 24.4471C43.6235 24.7855 43.5807 25.1322 43.4593 25.4665C43.2852 25.9458 43.033 26.3699 42.7942 26.8154C42.5547 27.2619 42.4441 27.7871 42.2379 28.2513C41.6653 29.5395 41.4783 30.9826 40.8486 32.2419C40.5858 32.7674 40.38 33.322 40.1711 33.8704C39.9328 34.496 39.6625 35.0273 39.335 35.6047C39.1573 35.918 39.0083 36.2436 38.8409 36.5619C38.6122 36.9966 38.2828 37.3609 38.039 37.7865C37.5213 38.6903 36.9199 39.5213 36.3825 40.4065C36.1537 40.7833 35.866 41.2159 35.4905 41.4663C34.8058 41.9227 33.9438 41.9773 33.2061 42.2992C32.4988 42.6079 31.7277 42.7783 30.9871 42.9923C30.476 43.1399 30.0093 43.3635 29.4797 43.474C28.9973 43.5747 28.548 43.8154 28.0531 43.8625C27.6517 43.9008 27.3098 44.1552 26.9187 44.2448C26.2057 44.4082 25.472 44.3691 24.7463 44.3691C22.8435 44.3691 20.9059 44.4827 19.009 44.3411C18.4281 44.2978 17.858 44.2572 17.2748 44.2572C16.9402 44.2572 16.6614 44.1069 16.3393 44.0335C15.4845 43.8387 14.807 43.2683 14.0829 42.7778C13.8419 42.6146 13.5685 42.3969 13.3556 42.206C13.06 41.9409 12.684 41.9005 12.3393 41.718C12.0332 41.5559 11.876 41.6468 11.6711 41.2798C11.1919 40.4216 11.0137 39.4703 10.7387 38.5355C10.5838 38.0086 10.5103 37.423 10.1979 36.9597C9.94904 36.5906 9.65778 36.2929 9.52973 35.8595C9.28211 35.0214 8.89816 34.272 8.55072 33.4788C8.29425 32.8933 8.08041 32.3155 7.77684 31.7539C7.63815 31.4973 7.48025 31.2587 7.32619 31.0111C7.04306 30.5561 6.9626 30.0224 6.67973 29.569C6.46593 29.2263 6.25472 28.8946 6.0395 28.5496C5.8575 28.2579 5.5998 28.0563 5.4148 27.7695C5.35069 27.6702 4.82979 26.7172 4.84604 26.7159C5.17907 26.6893 5.56878 26.9074 5.89031 26.9739C6.34627 27.0682 6.76858 27.4942 7.17701 27.7043C7.9321 28.0926 8.94981 28.3627 9.80634 28.3694C12.0976 28.3872 14.3898 28.3694 16.6811 28.3694C20.8582 28.3694 25.0353 28.3694 29.2124 28.3694C30.7571 28.3694 32.2271 28.4872 33.7065 28.0088C34.2758 27.8248 34.8877 27.7532 35.447 27.5551C35.8203 27.4229 36.1807 27.2927 36.5689 27.2008C37.2379 27.0423 37.845 26.7244 38.5176 26.5667C38.8817 26.4814 39.1815 26.2153 39.4749 26.0197C39.6141 25.927 40.2578 25.449 40.4104 25.5846C40.5639 25.7211 40.2189 26.4257 40.1648 26.5481C39.8349 27.2952 39.2605 27.9579 38.8222 28.6429C38.5135 29.1253 38.2085 29.603 37.8587 30.057C37.5628 30.441 37.3814 30.885 37.1408 31.3033C36.6503 32.1558 36.1523 33.0032 35.6583 33.8518C35.2503 34.5525 34.9514 35.3014 34.5767 36.0274C34.38 36.4086 34.2334 36.8158 34.0453 37.2022C33.8831 37.5353 33.8572 37.8527 33.75 38.1936C33.5303 38.8928 32.9984 39.7949 32.5317 40.3599C32.2199 40.7372 31.7385 40.9265 31.2668 41.0094C29.5899 41.3043 27.8827 41.5968 26.1915 41.7957C25.7018 41.8533 25.2157 41.9759 24.7245 42.0102C24.194 42.0472 23.6667 42.0465 23.1364 42.1003C21.8479 42.231 20.5406 42.1873 19.2483 42.1873C17.4622 42.1873 15.778 41.9234 14.2165 41.0125C13.5295 40.6117 12.7182 40.1011 12.4605 39.2969C12.1533 38.3379 11.9458 37.35 11.6307 36.3972C11.3229 35.4664 11.1863 34.5303 11.1863 33.5503C11.1863 32.9895 11.2174 32.4427 11.0744 31.9062C11.0616 31.8583 11.0995 31.8285 11.1428 31.813C11.6757 31.6223 12.353 31.5917 12.8988 31.5395C14.3981 31.396 15.898 31.3903 17.4022 31.3903C19.1927 31.3903 20.9811 31.2841 22.7727 31.2784C23.9776 31.2745 25.1481 31.085 26.3469 31.0111C28.3837 30.8856 30.3912 30.9164 32.4198 30.6102C33.0365 30.5171 33.6664 30.3677 34.2908 30.3274C34.3816 30.3215 34.465 30.3148 34.4897 30.4268C34.9312 32.4266 33.3502 33.8185 32.0935 35.1043C31.3162 35.8995 30.5658 36.6749 29.66 37.3265C29.1641 37.6832 28.7223 38.0801 28.2583 38.4764C27.3994 39.2101 26.4056 39.9645 25.4207 40.5215C24.7914 40.8773 24.1166 41.1386 23.3881 41.0591C22.8227 40.9975 22.2794 40.7578 21.7409 40.5898C20.9279 40.3363 20.0956 40.1785 19.2607 40.018C18.3704 39.8468 17.4532 39.7943 16.5692 39.6015C16.3779 39.5598 16.2374 39.4317 16.0564 39.3653C15.456 39.1452 14.7819 38.7303 14.3408 38.2713C14.1149 38.0363 14.0761 37.6869 14.0518 37.3762C14.0048 36.7751 14.0117 36.1345 14.0767 35.5363C14.1377 34.9744 14.267 34.3908 14.4776 33.8642C14.6132 33.5252 16.1671 33.8093 16.3921 33.8238C18.3221 33.9481 20.2838 33.9877 22.2102 33.7865C24.0292 33.5966 25.8504 33.1805 27.6833 33.1805C28.1183 33.1805 28.5428 33.2013 28.9234 33.4478C29.881 34.0679 29.0315 35.2221 28.5256 35.8471C27.2404 37.4347 25.3155 38.7889 23.3197 39.3031C22.413 39.5368 21.2907 39.5358 20.3982 39.2845C19.8549 39.1315 19.3862 38.7863 18.8412 38.6163C18.3377 38.4592 17.8515 38.2727 17.3338 38.1656C17.1895 38.1358 16.8891 38.1303 16.7806 37.9916C16.6066 37.7693 16.8635 37.4029 17.0106 37.2519C17.6654 36.5797 18.3298 36.4252 19.2141 36.4252C20.1772 36.4252 21.1531 36.4747 22.1138 36.3972C22.6683 36.3525 23.2196 36.2881 23.7735 36.2387C24.3659 36.1859 24.8421 36.1976 25.4021 35.9839C26.1205 35.7095 26.8525 35.4981 27.5807 35.2535C28.0471 35.0968 28.6502 35.001 29.0819 34.7624C29.4735 34.546 29.8139 34.1481 30.1634 33.8704C30.5138 33.5921 30.8694 33.343 31.2885 33.1805C31.4696 33.1103 31.3818 33.556 31.3818 33.6311C31.3818 34.3615 31.3818 35.0919 31.3818 35.8222C31.3818 36.6302 31.4049 37.442 31.3755 38.2496C31.3588 38.7111 31.2699 39.1674 31.2699 39.6295C31.2699 39.9505 32.4111 39.4773 32.4882 39.4461C33.6236 38.9869 34.5087 38.15 35.4594 37.4073C36.134 36.8802 36.8597 36.415 37.5044 35.8502C38.0519 35.3706 38.4796 34.8025 38.9527 34.2558C39.1978 33.9727 39.2493 33.9234 39.1144 34.3615C38.8305 35.283 38.456 36.171 38.0483 37.0437C37.7789 37.6203 37.5134 38.2042 37.1253 38.7126C36.7301 39.2302 36.364 39.8152 35.9132 40.2853C35.6671 40.5418 35.3874 40.8165 35.0771 40.9939C34.7457 41.1833 34.3339 41.1244 33.9676 41.1244C33.702 41.1244 33.176 41.2417 33.0041 41.0125" stroke="#92B18A" stroke-width="4" stroke-linecap="round"/>
<path d="M41.0952 9.9211C40.9877 9.9211 40.8754 9.89302 40.7724 9.83689C39.4155 9.0602 38.0539 7.88583 36.7253 6.3512C36.4913 6.07983 36.5194 5.67276 36.7908 5.43416C37.0623 5.2002 37.4693 5.22829 37.7079 5.49965C38.9431 6.92667 40.1923 8.00281 41.418 8.70929C41.7269 8.88709 41.8344 9.28479 41.6568 9.59357C41.5351 9.80412 41.3199 9.9211 41.0952 9.9211Z" fill="#CDDACE"/>
<path d="M35.2375 9.31668C35.0083 9.31668 34.7837 9.19505 34.6665 8.97514C33.9929 7.72123 33.2676 6.29887 32.5097 4.74084C32.3505 4.41802 32.4864 4.02967 32.8092 3.87528C33.132 3.71618 33.5203 3.85188 33.6746 4.1747C34.4234 5.71404 35.1439 7.12234 35.8082 8.35754C35.9767 8.67103 35.8598 9.06403 35.5461 9.23714C35.448 9.28862 35.345 9.31668 35.2375 9.31668Z" fill="#CDDACE"/>
<path d="M36.5568 10.7766C36.4073 10.7766 36.2575 10.7252 36.1359 10.6222L33.001 7.96001C32.7298 7.72605 32.6923 7.31901 32.9261 7.04765C33.1601 6.77628 33.5671 6.74352 33.8386 6.97279L36.9732 9.63501C37.2447 9.86894 37.2821 10.276 37.0481 10.5474C36.9219 10.6971 36.7395 10.7766 36.5523 10.7766H36.5568Z" fill="#CDDACE"/>
<path d="M41.6755 13.8692C41.4977 13.8692 41.3244 13.7991 41.1936 13.654C41.1281 13.5791 41.0813 13.4996 41.0532 13.4107C40.824 13.2095 40.0426 12.6434 37.3896 11.1181C37.081 10.9403 36.9732 10.5426 37.1511 10.2338C37.3289 9.92502 37.7266 9.81741 38.0355 9.9952C42.2602 12.4188 42.2931 12.7089 42.3351 13.1066C42.3586 13.3125 42.265 13.5604 42.1107 13.7008C41.9842 13.8131 41.8299 13.8692 41.6755 13.8692Z" fill="#CDDACE"/>
<path d="M38.0448 18.0796C37.8341 18.0796 37.6284 17.9767 37.5019 17.7895C37.3054 17.4901 37.3851 17.0877 37.6846 16.8912C39.7524 15.525 40.1969 14.9495 40.2905 14.7857C40.2437 14.5004 40.3983 14.2056 40.6788 14.0886C41.0064 13.9483 41.3902 14.1027 41.5303 14.4302C41.8954 15.2817 41.0765 16.2081 38.4051 17.9767C38.2927 18.0469 38.1711 18.0843 38.0494 18.0843L38.0448 18.0796Z" fill="#CDDACE"/>
<path d="M42.0029 17.3079C41.7597 17.3079 41.5303 17.1722 41.4182 16.943C41.2637 16.6201 41.3995 16.2318 41.7175 16.0774L44.0289 14.9592C44.3517 14.8048 44.7401 14.9358 44.8944 15.2586C45.0489 15.5814 44.9179 15.9698 44.5951 16.1242L42.2837 17.2424C42.1949 17.2845 42.0965 17.3079 42.0029 17.3079Z" fill="#CDDACE"/>
<path d="M30.2873 7.00117C30.133 7.00117 29.9786 6.94501 29.8522 6.83272L25.4774 2.88383C25.2108 2.64522 25.1921 2.23348 25.4306 1.96679C25.6694 1.7001 26.081 1.68139 26.3479 1.92001L30.7224 5.8689C30.989 6.10751 31.0078 6.51925 30.7692 6.78594C30.643 6.92629 30.4651 7.00117 30.2873 7.00117Z" fill="#CDDACE"/>
<path d="M23.3487 3.13633C23.2083 3.13633 23.0633 3.08956 22.9416 2.9913C22.6609 2.76673 22.6188 2.35967 22.8433 2.07894L24.0833 0.534943C24.3079 0.254215 24.7149 0.212107 24.9955 0.43201C25.2763 0.65659 25.3185 1.06364 25.0985 1.34437L23.8586 2.89304C23.7323 3.05212 23.5405 3.13633 23.3533 3.13633H23.3487Z" fill="#CDDACE"/>
<path d="M16.4195 5.02672C16.12 5.02672 15.8533 4.82085 15.7878 4.51204C15.713 4.16114 15.9376 3.81491 16.2838 3.74006L21.4819 2.62183C21.8328 2.54697 22.179 2.77154 22.2539 3.11776C22.3288 3.46869 22.1042 3.81491 21.758 3.88977L16.5598 5.008C16.513 5.01736 16.4662 5.02204 16.4242 5.02204L16.4195 5.02672Z" fill="#CDDACE"/>
<path d="M17.491 5.97127C17.1962 5.97127 16.9295 5.76539 16.8593 5.46595C16.7798 5.11504 16.9997 4.76882 17.3506 4.68928L21.1451 3.82838C21.4913 3.74884 21.8422 3.96875 21.9218 4.31498C22.0013 4.66588 21.7814 5.01211 21.4352 5.09164L17.636 5.95255C17.5892 5.96191 17.5378 5.96659 17.491 5.96659V5.97127Z" fill="#CDDACE"/>
<path d="M26.4881 7.94586C26.418 7.94586 26.3477 7.9365 26.2822 7.9131L21.1637 6.196C20.8221 6.0837 20.6397 5.71408 20.7566 5.37721C20.8689 5.03565 21.2386 4.85317 21.5754 4.97015L26.694 6.68725C27.0355 6.79955 27.2179 7.16917 27.101 7.51072C27.0122 7.78209 26.7547 7.95054 26.4881 7.95054V7.94586Z" fill="#CDDACE"/>
<path d="M28.1491 10.0801C27.6533 10.0801 27.1385 9.9865 26.6052 9.79934C26.2683 9.68237 26.0904 9.31274 26.2075 8.9712C26.3244 8.63434 26.694 8.45654 27.0355 8.5735C28.2099 8.98524 29.1831 8.78405 30.0907 7.93718C30.3528 7.6939 30.7647 7.70794 31.0078 7.96994C31.2511 8.23195 31.2372 8.6437 30.9751 8.88698C30.1188 9.67769 29.1737 10.0754 28.1491 10.0754V10.0801Z" fill="#CDDACE"/>
<path d="M34.8725 14.6604C34.4935 14.6604 34.2408 14.6604 31.5039 11.1326C31.284 10.8472 31.3354 10.4402 31.6207 10.2249C31.9015 10.005 32.3134 10.0565 32.5284 10.3419C34.2408 12.5503 34.8492 13.1866 35.0551 13.3691C35.1439 13.3878 35.2327 13.4299 35.3076 13.4907C35.5884 13.7106 35.6352 14.1224 35.4154 14.4031C35.2937 14.5575 35.0739 14.6651 34.8725 14.6651V14.6604Z" fill="#CDDACE"/>
<path d="M35.3218 21.5992C35.1159 21.5992 34.9193 21.5056 34.7931 21.3232L31.8221 17.1169C31.6162 16.8269 31.6863 16.4198 31.9764 16.2139C32.2666 16.0081 32.6736 16.0782 32.8793 16.3683L35.8505 20.5746C36.0564 20.8646 35.9861 21.2717 35.6959 21.4776C35.5839 21.5571 35.4528 21.5945 35.3218 21.5945V21.5992Z" fill="#CDDACE"/>
<path d="M29.7072 21.7715C29.6791 21.7715 29.6556 21.7715 29.6275 21.7668L25.4167 21.2521C25.061 21.21 24.8083 20.8825 24.8506 20.5316C24.8926 20.176 25.2247 19.928 25.571 19.9655L29.7821 20.4801C30.1375 20.5222 30.3902 20.8451 30.348 21.2006C30.306 21.5282 30.03 21.7715 29.7072 21.7715Z" fill="#CDDACE"/>
<path d="M23.8446 19.1939C23.5873 19.1939 23.3393 19.0395 23.2411 18.7821C23.1101 18.4499 23.2738 18.071 23.606 17.9399L27.9806 16.2228C28.3128 16.0918 28.692 16.2556 28.8228 16.5925C28.9538 16.9247 28.7901 17.3036 28.4532 17.4346L24.0787 19.1518C23.999 19.1845 23.9195 19.1985 23.84 19.1985L23.8446 19.1939Z" fill="#CDDACE"/>
<path d="M21.3695 15.4181C21.1262 15.4181 20.897 15.2824 20.7847 15.0485C20.6303 14.7257 20.766 14.3373 21.0888 14.1829C22.2444 13.6308 22.8527 12.8729 22.9509 11.8716C22.9837 11.516 23.3065 11.254 23.6574 11.2868C24.013 11.3195 24.275 11.6377 24.2424 11.9933C24.0972 13.4671 23.227 14.5993 21.6456 15.3526C21.5567 15.3947 21.4584 15.4181 21.3648 15.4181H21.3695Z" fill="#CDDACE"/>
<path d="M23.7652 11.3807C23.6201 11.3807 23.4751 11.334 23.3534 11.2357L20.2186 8.65769C19.9426 8.42842 19.9005 8.02138 20.1297 7.74533C20.359 7.46928 20.766 7.42716 21.0421 7.65641L24.1769 10.2344C24.4529 10.4637 24.4951 10.8708 24.2657 11.1468C24.1395 11.3012 23.9523 11.3854 23.7652 11.3854V11.3807Z" fill="#CDDACE"/>
<path d="M19.0583 9.74705C18.8805 9.74705 18.7027 9.67219 18.5717 9.53181C18.3237 9.25108 17.2523 8.19369 15.3854 6.39235C15.1281 6.14438 15.1234 5.73264 15.3714 5.47531C15.6193 5.21798 16.0311 5.20862 16.2884 5.46127C18.8384 7.927 19.3671 8.47442 19.5402 8.67091C19.7788 8.93762 19.7554 9.34934 19.4887 9.58797C19.3671 9.69556 19.2127 9.75172 19.0583 9.75172V9.74705Z" fill="#CDDACE"/>
<path d="M13.2003 6.3972C12.9945 6.3972 12.7886 6.29895 12.6623 6.11179C12.4611 5.81703 12.536 5.40999 12.8307 5.20879C16.6907 2.5793 16.8966 2.54657 17.3364 3.11268C17.5563 3.39341 17.5095 3.80047 17.2288 4.02507C17.1212 4.10928 16.9948 4.15606 16.8685 4.16074C16.658 4.25899 15.9374 4.66138 13.5606 6.28023C13.4483 6.35508 13.322 6.39252 13.1957 6.39252L13.2003 6.3972Z" fill="#CDDACE"/>
<path d="M6.84672 7.85686C6.68764 7.85686 6.52389 7.79604 6.40223 7.67907C6.14023 7.4311 6.13087 7.02403 6.37884 6.76202C6.95901 6.15379 8.71823 4.29163 10.3745 5.17594C10.6927 5.34437 10.8096 5.73737 10.6412 6.05554C10.4728 6.36902 10.0798 6.49066 9.76161 6.32222C9.0785 5.95728 7.93687 7.00066 7.31928 7.65569C7.19294 7.79136 7.01983 7.85686 6.84672 7.85686Z" fill="#CDDACE"/>
<path d="M2.96328 15.4177C2.83226 15.4177 2.69659 15.3756 2.58429 15.2914C2.29421 15.0808 2.22871 14.6738 2.43926 14.3837L4.75056 11.2068C4.96111 10.9167 5.36817 10.8512 5.65826 11.0618C5.94835 11.2723 6.01385 11.6794 5.80329 11.9694L3.49197 15.1463C3.36564 15.3195 3.16915 15.413 2.96796 15.413L2.96328 15.4177Z" fill="#CDDACE"/>
<path d="M8.74156 10.0054C8.53104 10.0054 8.32984 9.90713 8.20351 9.71997C8.00234 9.42521 8.08188 9.01817 8.3813 8.82165L11.1886 6.93141C11.488 6.73025 11.8904 6.80978 12.0869 7.10921C12.2881 7.40397 12.2086 7.81104 11.9091 8.00755L9.10185 9.89777C8.98956 9.97262 8.86322 10.0101 8.74156 10.0101V10.0054Z" fill="#CDDACE"/>
<path d="M13.4532 16.2748C13.3456 16.2748 13.2379 16.2468 13.135 16.1953C12.6063 15.9052 11.9372 15.0163 10.5944 10.4872C10.4915 10.1456 10.688 9.78067 11.0342 9.68244C11.3758 9.57951 11.736 9.77602 11.839 10.1222C13.1023 14.394 13.6731 14.9929 13.7713 15.0724C14.0848 15.2455 14.1924 15.6338 14.0193 15.9473C13.9023 16.1625 13.6777 16.2795 13.4485 16.2795L13.4532 16.2748Z" fill="#CDDACE"/>
<path d="M17.9026 13.0136C17.7997 13.0136 17.6967 12.9902 17.5985 12.9387C14.6368 11.3573 13.4016 10.225 13.4578 9.15358C13.4765 8.80268 13.7712 8.55469 14.1268 8.55469C14.4777 8.56405 14.7585 8.87286 14.7538 9.22376C14.7538 9.25184 14.7865 9.96769 18.2114 11.7924C18.5296 11.9608 18.6465 12.3539 18.4781 12.672C18.3611 12.8919 18.1365 13.0136 17.9073 13.0136H17.9026Z" fill="#CDDACE"/>
<path d="M15.0159 15.8485C14.7164 15.8485 14.445 15.6379 14.3842 15.3338C14.3093 14.9829 14.5339 14.6413 14.8848 14.5665L18.5156 13.7945C18.8665 13.7196 19.2127 13.9442 19.2876 14.2951C19.3624 14.646 19.1379 14.9876 18.787 15.0671L15.1562 15.8391C15.1094 15.8485 15.0673 15.8531 15.0205 15.8531L15.0159 15.8485Z" fill="#CDDACE"/>
<path d="M8.74161 19.6239C8.4375 19.6239 8.16146 19.4041 8.1053 19.0952C8.0398 18.7443 8.27373 18.4028 8.62466 18.3373C12.7373 17.57 13.9444 16.8354 14.3 16.4658C14.548 16.2084 14.9597 16.1991 15.217 16.4471C15.4744 16.695 15.4837 17.1068 15.2358 17.3641C14.3936 18.2437 12.3677 18.9596 8.85858 19.6146C8.81649 19.6239 8.77905 19.6239 8.73693 19.6239H8.74161Z" fill="#CDDACE"/>
<path d="M13.8413 21.4668C13.584 21.4668 13.3173 21.4527 13.0413 21.42C12.6857 21.3825 12.4284 21.0597 12.4705 20.7041C12.5079 20.3486 12.8307 20.0865 13.1863 20.1333C15.0625 20.3392 16.2649 19.745 16.9902 18.2618C17.1446 17.939 17.5329 17.8033 17.8557 17.9624C18.1786 18.1168 18.3096 18.5051 18.1552 18.8279C17.3083 20.5638 15.8251 21.4668 13.8413 21.4668Z" fill="#CDDACE"/>
<path d="M21.1263 20.91C20.9345 20.91 20.7426 20.8258 20.6116 20.6573L18.5483 17.9951C18.3284 17.7097 18.3799 17.3026 18.6653 17.0874C18.946 16.8675 19.353 16.919 19.5729 17.2044L21.6363 19.8666C21.8562 20.1473 21.8047 20.5591 21.524 20.779C21.407 20.8726 21.2667 20.9147 21.1263 20.9147V20.91Z" fill="#CDDACE"/>
<path d="M7.0899 20.6535C7.00569 20.6535 6.91677 20.6348 6.83255 20.602L3.4498 19.1423C3.12229 19.0019 2.96788 18.6182 3.11293 18.2907C3.25329 17.9632 3.63695 17.8088 3.96445 17.9538L7.34723 19.4136C7.67473 19.554 7.82915 19.9377 7.68877 20.2652C7.58116 20.5085 7.34255 20.6582 7.09456 20.6582L7.0899 20.6535Z" fill="#CDDACE"/>
<path d="M5.85479 17.9073C5.56005 17.9073 5.29801 17.7061 5.22316 17.4113C5.13894 17.0651 5.35417 16.7142 5.7004 16.63C7.67951 16.1527 8.96152 15.4649 9.406 14.6321C9.57443 14.3186 9.96745 14.197 10.2856 14.3701C10.5991 14.5385 10.7207 14.9316 10.5476 15.2497C9.90193 16.4475 8.41876 17.313 5.99984 17.8932C5.94836 17.9073 5.89691 17.9119 5.85013 17.9119L5.85479 17.9073Z" fill="#CDDACE"/>
<path d="M6.88872 14.5064C6.43956 14.5064 5.967 14.3894 5.48043 14.1461C5.15758 13.987 5.02656 13.5987 5.18566 13.2758C5.34473 12.9577 5.73308 12.822 6.0559 12.9811C6.84663 13.3694 7.39872 13.2665 7.9087 12.6395C8.13329 12.3588 8.54033 12.3167 8.82106 12.5413C9.09711 12.7659 9.14391 13.1776 8.91464 13.4536C8.35318 14.1461 7.65605 14.5017 6.88872 14.5017V14.5064Z" fill="#CDDACE"/>
<path d="M29.8709 15.1608C29.7446 15.1608 29.6229 15.1234 29.5106 15.0532L26.0436 12.7326C25.744 12.5314 25.6646 12.129 25.8657 11.8342C26.0671 11.5348 26.4648 11.4553 26.764 11.6564L30.2311 13.9771C30.5306 14.1783 30.61 14.5807 30.4089 14.8754C30.2827 15.0626 30.0768 15.1608 29.8709 15.1608Z" fill="#CDDACE"/>
<path d="M4.20784 23.3718C3.90841 23.3718 3.63704 23.2969 3.39373 23.1519C2.9212 22.8711 2.63579 22.3611 2.52817 21.6032C1.53158 21.7061 0.535003 21.6406 0.165379 20.9154C-0.213602 20.1762 0.244918 19.2544 1.68598 17.8274C1.93864 17.5747 2.35037 17.5794 2.60303 17.8321C2.85568 18.0847 2.851 18.4965 2.59835 18.7491C1.67662 19.6615 1.43333 20.12 1.36783 20.2978C1.53626 20.3446 1.98542 20.396 3.02879 20.2229L3.78208 20.0966V20.8592C3.78208 21.6032 3.93179 21.9541 4.0628 22.029C4.18446 22.0991 4.53536 22.071 5.13892 21.7435C5.4524 21.5751 5.85011 21.6921 6.01854 22.0055C6.18697 22.319 6.07 22.712 5.75651 22.8851C5.17168 23.2033 4.66168 23.3577 4.2172 23.3577L4.20784 23.3718Z" fill="#284134"/>
<path d="M23.2037 47.2383C21.9264 47.2383 20.5883 47.1915 19.18 47.1027C15.5399 47.0511 12.3723 46.1621 9.79901 44.4543C8.00705 44.4168 5.3916 40.9078 0.0203646 19.8159C-0.0685322 19.4697 0.142013 19.1141 0.488242 19.0252C0.834473 18.9363 1.19006 19.1468 1.27896 19.4931C7.11806 42.4332 9.45746 43.2286 9.85985 43.1489C10.0283 43.1208 10.2014 43.1537 10.3417 43.2519C12.7326 44.8942 15.7224 45.7503 19.2268 45.7971C31.3915 46.5927 38.3021 43.9255 39.7994 37.8761C39.804 37.848 39.8134 37.8199 39.8227 37.7964C44.1413 26.7874 45.5354 21.3973 45.8069 18.7725C45.2314 19.3854 44.2675 19.61 42.864 19.4556C42.7656 20.2931 42.4476 20.9061 41.9002 21.2804C41.1187 21.8184 39.9818 21.8091 38.4286 21.2429C37.8482 22.291 37.1419 22.9226 36.3276 23.1285C35.5932 23.3156 34.8024 23.1472 33.9742 22.6325C32.9825 23.5402 32.07 23.9239 31.2091 23.8069C30.5916 23.7227 30.0442 23.3811 29.5762 22.7916C28.1772 24.0175 26.9467 24.5789 25.8379 24.4995C25.2343 24.4572 24.6917 24.228 24.2098 23.8116C23.7558 24.27 23.2271 24.5508 22.6236 24.649C21.5428 24.8268 20.3029 24.4059 18.8525 23.3718C18.3752 24.1251 17.795 24.5602 17.1213 24.6631C16.2604 24.7942 15.348 24.3917 14.3515 23.4232C13.6964 24.0269 12.9993 24.3355 12.2694 24.3355H12.2647C11.3383 24.3355 10.4307 23.8584 9.50426 22.8852C8.6574 23.5589 7.89475 23.8022 7.18358 23.6338C6.37882 23.4419 5.75186 22.7261 5.32142 21.5002C5.20445 21.1634 5.38224 20.7938 5.7191 20.6721C6.05599 20.5551 6.42562 20.7283 6.54727 21.0698C6.81396 21.8278 7.14614 22.291 7.48771 22.3705C7.86199 22.4594 8.44217 22.1506 9.11592 21.5049C9.24691 21.3786 9.42002 21.3131 9.6025 21.3271C9.78497 21.3365 9.94874 21.4207 10.0657 21.5611C10.8751 22.5436 11.6144 23.0396 12.2694 23.0443C12.7841 23.0443 13.3175 22.7167 13.8508 22.0757C13.9725 21.9307 14.1503 21.8465 14.3374 21.8418C14.5339 21.8418 14.7071 21.9167 14.8334 22.057C15.6756 22.9975 16.4195 23.4653 16.9248 23.3905C17.4254 23.3109 17.8091 22.6653 18.0477 22.1412C18.1319 21.9588 18.291 21.8231 18.4875 21.7763C18.684 21.7295 18.8899 21.7763 19.0443 21.8979C20.4292 22.9975 21.5942 23.5075 22.4177 23.3764C22.8902 23.3016 23.2879 23.0068 23.6248 22.4828C23.7371 22.305 23.9336 22.1974 24.1442 22.188C24.3593 22.1834 24.5558 22.2723 24.6823 22.4407C25.0565 22.9273 25.4635 23.1799 25.9315 23.2127C26.7782 23.2735 27.9247 22.6278 29.244 21.3365C29.389 21.1961 29.5903 21.1306 29.7914 21.1587C29.9926 21.1868 30.1658 21.3084 30.264 21.4862C30.6103 22.1225 30.9893 22.4688 31.387 22.5249C31.9109 22.5951 32.622 22.188 33.4409 21.3459C33.6701 21.1119 34.0351 21.0838 34.2972 21.2804C34.9661 21.7903 35.5416 21.9868 36.0096 21.8699C36.557 21.7342 37.067 21.154 37.5254 20.1528C37.6704 19.8346 38.0448 19.6896 38.3676 19.8253C40.183 20.5879 40.8989 20.3961 41.1655 20.2089C41.5538 19.9422 41.6148 19.2544 41.5961 18.7258C41.5913 18.5292 41.671 18.3421 41.8205 18.2111C41.9702 18.0847 42.1668 18.0286 42.3586 18.0614C43.6546 18.2953 44.5716 18.2204 44.8853 17.8508C45.1378 17.5514 45.0958 16.8917 44.773 16.0027C44.6981 15.8015 44.7307 15.5722 44.8572 15.3991C44.9834 15.226 45.1939 15.1324 45.4092 15.1324C45.9566 15.1558 46.4011 15.4085 46.7006 15.867C47.5334 17.1443 47.8562 20.8499 41.0486 38.2176C39.5419 44.2018 33.5438 47.2195 23.199 47.2195L23.2037 47.2383Z" fill="#284134"/>
<path d="M9.43408 43.249C9.30774 43.249 9.17675 43.2209 9.05509 43.1602C8.46088 42.87 7.35668 42.3367 0.530351 21.4085C0.41806 21.067 0.605212 20.702 0.946761 20.5898C1.28831 20.4775 1.65326 20.6646 1.76555 21.0062C1.87316 21.3337 1.97609 21.6565 2.07903 21.97C1.89187 20.8751 1.91995 20.3277 2.00885 20.0049C2.10242 19.6587 2.45802 19.4575 2.80424 19.5511C3.15047 19.6446 3.35166 20.0049 3.25808 20.3464C3.04285 21.1372 3.64175 25.0486 10.0891 42.3648C10.1499 42.5285 10.1406 42.7063 10.0704 42.8606C10.0002 43.0198 9.86452 43.1369 9.70544 43.1976C9.61655 43.2302 9.52297 43.2444 9.43408 43.2444V43.249Z" fill="#284134"/>
<path d="M10.6412 43.9265C10.3838 43.9265 10.1359 43.7674 10.0376 43.5146C7.62804 37.3106 5.64425 30.1661 4.14703 22.273C4.08153 21.9221 4.31078 21.5806 4.66169 21.5151C5.01727 21.4496 5.35416 21.6788 5.41965 22.0298C6.90283 29.8433 8.86325 36.913 11.2447 43.0421C11.3757 43.3742 11.2073 43.7532 10.8751 43.8797C10.7956 43.9078 10.716 43.9217 10.6412 43.9217V43.9265Z" fill="#284134"/>
<path d="M11.7125 44.8711C11.399 44.8711 11.1277 44.6467 11.0715 44.3285L7.60456 23.6295C7.54372 23.2786 7.78236 22.9418 8.13794 22.881C8.48884 22.8248 8.82571 23.0588 8.88655 23.4143L12.3535 44.1132C12.4143 44.4641 12.1757 44.801 11.8201 44.8617C11.7827 44.8665 11.75 44.8711 11.7125 44.8711Z" fill="#284134"/>
<path d="M14.024 45.1291C13.7012 45.1291 13.4204 44.8857 13.383 44.5581C12.6999 38.7753 12.3396 32.0191 12.3069 24.4769C12.3069 24.1166 12.5923 23.8265 12.9526 23.8265C13.3081 23.8265 13.5982 24.1166 13.6029 24.4723C13.6357 31.9677 13.9959 38.6769 14.6697 44.4084C14.7118 44.7641 14.4591 45.0869 14.1035 45.1291C14.0801 45.1291 14.0521 45.1291 14.0287 45.1291H14.024Z" fill="#284134"/>
<path d="M17.4908 45.7272C17.1305 45.7272 16.8405 45.4373 16.8405 45.077V24.1207C16.8405 23.7604 17.1305 23.4703 17.4908 23.4703C17.8511 23.4703 18.1411 23.7604 18.1411 24.1207V45.077C18.1411 45.4373 17.8511 45.7272 17.4908 45.7272Z" fill="#284134"/>
<path d="M23.2038 45.5681C23.1149 45.5681 23.026 45.5542 22.9511 45.5213C22.3522 45.264 21.9218 45.0768 21.9592 24.7241C21.9592 24.3687 22.2493 24.0785 22.6096 24.0785C22.9699 24.0785 23.2553 24.3687 23.2553 24.7289C23.2272 39.6588 23.4939 43.5375 23.6857 44.4173C23.7044 44.4312 23.7184 44.4454 23.7325 44.4641C23.9805 44.7259 23.9664 45.133 23.7091 45.3811C23.5828 45.5026 23.3863 45.5729 23.1991 45.5729L23.2038 45.5681Z" fill="#284134"/>
<path d="M26.7363 44.7816C26.3947 44.7816 26.1094 44.515 26.0907 44.1687L25.0987 24.8453C25.08 24.4899 25.356 24.181 25.7117 24.1623C26.0719 24.1483 26.376 24.4195 26.3947 24.7752L27.3867 44.0986C27.4054 44.454 27.1291 44.7629 26.7737 44.7816C26.7643 44.7816 26.7502 44.7816 26.7408 44.7816H26.7363Z" fill="#284134"/>
<path d="M23.5079 45.7421C19.2689 45.7421 14.4263 45.073 8.99896 43.7347L9.30777 42.4762C24.0646 46.1162 34.2598 44.7173 39.6074 38.3122L40.6042 39.145C36.9312 43.543 31.2091 45.7466 23.5079 45.7466V45.7421Z" fill="#284134"/>
<path d="M29.4593 44.8711C29.099 44.8711 28.8137 44.5764 28.8137 44.2207L28.8979 22.2351C28.8979 21.8795 29.1878 21.5895 29.5481 21.5895C29.9085 21.5895 30.1939 21.8842 30.1939 22.2398L30.1097 44.2253C30.1097 44.581 29.8195 44.8711 29.4593 44.8711Z" fill="#284134"/>
<path d="M32.6782 44.1845C32.6782 44.1845 32.6642 44.1845 32.6549 44.1845C32.2992 44.1706 32.0184 43.871 32.0278 43.5156L32.7718 22.6435C32.7859 22.2879 33.0806 22.0025 33.4409 22.0165C33.7963 22.0306 34.0771 22.33 34.0678 22.6856L33.324 43.5576C33.3098 43.9085 33.0245 44.1845 32.6782 44.1845Z" fill="#284134"/>
<path d="M35.5697 43.0642C35.5464 43.0642 35.5229 43.0642 35.4996 43.0642C35.1439 43.0267 34.8867 42.7087 34.9241 42.3482C34.9241 42.3482 35.6633 35.447 37.1511 21.6494C37.1885 21.2938 37.5113 21.0365 37.867 21.0739C38.2227 21.1114 38.4799 21.4342 38.4425 21.7898C36.9547 35.5874 36.2153 42.4886 36.2153 42.4886C36.1779 42.8208 35.8973 43.069 35.5697 43.069V43.0642Z" fill="#284134"/>
<path d="M37.8809 42.3771C37.8434 42.3771 37.8108 42.3771 37.7733 42.3677C37.4177 42.307 37.1839 41.9748 37.2398 41.6191L40.6226 21.3507C40.6836 20.9951 41.0157 20.7612 41.3712 20.8173C41.7269 20.8781 41.9609 21.2103 41.9047 21.5659L38.5219 41.8344C38.4705 42.1527 38.1943 42.3771 37.8809 42.3771Z" fill="#284134"/>
<path d="M42.8467 19.6164L39.1361 38.5992L40.4081 38.8478L44.1185 19.865L42.8467 19.6164Z" fill="#284134"/>
<path d="M41.9235 33.6192C41.8534 33.6192 41.7785 33.605 41.7082 33.5818C41.3715 33.4646 41.1936 33.095 41.3105 32.7535C44.3705 23.9996 44.4828 20.687 44.0335 19.4471C43.9121 19.1102 44.0851 18.7406 44.4219 18.619C44.7588 18.4973 45.1284 18.6704 45.2501 19.0073C46.0128 21.1268 45.1239 25.7587 42.5271 33.1793C42.4335 33.4459 42.1807 33.6144 41.9141 33.6144L41.9235 33.6192Z" fill="#284134"/>
</g>
<defs>
<clipPath id="clip0_26_52">
<rect width="48" height="48" fill="white"/>
</clipPath>
</defs>
</svg>
