<svg width="48" height="48" viewBox="0 0 48 48" fill="none" xmlns="http://www.w3.org/2000/svg">
<g clip-path="url(#clip0_16_43)">
<path d="M41.0952 9.92107C40.9877 9.92107 40.8754 9.89299 40.7724 9.83685C39.4155 9.06017 38.0539 7.8858 36.7253 6.35117C36.4913 6.0798 36.5194 5.67273 36.7908 5.43413C37.0623 5.20017 37.4693 5.22825 37.7079 5.49962C38.9431 6.92664 40.1923 8.00277 41.418 8.70926C41.7269 8.88705 41.8344 9.28476 41.6568 9.59354C41.5351 9.80409 41.3199 9.92107 41.0952 9.92107Z" fill="#CDDACE"/>
<path d="M35.2375 9.31668C35.0083 9.31668 34.7837 9.19505 34.6665 8.97514C33.9929 7.72123 33.2676 6.29887 32.5097 4.74084C32.3505 4.41802 32.4864 4.02967 32.8092 3.87528C33.132 3.71618 33.5203 3.85188 33.6746 4.1747C34.4234 5.71404 35.1439 7.12234 35.8082 8.35754C35.9767 8.67103 35.8598 9.06403 35.5461 9.23714C35.448 9.28862 35.345 9.31668 35.2375 9.31668Z" fill="#CDDACE"/>
<path d="M36.5568 10.7766C36.4073 10.7766 36.2575 10.7252 36.1359 10.6222L33.001 7.96001C32.7298 7.72605 32.6923 7.31901 32.9261 7.04765C33.1601 6.77628 33.5671 6.74352 33.8386 6.97279L36.9732 9.63501C37.2447 9.86894 37.2821 10.276 37.0481 10.5474C36.9219 10.6971 36.7395 10.7766 36.5523 10.7766H36.5568Z" fill="#CDDACE"/>
<path d="M41.6755 13.8693C41.4977 13.8693 41.3244 13.7991 41.1936 13.654C41.1281 13.5792 41.0813 13.4996 41.0532 13.4107C40.824 13.2095 40.0426 12.6434 37.3896 11.1181C37.081 10.9403 36.9732 10.5426 37.1511 10.2338C37.3289 9.92505 37.7266 9.81744 38.0355 9.99523C42.2602 12.4188 42.2931 12.7089 42.3351 13.1066C42.3586 13.3125 42.265 13.5605 42.1107 13.7008C41.9842 13.8131 41.8299 13.8693 41.6755 13.8693Z" fill="#CDDACE"/>
<path d="M38.0448 18.0797C37.8341 18.0797 37.6284 17.9767 37.5019 17.7896C37.3054 17.4901 37.3851 17.0877 37.6846 16.8912C39.7524 15.525 40.1969 14.9495 40.2905 14.7858C40.2437 14.5004 40.3983 14.2056 40.6788 14.0886C41.0064 13.9483 41.3902 14.1027 41.5303 14.4302C41.8954 15.2817 41.0765 16.2081 38.4051 17.9767C38.2927 18.0469 38.1711 18.0843 38.0494 18.0843L38.0448 18.0797Z" fill="#CDDACE"/>
<path d="M42.0029 17.3079C41.7597 17.3079 41.5303 17.1722 41.4182 16.943C41.2637 16.6201 41.3995 16.2318 41.7175 16.0774L44.0289 14.9592C44.3517 14.8048 44.7401 14.9358 44.8944 15.2586C45.0489 15.5814 44.9179 15.9698 44.5951 16.1242L42.2837 17.2424C42.1949 17.2845 42.0965 17.3079 42.0029 17.3079Z" fill="#CDDACE"/>
<path d="M30.2873 7.00123C30.133 7.00123 29.9786 6.94507 29.8522 6.83278L25.4774 2.88389C25.2108 2.64528 25.1921 2.23354 25.4306 1.96685C25.6694 1.70016 26.081 1.68145 26.3479 1.92007L30.7224 5.86896C30.989 6.10757 31.0078 6.51931 30.7692 6.786C30.643 6.92635 30.4651 7.00123 30.2873 7.00123Z" fill="#CDDACE"/>
<path d="M23.3487 3.13627C23.2083 3.13627 23.0633 3.08949 22.9416 2.99124C22.6609 2.76667 22.6188 2.3596 22.8433 2.07888L24.0833 0.534882C24.3079 0.254154 24.7149 0.212045 24.9955 0.431949C25.2763 0.656529 25.3185 1.06358 25.0985 1.34431L23.8586 2.89298C23.7323 3.05205 23.5405 3.13627 23.3533 3.13627H23.3487Z" fill="#CDDACE"/>
<path d="M16.4195 5.02672C16.12 5.02672 15.8533 4.82085 15.7878 4.51204C15.713 4.16114 15.9376 3.81491 16.2838 3.74006L21.4819 2.62183C21.8328 2.54697 22.179 2.77154 22.2539 3.11776C22.3288 3.46869 22.1042 3.81491 21.758 3.88977L16.5598 5.008C16.513 5.01736 16.4662 5.02204 16.4242 5.02204L16.4195 5.02672Z" fill="#CDDACE"/>
<path d="M17.491 5.9713C17.1962 5.9713 16.9295 5.76542 16.8593 5.46598C16.7798 5.11507 16.9997 4.76885 17.3506 4.68931L21.1451 3.82841C21.4913 3.74887 21.8422 3.96878 21.9218 4.31501C22.0013 4.66591 21.7814 5.01214 21.4352 5.09167L17.636 5.95258C17.5892 5.96194 17.5378 5.96662 17.491 5.96662V5.9713Z" fill="#CDDACE"/>
<path d="M26.4881 7.94592C26.418 7.94592 26.3477 7.93656 26.2822 7.91316L21.1637 6.19606C20.8221 6.08376 20.6397 5.71414 20.7566 5.37728C20.8689 5.03571 21.2386 4.85323 21.5754 4.97021L26.694 6.68732C27.0355 6.79961 27.2179 7.16924 27.101 7.51078C27.0122 7.78215 26.7547 7.9506 26.4881 7.9506V7.94592Z" fill="#CDDACE"/>
<path d="M28.1491 10.0801C27.6533 10.0801 27.1385 9.9865 26.6052 9.79934C26.2683 9.68237 26.0904 9.31274 26.2075 8.9712C26.3244 8.63434 26.694 8.45654 27.0355 8.5735C28.2099 8.98524 29.1831 8.78405 30.0907 7.93718C30.3528 7.6939 30.7647 7.70794 31.0078 7.96994C31.2511 8.23195 31.2372 8.6437 30.9751 8.88698C30.1188 9.67769 29.1737 10.0754 28.1491 10.0754V10.0801Z" fill="#CDDACE"/>
<path d="M34.8725 14.6604C34.4935 14.6604 34.2408 14.6604 31.5039 11.1325C31.284 10.8472 31.3354 10.4401 31.6207 10.2249C31.9015 10.005 32.3134 10.0564 32.5284 10.3418C34.2408 12.5502 34.8492 13.1865 35.0551 13.369C35.1439 13.3877 35.2327 13.4298 35.3076 13.4907C35.5884 13.7106 35.6352 14.1223 35.4154 14.403C35.2937 14.5574 35.0739 14.665 34.8725 14.665V14.6604Z" fill="#CDDACE"/>
<path d="M35.3218 21.5992C35.1159 21.5992 34.9193 21.5056 34.7931 21.3232L31.8221 17.1169C31.6162 16.8269 31.6863 16.4198 31.9764 16.2139C32.2666 16.0081 32.6736 16.0782 32.8793 16.3683L35.8505 20.5746C36.0564 20.8646 35.9861 21.2717 35.6959 21.4776C35.5839 21.5571 35.4528 21.5945 35.3218 21.5945V21.5992Z" fill="#CDDACE"/>
<path d="M29.7072 21.7714C29.6791 21.7714 29.6556 21.7714 29.6275 21.7667L25.4167 21.2521C25.061 21.2099 24.8083 20.8824 24.8506 20.5315C24.8926 20.176 25.2247 19.928 25.571 19.9654L29.7821 20.4801C30.1375 20.5222 30.3902 20.845 30.348 21.2006C30.306 21.5281 30.03 21.7714 29.7072 21.7714Z" fill="#CDDACE"/>
<path d="M23.8446 19.1939C23.5873 19.1939 23.3393 19.0395 23.2411 18.7821C23.1101 18.4499 23.2738 18.071 23.606 17.9399L27.9806 16.2228C28.3128 16.0918 28.692 16.2556 28.8228 16.5925C28.9538 16.9247 28.7901 17.3036 28.4532 17.4346L24.0787 19.1518C23.999 19.1845 23.9195 19.1985 23.84 19.1985L23.8446 19.1939Z" fill="#CDDACE"/>
<path d="M21.3695 15.4181C21.1262 15.4181 20.897 15.2824 20.7847 15.0484C20.6303 14.7256 20.766 14.3373 21.0888 14.1829C22.2444 13.6308 22.8527 12.8728 22.9509 11.8716C22.9837 11.516 23.3065 11.254 23.6574 11.2867C24.013 11.3195 24.275 11.6376 24.2424 11.9932C24.0972 13.467 23.227 14.5993 21.6456 15.3526C21.5567 15.3947 21.4584 15.4181 21.3648 15.4181H21.3695Z" fill="#CDDACE"/>
<path d="M23.7652 11.3807C23.6201 11.3807 23.4751 11.3339 23.3534 11.2357L20.2186 8.65766C19.9426 8.42839 19.9005 8.02135 20.1297 7.7453C20.359 7.46925 20.766 7.42713 21.0421 7.65638L24.1769 10.2344C24.4529 10.4637 24.4951 10.8707 24.2657 11.1468C24.1395 11.3012 23.9523 11.3854 23.7652 11.3854V11.3807Z" fill="#CDDACE"/>
<path d="M19.0583 9.74708C18.8805 9.74708 18.7027 9.67222 18.5717 9.53184C18.3237 9.25112 17.2523 8.19372 15.3854 6.39238C15.1281 6.14441 15.1234 5.73267 15.3714 5.47534C15.6193 5.21801 16.0311 5.20865 16.2884 5.4613C18.8384 7.92704 19.3671 8.47445 19.5402 8.67094C19.7788 8.93765 19.7554 9.34937 19.4887 9.588C19.3671 9.6956 19.2127 9.75176 19.0583 9.75176V9.74708Z" fill="#CDDACE"/>
<path d="M13.2003 6.3972C12.9945 6.3972 12.7886 6.29895 12.6623 6.11179C12.4611 5.81703 12.536 5.40999 12.8307 5.20879C16.6907 2.5793 16.8966 2.54657 17.3364 3.11268C17.5563 3.39341 17.5095 3.80047 17.2288 4.02507C17.1212 4.10928 16.9948 4.15606 16.8685 4.16074C16.658 4.25899 15.9374 4.66138 13.5606 6.28023C13.4483 6.35508 13.322 6.39252 13.1957 6.39252L13.2003 6.3972Z" fill="#CDDACE"/>
<path d="M6.84672 7.85683C6.68764 7.85683 6.52389 7.79601 6.40223 7.67903C6.14023 7.43107 6.13087 7.024 6.37884 6.76199C6.95901 6.15376 8.71824 4.2916 10.3745 5.17591C10.6927 5.34434 10.8096 5.73734 10.6412 6.05551C10.4728 6.36899 10.0798 6.49063 9.76161 6.32219C9.0785 5.95725 7.93687 7.00063 7.31928 7.65566C7.19294 7.79133 7.01983 7.85683 6.84672 7.85683Z" fill="#CDDACE"/>
<path d="M2.96328 15.4176C2.83226 15.4176 2.69659 15.3755 2.58429 15.2913C2.29421 15.0808 2.22871 14.6737 2.43926 14.3836L4.75056 11.2067C4.96111 10.9166 5.36817 10.8511 5.65826 11.0617C5.94835 11.2722 6.01385 11.6793 5.80329 11.9694L3.49197 15.1463C3.36564 15.3194 3.16915 15.413 2.96796 15.413L2.96328 15.4176Z" fill="#CDDACE"/>
<path d="M8.74156 10.0054C8.53104 10.0054 8.32984 9.90713 8.20351 9.71997C8.00234 9.42521 8.08188 9.01817 8.3813 8.82165L11.1886 6.93141C11.488 6.73025 11.8904 6.80978 12.0869 7.10921C12.2881 7.40397 12.2086 7.81104 11.9091 8.00755L9.10185 9.89777C8.98956 9.97262 8.86322 10.0101 8.74156 10.0101V10.0054Z" fill="#CDDACE"/>
<path d="M13.4532 16.2748C13.3456 16.2748 13.2379 16.2467 13.135 16.1952C12.6063 15.9052 11.9372 15.0162 10.5944 10.4871C10.4915 10.1456 10.688 9.78061 11.0342 9.68238C11.3758 9.57945 11.736 9.77596 11.839 10.1222C13.1023 14.3939 13.6731 14.9928 13.7713 15.0723C14.0848 15.2454 14.1924 15.6338 14.0193 15.9472C13.9023 16.1625 13.6777 16.2795 13.4485 16.2795L13.4532 16.2748Z" fill="#CDDACE"/>
<path d="M17.9026 13.0136C17.7997 13.0136 17.6967 12.9902 17.5985 12.9387C14.6368 11.3573 13.4016 10.225 13.4578 9.15358C13.4765 8.80268 13.7712 8.55469 14.1268 8.55469C14.4777 8.56405 14.7585 8.87286 14.7538 9.22376C14.7538 9.25184 14.7865 9.96769 18.2114 11.7924C18.5296 11.9608 18.6465 12.3539 18.4781 12.672C18.3611 12.8919 18.1365 13.0136 17.9073 13.0136H17.9026Z" fill="#CDDACE"/>
<path d="M15.0159 15.8484C14.7164 15.8484 14.445 15.6379 14.3842 15.3337C14.3093 14.9828 14.5339 14.6413 14.8848 14.5664L18.5156 13.7944C18.8665 13.7195 19.2127 13.9441 19.2876 14.295C19.3624 14.6459 19.1379 14.9875 18.787 15.0671L15.1562 15.839C15.1094 15.8484 15.0673 15.8531 15.0205 15.8531L15.0159 15.8484Z" fill="#CDDACE"/>
<path d="M8.74161 19.624C8.4375 19.624 8.16146 19.4041 8.1053 19.0953C8.0398 18.7444 8.27373 18.4029 8.62466 18.3373C12.7373 17.57 13.9444 16.8355 14.3 16.4658C14.548 16.2085 14.9597 16.1992 15.217 16.4471C15.4744 16.6951 15.4837 17.1068 15.2358 17.3642C14.3936 18.2438 12.3677 18.9596 8.85858 19.6146C8.81649 19.624 8.77905 19.624 8.73693 19.624H8.74161Z" fill="#CDDACE"/>
<path d="M13.8413 21.4668C13.584 21.4668 13.3173 21.4528 13.0413 21.42C12.6857 21.3826 12.4284 21.0598 12.4705 20.7042C12.5079 20.3486 12.8307 20.0866 13.1863 20.1334C15.0625 20.3393 16.2649 19.745 16.9902 18.2619C17.1446 17.939 17.5329 17.8033 17.8557 17.9624C18.1786 18.1168 18.3096 18.5052 18.1552 18.828C17.3083 20.5638 15.8251 21.4668 13.8413 21.4668Z" fill="#CDDACE"/>
<path d="M21.1263 20.91C20.9345 20.91 20.7426 20.8258 20.6116 20.6573L18.5483 17.9951C18.3284 17.7097 18.3799 17.3026 18.6653 17.0874C18.946 16.8675 19.353 16.919 19.5729 17.2044L21.6363 19.8666C21.8562 20.1473 21.8047 20.5591 21.524 20.779C21.407 20.8726 21.2667 20.9147 21.1263 20.9147V20.91Z" fill="#CDDACE"/>
<path d="M7.0899 20.6535C7.00569 20.6535 6.91677 20.6347 6.83255 20.602L3.4498 19.1422C3.12229 19.0019 2.96788 18.6182 3.11293 18.2907C3.25329 17.9632 3.63695 17.8088 3.96445 17.9538L7.34723 19.4136C7.67473 19.554 7.82915 19.9376 7.68877 20.2651C7.58116 20.5084 7.34255 20.6581 7.09456 20.6581L7.0899 20.6535Z" fill="#CDDACE"/>
<path d="M5.85479 17.9073C5.56005 17.9073 5.29801 17.7061 5.22316 17.4113C5.13894 17.0651 5.35417 16.7142 5.7004 16.63C7.67951 16.1527 8.96152 15.4649 9.406 14.6321C9.57443 14.3186 9.96745 14.197 10.2856 14.3701C10.5991 14.5385 10.7207 14.9316 10.5476 15.2497C9.90193 16.4475 8.41876 17.313 5.99984 17.8932C5.94836 17.9073 5.89691 17.9119 5.85013 17.9119L5.85479 17.9073Z" fill="#CDDACE"/>
<path d="M6.88872 14.5063C6.43956 14.5063 5.967 14.3893 5.48043 14.1461C5.15758 13.987 5.02656 13.5986 5.18566 13.2758C5.34473 12.9576 5.73308 12.8219 6.0559 12.981C6.84663 13.3694 7.39872 13.2664 7.9087 12.6395C8.13329 12.3587 8.54033 12.3167 8.82106 12.5412C9.09711 12.7658 9.14391 13.1775 8.91464 13.4536C8.35318 14.1461 7.65605 14.5016 6.88872 14.5016V14.5063Z" fill="#CDDACE"/>
<path d="M4.20784 23.3718C3.90841 23.3718 3.63704 23.2969 3.39373 23.1519C2.9212 22.8712 2.63579 22.3612 2.52817 21.6032C1.53158 21.7061 0.535003 21.6406 0.165379 20.9154C-0.213602 20.1762 0.244918 19.2545 1.68598 17.8274C1.93864 17.5748 2.35037 17.5795 2.60303 17.8321C2.85568 18.0848 2.851 18.4965 2.59835 18.7491C1.67662 19.6615 1.43333 20.12 1.36783 20.2978C1.53626 20.3446 1.98542 20.3961 3.02879 20.223L3.78208 20.0966V20.8593C3.78208 21.6032 3.93179 21.9541 4.0628 22.029C4.18446 22.0992 4.53536 22.0711 5.13892 21.7436C5.4524 21.5751 5.85011 21.6921 6.01854 22.0056C6.18697 22.3191 6.07 22.7121 5.75651 22.8852C5.17168 23.2033 4.66168 23.3577 4.2172 23.3577L4.20784 23.3718Z" fill="#CDDACE"/>
<path d="M23.2037 47.2383C21.9264 47.2383 20.5883 47.1915 19.18 47.1027C15.5399 47.0511 12.3723 46.1621 9.79901 44.4543C8.00705 44.4168 5.3916 40.9078 0.0203646 19.8159C-0.0685322 19.4697 0.142013 19.1141 0.488242 19.0252C0.834473 18.9363 1.19006 19.1468 1.27896 19.4931C7.11806 42.4332 9.45747 43.2286 9.85985 43.1489C10.0283 43.1208 10.2014 43.1537 10.3417 43.2519C12.7326 44.8942 15.7224 45.7503 19.2268 45.7971C31.3915 46.5927 38.3021 43.9255 39.7994 37.8761C39.804 37.848 39.8134 37.8199 39.8227 37.7964C44.1413 26.7874 45.5354 21.3973 45.8069 18.7725C45.2314 19.3854 44.2675 19.61 42.864 19.4556C42.7656 20.2931 42.4476 20.9061 41.9002 21.2804C41.1187 21.8184 39.9818 21.8091 38.4286 21.2429C37.8482 22.291 37.1419 22.9226 36.3276 23.1285C35.5932 23.3156 34.8024 23.1472 33.9742 22.6325C32.9825 23.5402 32.07 23.9239 31.2091 23.8069C30.5916 23.7227 30.0442 23.3811 29.5762 22.7916C28.1772 24.0175 26.9467 24.5789 25.8379 24.4995C25.2343 24.4572 24.6917 24.228 24.2098 23.8116C23.7558 24.27 23.2271 24.5508 22.6236 24.649C21.5428 24.8268 20.3029 24.4059 18.8525 23.3718C18.3752 24.1251 17.795 24.5602 17.1213 24.6631C16.2604 24.7942 15.348 24.3917 14.3515 23.4232C13.6964 24.0269 12.9993 24.3355 12.2694 24.3355H12.2647C11.3383 24.3355 10.4307 23.8584 9.50426 22.8852C8.6574 23.5589 7.89475 23.8022 7.18358 23.6338C6.37882 23.4419 5.75186 22.7261 5.32142 21.5002C5.20445 21.1634 5.38224 20.7938 5.7191 20.6721C6.05599 20.5551 6.42562 20.7283 6.54727 21.0698C6.81396 21.8278 7.14614 22.291 7.48771 22.3705C7.86199 22.4594 8.44217 22.1506 9.11592 21.5049C9.24691 21.3786 9.42002 21.3131 9.6025 21.3271C9.78497 21.3365 9.94874 21.4207 10.0657 21.5611C10.8751 22.5436 11.6144 23.0396 12.2694 23.0443C12.7841 23.0443 13.3175 22.7167 13.8508 22.0757C13.9725 21.9307 14.1503 21.8465 14.3374 21.8418C14.5339 21.8418 14.7071 21.9167 14.8334 22.057C15.6756 22.9975 16.4195 23.4653 16.9248 23.3905C17.4254 23.3109 17.8091 22.6653 18.0477 22.1412C18.1319 21.9588 18.291 21.8231 18.4875 21.7763C18.684 21.7295 18.8899 21.7763 19.0443 21.8979C20.4292 22.9975 21.5942 23.5075 22.4177 23.3764C22.8902 23.3016 23.2879 23.0068 23.6248 22.4828C23.7371 22.305 23.9336 22.1974 24.1442 22.188C24.3593 22.1834 24.5558 22.2723 24.6823 22.4407C25.0565 22.9273 25.4635 23.1799 25.9315 23.2127C26.7782 23.2735 27.9247 22.6278 29.244 21.3365C29.389 21.1961 29.5903 21.1306 29.7914 21.1587C29.9926 21.1868 30.1658 21.3084 30.264 21.4862C30.6103 22.1225 30.9893 22.4688 31.387 22.5249C31.9109 22.5951 32.622 22.188 33.4409 21.3459C33.6701 21.1119 34.0351 21.0838 34.2972 21.2804C34.9661 21.7903 35.5416 21.9868 36.0096 21.8699C36.557 21.7342 37.067 21.154 37.5254 20.1528C37.6704 19.8346 38.0448 19.6896 38.3676 19.8253C40.183 20.5879 40.8989 20.3961 41.1655 20.2089C41.5538 19.9422 41.6148 19.2544 41.5961 18.7258C41.5913 18.5292 41.671 18.3421 41.8205 18.2111C41.9702 18.0847 42.1668 18.0286 42.3586 18.0614C43.6546 18.2953 44.5716 18.2204 44.8853 17.8508C45.1378 17.5514 45.0958 16.8917 44.773 16.0027C44.6981 15.8015 44.7307 15.5722 44.8572 15.3991C44.9834 15.226 45.1939 15.1324 45.4092 15.1324C45.9566 15.1558 46.4011 15.4085 46.7006 15.867C47.5334 17.1443 47.8562 20.8499 41.0486 38.2176C39.5419 44.2018 33.5438 47.2195 23.199 47.2195L23.2037 47.2383Z" fill="#CDDACE"/>
<path d="M9.43408 43.2489C9.30774 43.2489 9.17675 43.2208 9.05509 43.1601C8.46088 42.8699 7.35668 42.3367 0.530351 21.4085C0.41806 21.0669 0.605212 20.702 0.946761 20.5897C1.28831 20.4774 1.65326 20.6645 1.76555 21.0061C1.87316 21.3336 1.97609 21.6564 2.07903 21.9699C1.89187 20.8751 1.91995 20.3277 2.00885 20.0048C2.10242 19.6586 2.45802 19.4574 2.80424 19.551C3.15047 19.6446 3.35166 20.0048 3.25808 20.3464C3.04285 21.1371 3.64175 25.0485 10.0891 42.3647C10.1499 42.5284 10.1406 42.7063 10.0704 42.8606C10.0002 43.0197 9.86452 43.1368 9.70544 43.1975C9.61655 43.2302 9.52297 43.2443 9.43408 43.2443V43.2489Z" fill="#CDDACE"/>
<path d="M10.6412 43.9265C10.3838 43.9265 10.1359 43.7674 10.0376 43.5146C7.62804 37.3106 5.64425 30.1661 4.14703 22.273C4.08153 21.9221 4.31078 21.5806 4.66169 21.5151C5.01727 21.4496 5.35416 21.6788 5.41965 22.0298C6.90283 29.8433 8.86325 36.913 11.2447 43.0421C11.3757 43.3742 11.2073 43.7532 10.8751 43.8797C10.7956 43.9078 10.716 43.9217 10.6412 43.9217V43.9265Z" fill="#CDDACE"/>
<path d="M11.7125 44.8711C11.399 44.8711 11.1277 44.6467 11.0715 44.3285L7.60456 23.6296C7.54372 23.2787 7.78236 22.9418 8.13794 22.881C8.48884 22.8248 8.82571 23.0588 8.88655 23.4144L12.3535 44.1132C12.4143 44.4641 12.1757 44.8011 11.8201 44.8618C11.7827 44.8666 11.75 44.8711 11.7125 44.8711Z" fill="#CDDACE"/>
<path d="M14.024 45.1291C13.7012 45.1291 13.4204 44.8857 13.383 44.5581C12.6999 38.7753 12.3396 32.0191 12.3069 24.4769C12.3069 24.1166 12.5923 23.8265 12.9526 23.8265C13.3081 23.8265 13.5982 24.1166 13.6029 24.4723C13.6357 31.9677 13.9959 38.6769 14.6697 44.4084C14.7118 44.7641 14.4591 45.0869 14.1035 45.1291C14.0801 45.1291 14.0521 45.1291 14.0287 45.1291H14.024Z" fill="#CDDACE"/>
<path d="M17.4908 45.7272C17.1305 45.7272 16.8405 45.4373 16.8405 45.0771V24.1207C16.8405 23.7604 17.1305 23.4703 17.4908 23.4703C17.8511 23.4703 18.1411 23.7604 18.1411 24.1207V45.0771C18.1411 45.4373 17.8511 45.7272 17.4908 45.7272Z" fill="#CDDACE"/>
<path d="M23.2038 45.5681C23.1149 45.5681 23.026 45.5542 22.9511 45.5213C22.3522 45.264 21.9218 45.0768 21.9592 24.7241C21.9592 24.3687 22.2493 24.0785 22.6096 24.0785C22.9699 24.0785 23.2553 24.3687 23.2553 24.7289C23.2272 39.6588 23.4939 43.5375 23.6857 44.4173C23.7044 44.4312 23.7184 44.4454 23.7325 44.4641C23.9805 44.7259 23.9664 45.133 23.7091 45.3811C23.5828 45.5026 23.3863 45.5729 23.1991 45.5729L23.2038 45.5681Z" fill="#CDDACE"/>
<path d="M26.7363 44.7816C26.3947 44.7816 26.1094 44.515 26.0907 44.1687L25.0987 24.8453C25.08 24.4899 25.356 24.181 25.7117 24.1623C26.0719 24.1483 26.376 24.4195 26.3947 24.7752L27.3867 44.0986C27.4054 44.454 27.1291 44.7629 26.7737 44.7816C26.7643 44.7816 26.7502 44.7816 26.7408 44.7816H26.7363Z" fill="#CDDACE"/>
<path d="M29.4593 44.8711C29.099 44.8711 28.8137 44.5764 28.8137 44.2207L28.8979 22.2351C28.8979 21.8795 29.1878 21.5895 29.5481 21.5895C29.9085 21.5895 30.1939 21.8842 30.1939 22.2398L30.1097 44.2253C30.1097 44.581 29.8195 44.8711 29.4593 44.8711Z" fill="#CDDACE"/>
<path d="M32.6782 44.1844C32.6782 44.1844 32.6642 44.1844 32.6549 44.1844C32.2992 44.1705 32.0184 43.871 32.0278 43.5156L32.7718 22.6434C32.7859 22.2879 33.0806 22.0024 33.4409 22.0165C33.7963 22.0305 34.0771 22.33 34.0678 22.6855L33.324 43.5576C33.3098 43.9084 33.0245 44.1844 32.6782 44.1844Z" fill="#CDDACE"/>
<path d="M35.5697 43.0642C35.5464 43.0642 35.5229 43.0642 35.4996 43.0642C35.1439 43.0267 34.8867 42.7087 34.9241 42.3482C34.9241 42.3482 35.6633 35.447 37.1511 21.6494C37.1885 21.2938 37.5113 21.0365 37.867 21.0739C38.2227 21.1114 38.4799 21.4342 38.4425 21.7898C36.9547 35.5874 36.2153 42.4886 36.2153 42.4886C36.1779 42.8208 35.8973 43.069 35.5697 43.069V43.0642Z" fill="#CDDACE"/>
<path d="M37.8809 42.377C37.8434 42.377 37.8108 42.377 37.7733 42.3677C37.4177 42.3069 37.1839 41.9748 37.2398 41.6191L40.6226 21.3506C40.6836 20.9951 41.0157 20.7611 41.3712 20.8173C41.7269 20.8781 41.9609 21.2103 41.9047 21.5659L38.5219 41.8344C38.4705 42.1526 38.1943 42.377 37.8809 42.377Z" fill="#CDDACE"/>
<path d="M42.8467 19.6165L39.1361 38.5993L40.4081 38.8479L44.1185 19.8651L42.8467 19.6165Z" fill="#CDDACE"/>
<path d="M41.9235 33.6192C41.8534 33.6192 41.7785 33.605 41.7082 33.5818C41.3715 33.4646 41.1936 33.095 41.3105 32.7535C44.3705 23.9996 44.4828 20.687 44.0335 19.4471C43.9121 19.1102 44.0851 18.7406 44.4219 18.619C44.7588 18.4973 45.1284 18.6704 45.2501 19.0073C46.0128 21.1268 45.1239 25.7587 42.5271 33.1793C42.4335 33.4459 42.1807 33.6144 41.9141 33.6144L41.9235 33.6192Z" fill="#CDDACE"/>
<path d="M23.5079 45.7421C19.2689 45.7421 14.4263 45.0729 8.99896 43.7347L9.30777 42.4761C24.0646 46.1162 34.2598 44.7173 39.6074 38.3121L40.6042 39.1449C36.9312 43.5429 31.2091 45.7466 23.5079 45.7466V45.7421Z" fill="#CDDACE"/>
<path d="M29.8709 15.1608C29.7446 15.1608 29.6229 15.1234 29.5106 15.0532L26.0436 12.7325C25.744 12.5313 25.6646 12.1289 25.8657 11.8342C26.0671 11.5348 26.4648 11.4552 26.764 11.6564L30.2311 13.9771C30.5306 14.1783 30.61 14.5806 30.4089 14.8754C30.2827 15.0625 30.0768 15.1608 29.8709 15.1608Z" fill="#CDDACE"/>
</g>
<defs>
<clipPath id="clip0_16_43">
<rect width="48" height="48" fill="white"/>
</clipPath>
</defs>
</svg>
